%TF.GenerationSoftware,KiCad,Pcbnew,(5.1.9)-1*%
%TF.CreationDate,2021-09-21T00:59:16-04:00*%
%TF.ProjectId,Servo-Simple-Tester-ver-0.1,53657276-6f2d-4536-996d-706c652d5465,rev?*%
%TF.SameCoordinates,Original*%
%TF.FileFunction,Legend,Top*%
%TF.FilePolarity,Positive*%
%FSLAX46Y46*%
G04 Gerber Fmt 4.6, Leading zero omitted, Abs format (unit mm)*
G04 Created by KiCad (PCBNEW (5.1.9)-1) date 2021-09-21 00:59:16*
%MOMM*%
%LPD*%
G01*
G04 APERTURE LIST*
%ADD10C,0.300000*%
%ADD11C,0.150000*%
%ADD12C,0.120000*%
G04 APERTURE END LIST*
D10*
X114658571Y-93947142D02*
X114872857Y-94018571D01*
X115229999Y-94018571D01*
X115372857Y-93947142D01*
X115444285Y-93875714D01*
X115515714Y-93732857D01*
X115515714Y-93590000D01*
X115444285Y-93447142D01*
X115372857Y-93375714D01*
X115229999Y-93304285D01*
X114944285Y-93232857D01*
X114801428Y-93161428D01*
X114729999Y-93090000D01*
X114658571Y-92947142D01*
X114658571Y-92804285D01*
X114729999Y-92661428D01*
X114801428Y-92590000D01*
X114944285Y-92518571D01*
X115301428Y-92518571D01*
X115515714Y-92590000D01*
X116729999Y-93947142D02*
X116587142Y-94018571D01*
X116301428Y-94018571D01*
X116158571Y-93947142D01*
X116087142Y-93804285D01*
X116087142Y-93232857D01*
X116158571Y-93090000D01*
X116301428Y-93018571D01*
X116587142Y-93018571D01*
X116729999Y-93090000D01*
X116801428Y-93232857D01*
X116801428Y-93375714D01*
X116087142Y-93518571D01*
X117444285Y-94018571D02*
X117444285Y-93018571D01*
X117444285Y-93304285D02*
X117515714Y-93161428D01*
X117587142Y-93090000D01*
X117729999Y-93018571D01*
X117872857Y-93018571D01*
X118229999Y-93018571D02*
X118587142Y-94018571D01*
X118944285Y-93018571D01*
X119729999Y-94018571D02*
X119587142Y-93947142D01*
X119515714Y-93875714D01*
X119444285Y-93732857D01*
X119444285Y-93304285D01*
X119515714Y-93161428D01*
X119587142Y-93090000D01*
X119729999Y-93018571D01*
X119944285Y-93018571D01*
X120087142Y-93090000D01*
X120158571Y-93161428D01*
X120229999Y-93304285D01*
X120229999Y-93732857D01*
X120158571Y-93875714D01*
X120087142Y-93947142D01*
X119944285Y-94018571D01*
X119729999Y-94018571D01*
X121944285Y-93947142D02*
X122158571Y-94018571D01*
X122515714Y-94018571D01*
X122658571Y-93947142D01*
X122729999Y-93875714D01*
X122801428Y-93732857D01*
X122801428Y-93590000D01*
X122729999Y-93447142D01*
X122658571Y-93375714D01*
X122515714Y-93304285D01*
X122229999Y-93232857D01*
X122087142Y-93161428D01*
X122015714Y-93090000D01*
X121944285Y-92947142D01*
X121944285Y-92804285D01*
X122015714Y-92661428D01*
X122087142Y-92590000D01*
X122229999Y-92518571D01*
X122587142Y-92518571D01*
X122801428Y-92590000D01*
X123444285Y-94018571D02*
X123444285Y-93018571D01*
X123444285Y-92518571D02*
X123372857Y-92590000D01*
X123444285Y-92661428D01*
X123515714Y-92590000D01*
X123444285Y-92518571D01*
X123444285Y-92661428D01*
X124158571Y-94018571D02*
X124158571Y-93018571D01*
X124158571Y-93161428D02*
X124230000Y-93090000D01*
X124372857Y-93018571D01*
X124587142Y-93018571D01*
X124730000Y-93090000D01*
X124801428Y-93232857D01*
X124801428Y-94018571D01*
X124801428Y-93232857D02*
X124872857Y-93090000D01*
X125015714Y-93018571D01*
X125230000Y-93018571D01*
X125372857Y-93090000D01*
X125444285Y-93232857D01*
X125444285Y-94018571D01*
X126158571Y-93018571D02*
X126158571Y-94518571D01*
X126158571Y-93090000D02*
X126301428Y-93018571D01*
X126587142Y-93018571D01*
X126730000Y-93090000D01*
X126801428Y-93161428D01*
X126872857Y-93304285D01*
X126872857Y-93732857D01*
X126801428Y-93875714D01*
X126730000Y-93947142D01*
X126587142Y-94018571D01*
X126301428Y-94018571D01*
X126158571Y-93947142D01*
X127729999Y-94018571D02*
X127587142Y-93947142D01*
X127515714Y-93804285D01*
X127515714Y-92518571D01*
X128872857Y-93947142D02*
X128729999Y-94018571D01*
X128444285Y-94018571D01*
X128301428Y-93947142D01*
X128229999Y-93804285D01*
X128229999Y-93232857D01*
X128301428Y-93090000D01*
X128444285Y-93018571D01*
X128729999Y-93018571D01*
X128872857Y-93090000D01*
X128944285Y-93232857D01*
X128944285Y-93375714D01*
X128229999Y-93518571D01*
X130515714Y-92518571D02*
X131372857Y-92518571D01*
X130944285Y-94018571D02*
X130944285Y-92518571D01*
X132444285Y-93947142D02*
X132301428Y-94018571D01*
X132015714Y-94018571D01*
X131872857Y-93947142D01*
X131801428Y-93804285D01*
X131801428Y-93232857D01*
X131872857Y-93090000D01*
X132015714Y-93018571D01*
X132301428Y-93018571D01*
X132444285Y-93090000D01*
X132515714Y-93232857D01*
X132515714Y-93375714D01*
X131801428Y-93518571D01*
X133087142Y-93947142D02*
X133230000Y-94018571D01*
X133515714Y-94018571D01*
X133658571Y-93947142D01*
X133730000Y-93804285D01*
X133730000Y-93732857D01*
X133658571Y-93590000D01*
X133515714Y-93518571D01*
X133301428Y-93518571D01*
X133158571Y-93447142D01*
X133087142Y-93304285D01*
X133087142Y-93232857D01*
X133158571Y-93090000D01*
X133301428Y-93018571D01*
X133515714Y-93018571D01*
X133658571Y-93090000D01*
X134158571Y-93018571D02*
X134730000Y-93018571D01*
X134372857Y-92518571D02*
X134372857Y-93804285D01*
X134444285Y-93947142D01*
X134587142Y-94018571D01*
X134730000Y-94018571D01*
X135801428Y-93947142D02*
X135658571Y-94018571D01*
X135372857Y-94018571D01*
X135230000Y-93947142D01*
X135158571Y-93804285D01*
X135158571Y-93232857D01*
X135230000Y-93090000D01*
X135372857Y-93018571D01*
X135658571Y-93018571D01*
X135801428Y-93090000D01*
X135872857Y-93232857D01*
X135872857Y-93375714D01*
X135158571Y-93518571D01*
X136515714Y-94018571D02*
X136515714Y-93018571D01*
X136515714Y-93304285D02*
X136587142Y-93161428D01*
X136658571Y-93090000D01*
X136801428Y-93018571D01*
X136944285Y-93018571D01*
X134301428Y-95068571D02*
X134801428Y-96568571D01*
X135301428Y-95068571D01*
X136087142Y-95068571D02*
X136230000Y-95068571D01*
X136372857Y-95140000D01*
X136444285Y-95211428D01*
X136515714Y-95354285D01*
X136587142Y-95640000D01*
X136587142Y-95997142D01*
X136515714Y-96282857D01*
X136444285Y-96425714D01*
X136372857Y-96497142D01*
X136230000Y-96568571D01*
X136087142Y-96568571D01*
X135944285Y-96497142D01*
X135872857Y-96425714D01*
X135801428Y-96282857D01*
X135730000Y-95997142D01*
X135730000Y-95640000D01*
X135801428Y-95354285D01*
X135872857Y-95211428D01*
X135944285Y-95140000D01*
X136087142Y-95068571D01*
X137230000Y-96425714D02*
X137301428Y-96497142D01*
X137230000Y-96568571D01*
X137158571Y-96497142D01*
X137230000Y-96425714D01*
X137230000Y-96568571D01*
X138730000Y-96568571D02*
X137872857Y-96568571D01*
X138301428Y-96568571D02*
X138301428Y-95068571D01*
X138158571Y-95282857D01*
X138015714Y-95425714D01*
X137872857Y-95497142D01*
D11*
X144375238Y-85598095D02*
X144327619Y-85740952D01*
X144327619Y-85979047D01*
X144375238Y-86074285D01*
X144422857Y-86121904D01*
X144518095Y-86169523D01*
X144613333Y-86169523D01*
X144708571Y-86121904D01*
X144756190Y-86074285D01*
X144803809Y-85979047D01*
X144851428Y-85788571D01*
X144899047Y-85693333D01*
X144946666Y-85645714D01*
X145041904Y-85598095D01*
X145137142Y-85598095D01*
X145232380Y-85645714D01*
X145280000Y-85693333D01*
X145327619Y-85788571D01*
X145327619Y-86026666D01*
X145280000Y-86169523D01*
X145327619Y-87026666D02*
X145327619Y-86836190D01*
X145280000Y-86740952D01*
X145232380Y-86693333D01*
X145089523Y-86598095D01*
X144899047Y-86550476D01*
X144518095Y-86550476D01*
X144422857Y-86598095D01*
X144375238Y-86645714D01*
X144327619Y-86740952D01*
X144327619Y-86931428D01*
X144375238Y-87026666D01*
X144422857Y-87074285D01*
X144518095Y-87121904D01*
X144756190Y-87121904D01*
X144851428Y-87074285D01*
X144899047Y-87026666D01*
X144946666Y-86931428D01*
X144946666Y-86740952D01*
X144899047Y-86645714D01*
X144851428Y-86598095D01*
X144756190Y-86550476D01*
X146915238Y-85598095D02*
X146867619Y-85740952D01*
X146867619Y-85979047D01*
X146915238Y-86074285D01*
X146962857Y-86121904D01*
X147058095Y-86169523D01*
X147153333Y-86169523D01*
X147248571Y-86121904D01*
X147296190Y-86074285D01*
X147343809Y-85979047D01*
X147391428Y-85788571D01*
X147439047Y-85693333D01*
X147486666Y-85645714D01*
X147581904Y-85598095D01*
X147677142Y-85598095D01*
X147772380Y-85645714D01*
X147820000Y-85693333D01*
X147867619Y-85788571D01*
X147867619Y-86026666D01*
X147820000Y-86169523D01*
X147867619Y-87074285D02*
X147867619Y-86598095D01*
X147391428Y-86550476D01*
X147439047Y-86598095D01*
X147486666Y-86693333D01*
X147486666Y-86931428D01*
X147439047Y-87026666D01*
X147391428Y-87074285D01*
X147296190Y-87121904D01*
X147058095Y-87121904D01*
X146962857Y-87074285D01*
X146915238Y-87026666D01*
X146867619Y-86931428D01*
X146867619Y-86693333D01*
X146915238Y-86598095D01*
X146962857Y-86550476D01*
X149455238Y-85598095D02*
X149407619Y-85740952D01*
X149407619Y-85979047D01*
X149455238Y-86074285D01*
X149502857Y-86121904D01*
X149598095Y-86169523D01*
X149693333Y-86169523D01*
X149788571Y-86121904D01*
X149836190Y-86074285D01*
X149883809Y-85979047D01*
X149931428Y-85788571D01*
X149979047Y-85693333D01*
X150026666Y-85645714D01*
X150121904Y-85598095D01*
X150217142Y-85598095D01*
X150312380Y-85645714D01*
X150360000Y-85693333D01*
X150407619Y-85788571D01*
X150407619Y-86026666D01*
X150360000Y-86169523D01*
X150074285Y-87026666D02*
X149407619Y-87026666D01*
X150455238Y-86788571D02*
X149740952Y-86550476D01*
X149740952Y-87169523D01*
X151995238Y-85598095D02*
X151947619Y-85740952D01*
X151947619Y-85979047D01*
X151995238Y-86074285D01*
X152042857Y-86121904D01*
X152138095Y-86169523D01*
X152233333Y-86169523D01*
X152328571Y-86121904D01*
X152376190Y-86074285D01*
X152423809Y-85979047D01*
X152471428Y-85788571D01*
X152519047Y-85693333D01*
X152566666Y-85645714D01*
X152661904Y-85598095D01*
X152757142Y-85598095D01*
X152852380Y-85645714D01*
X152900000Y-85693333D01*
X152947619Y-85788571D01*
X152947619Y-86026666D01*
X152900000Y-86169523D01*
X152947619Y-86502857D02*
X152947619Y-87121904D01*
X152566666Y-86788571D01*
X152566666Y-86931428D01*
X152519047Y-87026666D01*
X152471428Y-87074285D01*
X152376190Y-87121904D01*
X152138095Y-87121904D01*
X152042857Y-87074285D01*
X151995238Y-87026666D01*
X151947619Y-86931428D01*
X151947619Y-86645714D01*
X151995238Y-86550476D01*
X152042857Y-86502857D01*
X154535238Y-85598095D02*
X154487619Y-85740952D01*
X154487619Y-85979047D01*
X154535238Y-86074285D01*
X154582857Y-86121904D01*
X154678095Y-86169523D01*
X154773333Y-86169523D01*
X154868571Y-86121904D01*
X154916190Y-86074285D01*
X154963809Y-85979047D01*
X155011428Y-85788571D01*
X155059047Y-85693333D01*
X155106666Y-85645714D01*
X155201904Y-85598095D01*
X155297142Y-85598095D01*
X155392380Y-85645714D01*
X155440000Y-85693333D01*
X155487619Y-85788571D01*
X155487619Y-86026666D01*
X155440000Y-86169523D01*
X155392380Y-86550476D02*
X155440000Y-86598095D01*
X155487619Y-86693333D01*
X155487619Y-86931428D01*
X155440000Y-87026666D01*
X155392380Y-87074285D01*
X155297142Y-87121904D01*
X155201904Y-87121904D01*
X155059047Y-87074285D01*
X154487619Y-86502857D01*
X154487619Y-87121904D01*
X157075238Y-85598095D02*
X157027619Y-85740952D01*
X157027619Y-85979047D01*
X157075238Y-86074285D01*
X157122857Y-86121904D01*
X157218095Y-86169523D01*
X157313333Y-86169523D01*
X157408571Y-86121904D01*
X157456190Y-86074285D01*
X157503809Y-85979047D01*
X157551428Y-85788571D01*
X157599047Y-85693333D01*
X157646666Y-85645714D01*
X157741904Y-85598095D01*
X157837142Y-85598095D01*
X157932380Y-85645714D01*
X157980000Y-85693333D01*
X158027619Y-85788571D01*
X158027619Y-86026666D01*
X157980000Y-86169523D01*
X157027619Y-87121904D02*
X157027619Y-86550476D01*
X157027619Y-86836190D02*
X158027619Y-86836190D01*
X157884761Y-86740952D01*
X157789523Y-86645714D01*
X157741904Y-86550476D01*
D12*
%TO.C,J5*%
X146151600Y-89027000D02*
X158623000Y-89027000D01*
X146151600Y-91313000D02*
X158623000Y-91313000D01*
X158623000Y-91313000D02*
X158623000Y-89027000D01*
X146151600Y-91313000D02*
X146151600Y-89027000D01*
X144780000Y-91313000D02*
X143637000Y-91313000D01*
X143637000Y-91313000D02*
X143637000Y-90160800D01*
%TO.C,J4*%
X146151600Y-91567000D02*
X158623000Y-91567000D01*
X146151600Y-93853000D02*
X158623000Y-93853000D01*
X158623000Y-93853000D02*
X158623000Y-91567000D01*
X146151600Y-93853000D02*
X146151600Y-91567000D01*
X144780000Y-93853000D02*
X143637000Y-93853000D01*
X143637000Y-93853000D02*
X143637000Y-92700800D01*
%TO.C,J3*%
X146151600Y-94107000D02*
X158623000Y-94107000D01*
X146151600Y-96393000D02*
X158623000Y-96393000D01*
X158623000Y-96393000D02*
X158623000Y-94107000D01*
X146151600Y-96393000D02*
X146151600Y-94107000D01*
X144780000Y-96393000D02*
X143637000Y-96393000D01*
X143637000Y-96393000D02*
X143637000Y-95240800D01*
%TO.C,D1*%
X90460000Y-90136000D02*
X90460000Y-89980000D01*
X90460000Y-87820000D02*
X90460000Y-87664000D01*
X87858870Y-87820163D02*
G75*
G02*
X89940961Y-87820000I1041130J-1079837D01*
G01*
X87858870Y-89979837D02*
G75*
G03*
X89940961Y-89980000I1041130J1079837D01*
G01*
X87227665Y-87821392D02*
G75*
G02*
X90460000Y-87664484I1672335J-1078608D01*
G01*
X87227665Y-89978608D02*
G75*
G03*
X90460000Y-90135516I1672335J1078608D01*
G01*
%TO.C,J2*%
X113090000Y-125790000D02*
X113090000Y-123130000D01*
X110490000Y-125790000D02*
X113090000Y-125790000D01*
X110490000Y-123130000D02*
X113090000Y-123130000D01*
X110490000Y-125790000D02*
X110490000Y-123130000D01*
X109220000Y-125790000D02*
X107890000Y-125790000D01*
X107890000Y-125790000D02*
X107890000Y-124460000D01*
%TO.C,J1*%
X122615000Y-125790000D02*
X122615000Y-123130000D01*
X120015000Y-125790000D02*
X122615000Y-125790000D01*
X120015000Y-123130000D02*
X122615000Y-123130000D01*
X120015000Y-125790000D02*
X120015000Y-123130000D01*
X118745000Y-125790000D02*
X117415000Y-125790000D01*
X117415000Y-125790000D02*
X117415000Y-124460000D01*
%TO.C,SW3*%
X149440000Y-126150000D02*
X153940000Y-126150000D01*
X148190000Y-122150000D02*
X148190000Y-123650000D01*
X153940000Y-119650000D02*
X149440000Y-119650000D01*
X155190000Y-123650000D02*
X155190000Y-122150000D01*
%TO.C,SW2*%
X134835000Y-126150000D02*
X139335000Y-126150000D01*
X133585000Y-122150000D02*
X133585000Y-123650000D01*
X139335000Y-119650000D02*
X134835000Y-119650000D01*
X140585000Y-123650000D02*
X140585000Y-122150000D01*
%TO.C,SW1*%
X164680000Y-126150000D02*
X169180000Y-126150000D01*
X163430000Y-122150000D02*
X163430000Y-123650000D01*
X169180000Y-119650000D02*
X164680000Y-119650000D01*
X170430000Y-123650000D02*
X170430000Y-122150000D01*
%TO.C,RV3*%
X171570000Y-101235000D02*
X161830000Y-101235000D01*
X171570000Y-112825000D02*
X170080000Y-112825000D01*
X171570000Y-104295000D02*
X171570000Y-101235000D01*
X161830000Y-112825000D02*
X161830000Y-108105000D01*
X161830000Y-104295000D02*
X161830000Y-101235000D01*
X171570000Y-112825000D02*
X171570000Y-108105000D01*
X163010000Y-112825000D02*
X161830000Y-112825000D01*
X165910000Y-112825000D02*
X165380000Y-112825000D01*
X168360000Y-112825000D02*
X167530000Y-112825000D01*
%TO.C,RV2*%
X156330000Y-101235000D02*
X146590000Y-101235000D01*
X156330000Y-112825000D02*
X154840000Y-112825000D01*
X156330000Y-104295000D02*
X156330000Y-101235000D01*
X146590000Y-112825000D02*
X146590000Y-108105000D01*
X146590000Y-104295000D02*
X146590000Y-101235000D01*
X156330000Y-112825000D02*
X156330000Y-108105000D01*
X147770000Y-112825000D02*
X146590000Y-112825000D01*
X150670000Y-112825000D02*
X150140000Y-112825000D01*
X153120000Y-112825000D02*
X152290000Y-112825000D01*
%TO.C,RV1*%
X141090000Y-101235000D02*
X131350000Y-101235000D01*
X141090000Y-112825000D02*
X139600000Y-112825000D01*
X141090000Y-104295000D02*
X141090000Y-101235000D01*
X131350000Y-112825000D02*
X131350000Y-108105000D01*
X131350000Y-104295000D02*
X131350000Y-101235000D01*
X141090000Y-112825000D02*
X141090000Y-108105000D01*
X132530000Y-112825000D02*
X131350000Y-112825000D01*
X135430000Y-112825000D02*
X134900000Y-112825000D01*
X137880000Y-112825000D02*
X137050000Y-112825000D01*
%TO.C,R2*%
X122540000Y-86075000D02*
X122540000Y-87915000D01*
X122540000Y-87915000D02*
X126380000Y-87915000D01*
X126380000Y-87915000D02*
X126380000Y-86075000D01*
X126380000Y-86075000D02*
X122540000Y-86075000D01*
X121590000Y-86995000D02*
X122540000Y-86995000D01*
X127330000Y-86995000D02*
X126380000Y-86995000D01*
%TO.C,R1*%
X126380000Y-91725000D02*
X126380000Y-89885000D01*
X126380000Y-89885000D02*
X122540000Y-89885000D01*
X122540000Y-89885000D02*
X122540000Y-91725000D01*
X122540000Y-91725000D02*
X126380000Y-91725000D01*
X127330000Y-90805000D02*
X126380000Y-90805000D01*
X121590000Y-90805000D02*
X122540000Y-90805000D01*
%TO.C,J6*%
X87164000Y-118015000D02*
X87164000Y-118785000D01*
X87164000Y-121865000D02*
X87164000Y-122692000D01*
X87164000Y-124959000D02*
X87164000Y-126135000D01*
X92025000Y-118015000D02*
X92025000Y-126135000D01*
X83605000Y-118015000D02*
X83605000Y-126135000D01*
X92025000Y-118015000D02*
X83605000Y-118015000D01*
X92025000Y-126135000D02*
X83605000Y-126135000D01*
X91265000Y-118925000D02*
X91265000Y-121725000D01*
X91265000Y-118925000D02*
X89805000Y-118925000D01*
X91265000Y-121725000D02*
X89805000Y-121725000D01*
X91265000Y-122425000D02*
X91265000Y-125225000D01*
X87515000Y-122425000D02*
X87515000Y-122426000D01*
X87515000Y-125225000D02*
X87515000Y-125225000D01*
X91265000Y-122425000D02*
X88954000Y-122425000D01*
X87576000Y-122425000D02*
X87515000Y-122425000D01*
X91265000Y-125225000D02*
X88954000Y-125225000D01*
X87576000Y-125225000D02*
X87515000Y-125225000D01*
X85605000Y-117775000D02*
X83365000Y-117775000D01*
X83365000Y-117775000D02*
X83365000Y-119775000D01*
X89522767Y-122885085D02*
G75*
G02*
X89523000Y-124765000I342233J-939915D01*
G01*
X89794434Y-119327110D02*
G75*
G02*
X89796000Y-121323000I70566J-997890D01*
G01*
%TO.C,D6*%
X101145000Y-120520000D02*
X101145000Y-120850000D01*
X101145000Y-120850000D02*
X95705000Y-120850000D01*
X95705000Y-120850000D02*
X95705000Y-120520000D01*
X101145000Y-118240000D02*
X101145000Y-117910000D01*
X101145000Y-117910000D02*
X95705000Y-117910000D01*
X95705000Y-117910000D02*
X95705000Y-118240000D01*
X100245000Y-120850000D02*
X100245000Y-117910000D01*
X100125000Y-120850000D02*
X100125000Y-117910000D01*
X100365000Y-120850000D02*
X100365000Y-117910000D01*
%TO.C,D5*%
X95705000Y-123320000D02*
X95705000Y-122990000D01*
X95705000Y-122990000D02*
X101145000Y-122990000D01*
X101145000Y-122990000D02*
X101145000Y-123320000D01*
X95705000Y-125600000D02*
X95705000Y-125930000D01*
X95705000Y-125930000D02*
X101145000Y-125930000D01*
X101145000Y-125930000D02*
X101145000Y-125600000D01*
X96605000Y-122990000D02*
X96605000Y-125930000D01*
X96725000Y-122990000D02*
X96725000Y-125930000D01*
X96485000Y-122990000D02*
X96485000Y-125930000D01*
%TO.C,D4*%
X115225000Y-90136000D02*
X115225000Y-89980000D01*
X115225000Y-87820000D02*
X115225000Y-87664000D01*
X112623870Y-87820163D02*
G75*
G02*
X114705961Y-87820000I1041130J-1079837D01*
G01*
X112623870Y-89979837D02*
G75*
G03*
X114705961Y-89980000I1041130J1079837D01*
G01*
X111992665Y-87821392D02*
G75*
G02*
X115225000Y-87664484I1672335J-1078608D01*
G01*
X111992665Y-89978608D02*
G75*
G03*
X115225000Y-90135516I1672335J1078608D01*
G01*
%TO.C,D3*%
X107605000Y-90136000D02*
X107605000Y-89980000D01*
X107605000Y-87820000D02*
X107605000Y-87664000D01*
X105003870Y-87820163D02*
G75*
G02*
X107085961Y-87820000I1041130J-1079837D01*
G01*
X105003870Y-89979837D02*
G75*
G03*
X107085961Y-89980000I1041130J1079837D01*
G01*
X104372665Y-87821392D02*
G75*
G02*
X107605000Y-87664484I1672335J-1078608D01*
G01*
X104372665Y-89978608D02*
G75*
G03*
X107605000Y-90135516I1672335J1078608D01*
G01*
%TO.C,D2*%
X99985000Y-90136000D02*
X99985000Y-89980000D01*
X99985000Y-87820000D02*
X99985000Y-87664000D01*
X97383870Y-87820163D02*
G75*
G02*
X99465961Y-87820000I1041130J-1079837D01*
G01*
X97383870Y-89979837D02*
G75*
G03*
X99465961Y-89980000I1041130J1079837D01*
G01*
X96752665Y-87821392D02*
G75*
G02*
X99985000Y-87664484I1672335J-1078608D01*
G01*
X96752665Y-89978608D02*
G75*
G03*
X99985000Y-90135516I1672335J1078608D01*
G01*
%TO.C,A1*%
X122555000Y-98425000D02*
X125095000Y-98425000D01*
X125095000Y-98425000D02*
X125095000Y-95755000D01*
X122555000Y-95755000D02*
X84325000Y-95755000D01*
X127765000Y-95755000D02*
X125095000Y-95755000D01*
X125095000Y-111125000D02*
X125095000Y-113795000D01*
X125095000Y-111125000D02*
X86995000Y-111125000D01*
X86995000Y-111125000D02*
X86995000Y-113795000D01*
X122555000Y-98425000D02*
X122555000Y-95755000D01*
X122555000Y-98425000D02*
X86995000Y-98425000D01*
X86995000Y-98425000D02*
X86995000Y-95755000D01*
X84325000Y-95755000D02*
X84325000Y-113795000D01*
X84325000Y-113795000D02*
X127765000Y-113795000D01*
X127765000Y-113795000D02*
X127765000Y-95755000D01*
%TO.C,J5*%
D11*
X140636666Y-89622380D02*
X140636666Y-90336666D01*
X140589047Y-90479523D01*
X140493809Y-90574761D01*
X140350952Y-90622380D01*
X140255714Y-90622380D01*
X141589047Y-89622380D02*
X141112857Y-89622380D01*
X141065238Y-90098571D01*
X141112857Y-90050952D01*
X141208095Y-90003333D01*
X141446190Y-90003333D01*
X141541428Y-90050952D01*
X141589047Y-90098571D01*
X141636666Y-90193809D01*
X141636666Y-90431904D01*
X141589047Y-90527142D01*
X141541428Y-90574761D01*
X141446190Y-90622380D01*
X141208095Y-90622380D01*
X141112857Y-90574761D01*
X141065238Y-90527142D01*
X162329761Y-90455714D02*
X162377380Y-90312857D01*
X162377380Y-90074761D01*
X162329761Y-89979523D01*
X162282142Y-89931904D01*
X162186904Y-89884285D01*
X162091666Y-89884285D01*
X161996428Y-89931904D01*
X161948809Y-89979523D01*
X161901190Y-90074761D01*
X161853571Y-90265238D01*
X161805952Y-90360476D01*
X161758333Y-90408095D01*
X161663095Y-90455714D01*
X161567857Y-90455714D01*
X161472619Y-90408095D01*
X161425000Y-90360476D01*
X161377380Y-90265238D01*
X161377380Y-90027142D01*
X161425000Y-89884285D01*
%TO.C,J4*%
X140636666Y-92162380D02*
X140636666Y-92876666D01*
X140589047Y-93019523D01*
X140493809Y-93114761D01*
X140350952Y-93162380D01*
X140255714Y-93162380D01*
X141541428Y-92495714D02*
X141541428Y-93162380D01*
X141303333Y-92114761D02*
X141065238Y-92829047D01*
X141684285Y-92829047D01*
X161996428Y-93090952D02*
X161996428Y-92329047D01*
X162377380Y-92710000D02*
X161615476Y-92710000D01*
%TO.C,J3*%
X140636666Y-94702380D02*
X140636666Y-95416666D01*
X140589047Y-95559523D01*
X140493809Y-95654761D01*
X140350952Y-95702380D01*
X140255714Y-95702380D01*
X141017619Y-94702380D02*
X141636666Y-94702380D01*
X141303333Y-95083333D01*
X141446190Y-95083333D01*
X141541428Y-95130952D01*
X141589047Y-95178571D01*
X141636666Y-95273809D01*
X141636666Y-95511904D01*
X141589047Y-95607142D01*
X141541428Y-95654761D01*
X141446190Y-95702380D01*
X141160476Y-95702380D01*
X141065238Y-95654761D01*
X141017619Y-95607142D01*
X161996428Y-95630952D02*
X161996428Y-94869047D01*
%TO.C,D1*%
X84351904Y-89352380D02*
X84351904Y-88352380D01*
X84590000Y-88352380D01*
X84732857Y-88400000D01*
X84828095Y-88495238D01*
X84875714Y-88590476D01*
X84923333Y-88780952D01*
X84923333Y-88923809D01*
X84875714Y-89114285D01*
X84828095Y-89209523D01*
X84732857Y-89304761D01*
X84590000Y-89352380D01*
X84351904Y-89352380D01*
X85875714Y-89352380D02*
X85304285Y-89352380D01*
X85590000Y-89352380D02*
X85590000Y-88352380D01*
X85494761Y-88495238D01*
X85399523Y-88590476D01*
X85304285Y-88638095D01*
%TO.C,J2*%
X110156666Y-120737380D02*
X110156666Y-121451666D01*
X110109047Y-121594523D01*
X110013809Y-121689761D01*
X109870952Y-121737380D01*
X109775714Y-121737380D01*
X110585238Y-120832619D02*
X110632857Y-120785000D01*
X110728095Y-120737380D01*
X110966190Y-120737380D01*
X111061428Y-120785000D01*
X111109047Y-120832619D01*
X111156666Y-120927857D01*
X111156666Y-121023095D01*
X111109047Y-121165952D01*
X110537619Y-121737380D01*
X111156666Y-121737380D01*
%TO.C,J1*%
X119681666Y-120737380D02*
X119681666Y-121451666D01*
X119634047Y-121594523D01*
X119538809Y-121689761D01*
X119395952Y-121737380D01*
X119300714Y-121737380D01*
X120681666Y-121737380D02*
X120110238Y-121737380D01*
X120395952Y-121737380D02*
X120395952Y-120737380D01*
X120300714Y-120880238D01*
X120205476Y-120975476D01*
X120110238Y-121023095D01*
%TO.C,SW3*%
X150281666Y-123594761D02*
X150424523Y-123642380D01*
X150662619Y-123642380D01*
X150757857Y-123594761D01*
X150805476Y-123547142D01*
X150853095Y-123451904D01*
X150853095Y-123356666D01*
X150805476Y-123261428D01*
X150757857Y-123213809D01*
X150662619Y-123166190D01*
X150472142Y-123118571D01*
X150376904Y-123070952D01*
X150329285Y-123023333D01*
X150281666Y-122928095D01*
X150281666Y-122832857D01*
X150329285Y-122737619D01*
X150376904Y-122690000D01*
X150472142Y-122642380D01*
X150710238Y-122642380D01*
X150853095Y-122690000D01*
X151186428Y-122642380D02*
X151424523Y-123642380D01*
X151615000Y-122928095D01*
X151805476Y-123642380D01*
X152043571Y-122642380D01*
X152329285Y-122642380D02*
X152948333Y-122642380D01*
X152615000Y-123023333D01*
X152757857Y-123023333D01*
X152853095Y-123070952D01*
X152900714Y-123118571D01*
X152948333Y-123213809D01*
X152948333Y-123451904D01*
X152900714Y-123547142D01*
X152853095Y-123594761D01*
X152757857Y-123642380D01*
X152472142Y-123642380D01*
X152376904Y-123594761D01*
X152329285Y-123547142D01*
X148376904Y-128722380D02*
X148376904Y-127722380D01*
X148757857Y-127722380D01*
X148853095Y-127770000D01*
X148900714Y-127817619D01*
X148948333Y-127912857D01*
X148948333Y-128055714D01*
X148900714Y-128150952D01*
X148853095Y-128198571D01*
X148757857Y-128246190D01*
X148376904Y-128246190D01*
X149519761Y-128722380D02*
X149424523Y-128674761D01*
X149376904Y-128579523D01*
X149376904Y-127722380D01*
X150329285Y-128722380D02*
X150329285Y-128198571D01*
X150281666Y-128103333D01*
X150186428Y-128055714D01*
X149995952Y-128055714D01*
X149900714Y-128103333D01*
X150329285Y-128674761D02*
X150234047Y-128722380D01*
X149995952Y-128722380D01*
X149900714Y-128674761D01*
X149853095Y-128579523D01*
X149853095Y-128484285D01*
X149900714Y-128389047D01*
X149995952Y-128341428D01*
X150234047Y-128341428D01*
X150329285Y-128293809D01*
X150710238Y-128055714D02*
X150948333Y-128722380D01*
X151186428Y-128055714D02*
X150948333Y-128722380D01*
X150853095Y-128960476D01*
X150805476Y-129008095D01*
X150710238Y-129055714D01*
X152281666Y-127674761D02*
X151424523Y-128960476D01*
X153186428Y-128722380D02*
X152853095Y-128246190D01*
X152615000Y-128722380D02*
X152615000Y-127722380D01*
X152995952Y-127722380D01*
X153091190Y-127770000D01*
X153138809Y-127817619D01*
X153186428Y-127912857D01*
X153186428Y-128055714D01*
X153138809Y-128150952D01*
X153091190Y-128198571D01*
X152995952Y-128246190D01*
X152615000Y-128246190D01*
X153995952Y-128674761D02*
X153900714Y-128722380D01*
X153710238Y-128722380D01*
X153615000Y-128674761D01*
X153567380Y-128579523D01*
X153567380Y-128198571D01*
X153615000Y-128103333D01*
X153710238Y-128055714D01*
X153900714Y-128055714D01*
X153995952Y-128103333D01*
X154043571Y-128198571D01*
X154043571Y-128293809D01*
X153567380Y-128389047D01*
X154900714Y-128674761D02*
X154805476Y-128722380D01*
X154615000Y-128722380D01*
X154519761Y-128674761D01*
X154472142Y-128627142D01*
X154424523Y-128531904D01*
X154424523Y-128246190D01*
X154472142Y-128150952D01*
X154519761Y-128103333D01*
X154615000Y-128055714D01*
X154805476Y-128055714D01*
X154900714Y-128103333D01*
%TO.C,SW2*%
X135751666Y-123594761D02*
X135894523Y-123642380D01*
X136132619Y-123642380D01*
X136227857Y-123594761D01*
X136275476Y-123547142D01*
X136323095Y-123451904D01*
X136323095Y-123356666D01*
X136275476Y-123261428D01*
X136227857Y-123213809D01*
X136132619Y-123166190D01*
X135942142Y-123118571D01*
X135846904Y-123070952D01*
X135799285Y-123023333D01*
X135751666Y-122928095D01*
X135751666Y-122832857D01*
X135799285Y-122737619D01*
X135846904Y-122690000D01*
X135942142Y-122642380D01*
X136180238Y-122642380D01*
X136323095Y-122690000D01*
X136656428Y-122642380D02*
X136894523Y-123642380D01*
X137085000Y-122928095D01*
X137275476Y-123642380D01*
X137513571Y-122642380D01*
X137846904Y-122737619D02*
X137894523Y-122690000D01*
X137989761Y-122642380D01*
X138227857Y-122642380D01*
X138323095Y-122690000D01*
X138370714Y-122737619D01*
X138418333Y-122832857D01*
X138418333Y-122928095D01*
X138370714Y-123070952D01*
X137799285Y-123642380D01*
X138418333Y-123642380D01*
X133350476Y-128674761D02*
X133493333Y-128722380D01*
X133731428Y-128722380D01*
X133826666Y-128674761D01*
X133874285Y-128627142D01*
X133921904Y-128531904D01*
X133921904Y-128436666D01*
X133874285Y-128341428D01*
X133826666Y-128293809D01*
X133731428Y-128246190D01*
X133540952Y-128198571D01*
X133445714Y-128150952D01*
X133398095Y-128103333D01*
X133350476Y-128008095D01*
X133350476Y-127912857D01*
X133398095Y-127817619D01*
X133445714Y-127770000D01*
X133540952Y-127722380D01*
X133779047Y-127722380D01*
X133921904Y-127770000D01*
X134207619Y-128055714D02*
X134588571Y-128055714D01*
X134350476Y-127722380D02*
X134350476Y-128579523D01*
X134398095Y-128674761D01*
X134493333Y-128722380D01*
X134588571Y-128722380D01*
X135064761Y-128722380D02*
X134969523Y-128674761D01*
X134921904Y-128627142D01*
X134874285Y-128531904D01*
X134874285Y-128246190D01*
X134921904Y-128150952D01*
X134969523Y-128103333D01*
X135064761Y-128055714D01*
X135207619Y-128055714D01*
X135302857Y-128103333D01*
X135350476Y-128150952D01*
X135398095Y-128246190D01*
X135398095Y-128531904D01*
X135350476Y-128627142D01*
X135302857Y-128674761D01*
X135207619Y-128722380D01*
X135064761Y-128722380D01*
X135826666Y-128055714D02*
X135826666Y-129055714D01*
X135826666Y-128103333D02*
X135921904Y-128055714D01*
X136112380Y-128055714D01*
X136207619Y-128103333D01*
X136255238Y-128150952D01*
X136302857Y-128246190D01*
X136302857Y-128531904D01*
X136255238Y-128627142D01*
X136207619Y-128674761D01*
X136112380Y-128722380D01*
X135921904Y-128722380D01*
X135826666Y-128674761D01*
X137445714Y-127674761D02*
X136588571Y-128960476D01*
X137731428Y-128674761D02*
X137874285Y-128722380D01*
X138112380Y-128722380D01*
X138207619Y-128674761D01*
X138255238Y-128627142D01*
X138302857Y-128531904D01*
X138302857Y-128436666D01*
X138255238Y-128341428D01*
X138207619Y-128293809D01*
X138112380Y-128246190D01*
X137921904Y-128198571D01*
X137826666Y-128150952D01*
X137779047Y-128103333D01*
X137731428Y-128008095D01*
X137731428Y-127912857D01*
X137779047Y-127817619D01*
X137826666Y-127770000D01*
X137921904Y-127722380D01*
X138160000Y-127722380D01*
X138302857Y-127770000D01*
X138588571Y-128055714D02*
X138969523Y-128055714D01*
X138731428Y-127722380D02*
X138731428Y-128579523D01*
X138779047Y-128674761D01*
X138874285Y-128722380D01*
X138969523Y-128722380D01*
X139731428Y-128722380D02*
X139731428Y-128198571D01*
X139683809Y-128103333D01*
X139588571Y-128055714D01*
X139398095Y-128055714D01*
X139302857Y-128103333D01*
X139731428Y-128674761D02*
X139636190Y-128722380D01*
X139398095Y-128722380D01*
X139302857Y-128674761D01*
X139255238Y-128579523D01*
X139255238Y-128484285D01*
X139302857Y-128389047D01*
X139398095Y-128341428D01*
X139636190Y-128341428D01*
X139731428Y-128293809D01*
X140207619Y-128722380D02*
X140207619Y-128055714D01*
X140207619Y-128246190D02*
X140255238Y-128150952D01*
X140302857Y-128103333D01*
X140398095Y-128055714D01*
X140493333Y-128055714D01*
X140683809Y-128055714D02*
X141064761Y-128055714D01*
X140826666Y-127722380D02*
X140826666Y-128579523D01*
X140874285Y-128674761D01*
X140969523Y-128722380D01*
X141064761Y-128722380D01*
%TO.C,SW1*%
X165596666Y-123594761D02*
X165739523Y-123642380D01*
X165977619Y-123642380D01*
X166072857Y-123594761D01*
X166120476Y-123547142D01*
X166168095Y-123451904D01*
X166168095Y-123356666D01*
X166120476Y-123261428D01*
X166072857Y-123213809D01*
X165977619Y-123166190D01*
X165787142Y-123118571D01*
X165691904Y-123070952D01*
X165644285Y-123023333D01*
X165596666Y-122928095D01*
X165596666Y-122832857D01*
X165644285Y-122737619D01*
X165691904Y-122690000D01*
X165787142Y-122642380D01*
X166025238Y-122642380D01*
X166168095Y-122690000D01*
X166501428Y-122642380D02*
X166739523Y-123642380D01*
X166930000Y-122928095D01*
X167120476Y-123642380D01*
X167358571Y-122642380D01*
X168263333Y-123642380D02*
X167691904Y-123642380D01*
X167977619Y-123642380D02*
X167977619Y-122642380D01*
X167882380Y-122785238D01*
X167787142Y-122880476D01*
X167691904Y-122928095D01*
X165188333Y-128722380D02*
X165188333Y-127722380D01*
X165521666Y-128436666D01*
X165855000Y-127722380D01*
X165855000Y-128722380D01*
X166474047Y-128722380D02*
X166378809Y-128674761D01*
X166331190Y-128627142D01*
X166283571Y-128531904D01*
X166283571Y-128246190D01*
X166331190Y-128150952D01*
X166378809Y-128103333D01*
X166474047Y-128055714D01*
X166616904Y-128055714D01*
X166712142Y-128103333D01*
X166759761Y-128150952D01*
X166807380Y-128246190D01*
X166807380Y-128531904D01*
X166759761Y-128627142D01*
X166712142Y-128674761D01*
X166616904Y-128722380D01*
X166474047Y-128722380D01*
X167664523Y-128722380D02*
X167664523Y-127722380D01*
X167664523Y-128674761D02*
X167569285Y-128722380D01*
X167378809Y-128722380D01*
X167283571Y-128674761D01*
X167235952Y-128627142D01*
X167188333Y-128531904D01*
X167188333Y-128246190D01*
X167235952Y-128150952D01*
X167283571Y-128103333D01*
X167378809Y-128055714D01*
X167569285Y-128055714D01*
X167664523Y-128103333D01*
X168521666Y-128674761D02*
X168426428Y-128722380D01*
X168235952Y-128722380D01*
X168140714Y-128674761D01*
X168093095Y-128579523D01*
X168093095Y-128198571D01*
X168140714Y-128103333D01*
X168235952Y-128055714D01*
X168426428Y-128055714D01*
X168521666Y-128103333D01*
X168569285Y-128198571D01*
X168569285Y-128293809D01*
X168093095Y-128389047D01*
%TO.C,RV3*%
X159592380Y-107950238D02*
X159116190Y-108283571D01*
X159592380Y-108521666D02*
X158592380Y-108521666D01*
X158592380Y-108140714D01*
X158640000Y-108045476D01*
X158687619Y-107997857D01*
X158782857Y-107950238D01*
X158925714Y-107950238D01*
X159020952Y-107997857D01*
X159068571Y-108045476D01*
X159116190Y-108140714D01*
X159116190Y-108521666D01*
X158592380Y-107664523D02*
X159592380Y-107331190D01*
X158592380Y-106997857D01*
X158592380Y-106759761D02*
X158592380Y-106140714D01*
X158973333Y-106474047D01*
X158973333Y-106331190D01*
X159020952Y-106235952D01*
X159068571Y-106188333D01*
X159163809Y-106140714D01*
X159401904Y-106140714D01*
X159497142Y-106188333D01*
X159544761Y-106235952D01*
X159592380Y-106331190D01*
X159592380Y-106616904D01*
X159544761Y-106712142D01*
X159497142Y-106759761D01*
%TO.C,RV2*%
X144352380Y-107950238D02*
X143876190Y-108283571D01*
X144352380Y-108521666D02*
X143352380Y-108521666D01*
X143352380Y-108140714D01*
X143400000Y-108045476D01*
X143447619Y-107997857D01*
X143542857Y-107950238D01*
X143685714Y-107950238D01*
X143780952Y-107997857D01*
X143828571Y-108045476D01*
X143876190Y-108140714D01*
X143876190Y-108521666D01*
X143352380Y-107664523D02*
X144352380Y-107331190D01*
X143352380Y-106997857D01*
X143447619Y-106712142D02*
X143400000Y-106664523D01*
X143352380Y-106569285D01*
X143352380Y-106331190D01*
X143400000Y-106235952D01*
X143447619Y-106188333D01*
X143542857Y-106140714D01*
X143638095Y-106140714D01*
X143780952Y-106188333D01*
X144352380Y-106759761D01*
X144352380Y-106140714D01*
%TO.C,RV1*%
X129112380Y-107950238D02*
X128636190Y-108283571D01*
X129112380Y-108521666D02*
X128112380Y-108521666D01*
X128112380Y-108140714D01*
X128160000Y-108045476D01*
X128207619Y-107997857D01*
X128302857Y-107950238D01*
X128445714Y-107950238D01*
X128540952Y-107997857D01*
X128588571Y-108045476D01*
X128636190Y-108140714D01*
X128636190Y-108521666D01*
X128112380Y-107664523D02*
X129112380Y-107331190D01*
X128112380Y-106997857D01*
X129112380Y-106140714D02*
X129112380Y-106712142D01*
X129112380Y-106426428D02*
X128112380Y-106426428D01*
X128255238Y-106521666D01*
X128350476Y-106616904D01*
X128398095Y-106712142D01*
%TO.C,R2*%
X122388333Y-85527380D02*
X122055000Y-85051190D01*
X121816904Y-85527380D02*
X121816904Y-84527380D01*
X122197857Y-84527380D01*
X122293095Y-84575000D01*
X122340714Y-84622619D01*
X122388333Y-84717857D01*
X122388333Y-84860714D01*
X122340714Y-84955952D01*
X122293095Y-85003571D01*
X122197857Y-85051190D01*
X121816904Y-85051190D01*
X122769285Y-84622619D02*
X122816904Y-84575000D01*
X122912142Y-84527380D01*
X123150238Y-84527380D01*
X123245476Y-84575000D01*
X123293095Y-84622619D01*
X123340714Y-84717857D01*
X123340714Y-84813095D01*
X123293095Y-84955952D01*
X122721666Y-85527380D01*
X123340714Y-85527380D01*
X126245952Y-85542380D02*
X125674523Y-85542380D01*
X125960238Y-85542380D02*
X125960238Y-84542380D01*
X125865000Y-84685238D01*
X125769761Y-84780476D01*
X125674523Y-84828095D01*
X126674523Y-85542380D02*
X126674523Y-84542380D01*
X126769761Y-85161428D02*
X127055476Y-85542380D01*
X127055476Y-84875714D02*
X126674523Y-85256666D01*
%TO.C,R1*%
X122388333Y-89352380D02*
X122055000Y-88876190D01*
X121816904Y-89352380D02*
X121816904Y-88352380D01*
X122197857Y-88352380D01*
X122293095Y-88400000D01*
X122340714Y-88447619D01*
X122388333Y-88542857D01*
X122388333Y-88685714D01*
X122340714Y-88780952D01*
X122293095Y-88828571D01*
X122197857Y-88876190D01*
X121816904Y-88876190D01*
X123340714Y-89352380D02*
X122769285Y-89352380D01*
X123055000Y-89352380D02*
X123055000Y-88352380D01*
X122959761Y-88495238D01*
X122864523Y-88590476D01*
X122769285Y-88638095D01*
X126245952Y-89337380D02*
X125674523Y-89337380D01*
X125960238Y-89337380D02*
X125960238Y-88337380D01*
X125865000Y-88480238D01*
X125769761Y-88575476D01*
X125674523Y-88623095D01*
X126674523Y-89337380D02*
X126674523Y-88337380D01*
X126769761Y-88956428D02*
X127055476Y-89337380D01*
X127055476Y-88670714D02*
X126674523Y-89051666D01*
%TO.C,J6*%
X87296666Y-116292380D02*
X87296666Y-117006666D01*
X87249047Y-117149523D01*
X87153809Y-117244761D01*
X87010952Y-117292380D01*
X86915714Y-117292380D01*
X88201428Y-116292380D02*
X88010952Y-116292380D01*
X87915714Y-116340000D01*
X87868095Y-116387619D01*
X87772857Y-116530476D01*
X87725238Y-116720952D01*
X87725238Y-117101904D01*
X87772857Y-117197142D01*
X87820476Y-117244761D01*
X87915714Y-117292380D01*
X88106190Y-117292380D01*
X88201428Y-117244761D01*
X88249047Y-117197142D01*
X88296666Y-117101904D01*
X88296666Y-116863809D01*
X88249047Y-116768571D01*
X88201428Y-116720952D01*
X88106190Y-116673333D01*
X87915714Y-116673333D01*
X87820476Y-116720952D01*
X87772857Y-116768571D01*
X87725238Y-116863809D01*
X82367380Y-124575000D02*
X81367380Y-124575000D01*
X81367380Y-124194047D01*
X81415000Y-124098809D01*
X81462619Y-124051190D01*
X81557857Y-124003571D01*
X81700714Y-124003571D01*
X81795952Y-124051190D01*
X81843571Y-124098809D01*
X81891190Y-124194047D01*
X81891190Y-124575000D01*
X81367380Y-123384523D02*
X81367380Y-123194047D01*
X81415000Y-123098809D01*
X81510238Y-123003571D01*
X81700714Y-122955952D01*
X82034047Y-122955952D01*
X82224523Y-123003571D01*
X82319761Y-123098809D01*
X82367380Y-123194047D01*
X82367380Y-123384523D01*
X82319761Y-123479761D01*
X82224523Y-123575000D01*
X82034047Y-123622619D01*
X81700714Y-123622619D01*
X81510238Y-123575000D01*
X81415000Y-123479761D01*
X81367380Y-123384523D01*
X81367380Y-122622619D02*
X82367380Y-122384523D01*
X81653095Y-122194047D01*
X82367380Y-122003571D01*
X81367380Y-121765476D01*
X82367380Y-120622619D02*
X81367380Y-120622619D01*
X82367380Y-120146428D02*
X81367380Y-120146428D01*
X82367380Y-119575000D01*
X81367380Y-119575000D01*
%TO.C,D6*%
X97686904Y-119832380D02*
X97686904Y-118832380D01*
X97925000Y-118832380D01*
X98067857Y-118880000D01*
X98163095Y-118975238D01*
X98210714Y-119070476D01*
X98258333Y-119260952D01*
X98258333Y-119403809D01*
X98210714Y-119594285D01*
X98163095Y-119689523D01*
X98067857Y-119784761D01*
X97925000Y-119832380D01*
X97686904Y-119832380D01*
X99115476Y-118832380D02*
X98925000Y-118832380D01*
X98829761Y-118880000D01*
X98782142Y-118927619D01*
X98686904Y-119070476D01*
X98639285Y-119260952D01*
X98639285Y-119641904D01*
X98686904Y-119737142D01*
X98734523Y-119784761D01*
X98829761Y-119832380D01*
X99020238Y-119832380D01*
X99115476Y-119784761D01*
X99163095Y-119737142D01*
X99210714Y-119641904D01*
X99210714Y-119403809D01*
X99163095Y-119308571D01*
X99115476Y-119260952D01*
X99020238Y-119213333D01*
X98829761Y-119213333D01*
X98734523Y-119260952D01*
X98686904Y-119308571D01*
X98639285Y-119403809D01*
X101973095Y-117292380D02*
X101973095Y-116292380D01*
X102544523Y-117292380D02*
X102115952Y-116720952D01*
X102544523Y-116292380D02*
X101973095Y-116863809D01*
%TO.C,D5*%
X97686904Y-124912380D02*
X97686904Y-123912380D01*
X97925000Y-123912380D01*
X98067857Y-123960000D01*
X98163095Y-124055238D01*
X98210714Y-124150476D01*
X98258333Y-124340952D01*
X98258333Y-124483809D01*
X98210714Y-124674285D01*
X98163095Y-124769523D01*
X98067857Y-124864761D01*
X97925000Y-124912380D01*
X97686904Y-124912380D01*
X99163095Y-123912380D02*
X98686904Y-123912380D01*
X98639285Y-124388571D01*
X98686904Y-124340952D01*
X98782142Y-124293333D01*
X99020238Y-124293333D01*
X99115476Y-124340952D01*
X99163095Y-124388571D01*
X99210714Y-124483809D01*
X99210714Y-124721904D01*
X99163095Y-124817142D01*
X99115476Y-124864761D01*
X99020238Y-124912380D01*
X98782142Y-124912380D01*
X98686904Y-124864761D01*
X98639285Y-124817142D01*
X94353095Y-122372380D02*
X94353095Y-121372380D01*
X94924523Y-122372380D02*
X94495952Y-121800952D01*
X94924523Y-121372380D02*
X94353095Y-121943809D01*
%TO.C,D4*%
X109116904Y-89352380D02*
X109116904Y-88352380D01*
X109355000Y-88352380D01*
X109497857Y-88400000D01*
X109593095Y-88495238D01*
X109640714Y-88590476D01*
X109688333Y-88780952D01*
X109688333Y-88923809D01*
X109640714Y-89114285D01*
X109593095Y-89209523D01*
X109497857Y-89304761D01*
X109355000Y-89352380D01*
X109116904Y-89352380D01*
X110545476Y-88685714D02*
X110545476Y-89352380D01*
X110307380Y-88304761D02*
X110069285Y-89019047D01*
X110688333Y-89019047D01*
%TO.C,D3*%
X101496904Y-89352380D02*
X101496904Y-88352380D01*
X101735000Y-88352380D01*
X101877857Y-88400000D01*
X101973095Y-88495238D01*
X102020714Y-88590476D01*
X102068333Y-88780952D01*
X102068333Y-88923809D01*
X102020714Y-89114285D01*
X101973095Y-89209523D01*
X101877857Y-89304761D01*
X101735000Y-89352380D01*
X101496904Y-89352380D01*
X102401666Y-88352380D02*
X103020714Y-88352380D01*
X102687380Y-88733333D01*
X102830238Y-88733333D01*
X102925476Y-88780952D01*
X102973095Y-88828571D01*
X103020714Y-88923809D01*
X103020714Y-89161904D01*
X102973095Y-89257142D01*
X102925476Y-89304761D01*
X102830238Y-89352380D01*
X102544523Y-89352380D01*
X102449285Y-89304761D01*
X102401666Y-89257142D01*
%TO.C,D2*%
X93876904Y-89352380D02*
X93876904Y-88352380D01*
X94115000Y-88352380D01*
X94257857Y-88400000D01*
X94353095Y-88495238D01*
X94400714Y-88590476D01*
X94448333Y-88780952D01*
X94448333Y-88923809D01*
X94400714Y-89114285D01*
X94353095Y-89209523D01*
X94257857Y-89304761D01*
X94115000Y-89352380D01*
X93876904Y-89352380D01*
X94829285Y-88447619D02*
X94876904Y-88400000D01*
X94972142Y-88352380D01*
X95210238Y-88352380D01*
X95305476Y-88400000D01*
X95353095Y-88447619D01*
X95400714Y-88542857D01*
X95400714Y-88638095D01*
X95353095Y-88780952D01*
X94781666Y-89352380D01*
X95400714Y-89352380D01*
%TO.C,A1*%
X94535714Y-94146666D02*
X95011904Y-94146666D01*
X94440476Y-94432380D02*
X94773809Y-93432380D01*
X95107142Y-94432380D01*
X95964285Y-94432380D02*
X95392857Y-94432380D01*
X95678571Y-94432380D02*
X95678571Y-93432380D01*
X95583333Y-93575238D01*
X95488095Y-93670476D01*
X95392857Y-93718095D01*
X94861904Y-108751666D02*
X95338095Y-108751666D01*
X94766666Y-109037380D02*
X95100000Y-108037380D01*
X95433333Y-109037380D01*
X95766666Y-109037380D02*
X95766666Y-108370714D01*
X95766666Y-108561190D02*
X95814285Y-108465952D01*
X95861904Y-108418333D01*
X95957142Y-108370714D01*
X96052380Y-108370714D01*
X96814285Y-109037380D02*
X96814285Y-108037380D01*
X96814285Y-108989761D02*
X96719047Y-109037380D01*
X96528571Y-109037380D01*
X96433333Y-108989761D01*
X96385714Y-108942142D01*
X96338095Y-108846904D01*
X96338095Y-108561190D01*
X96385714Y-108465952D01*
X96433333Y-108418333D01*
X96528571Y-108370714D01*
X96719047Y-108370714D01*
X96814285Y-108418333D01*
X97719047Y-108370714D02*
X97719047Y-109037380D01*
X97290476Y-108370714D02*
X97290476Y-108894523D01*
X97338095Y-108989761D01*
X97433333Y-109037380D01*
X97576190Y-109037380D01*
X97671428Y-108989761D01*
X97719047Y-108942142D01*
X98195238Y-109037380D02*
X98195238Y-108370714D01*
X98195238Y-108037380D02*
X98147619Y-108085000D01*
X98195238Y-108132619D01*
X98242857Y-108085000D01*
X98195238Y-108037380D01*
X98195238Y-108132619D01*
X98671428Y-108370714D02*
X98671428Y-109037380D01*
X98671428Y-108465952D02*
X98719047Y-108418333D01*
X98814285Y-108370714D01*
X98957142Y-108370714D01*
X99052380Y-108418333D01*
X99100000Y-108513571D01*
X99100000Y-109037380D01*
X99719047Y-109037380D02*
X99623809Y-108989761D01*
X99576190Y-108942142D01*
X99528571Y-108846904D01*
X99528571Y-108561190D01*
X99576190Y-108465952D01*
X99623809Y-108418333D01*
X99719047Y-108370714D01*
X99861904Y-108370714D01*
X99957142Y-108418333D01*
X100004761Y-108465952D01*
X100052380Y-108561190D01*
X100052380Y-108846904D01*
X100004761Y-108942142D01*
X99957142Y-108989761D01*
X99861904Y-109037380D01*
X99719047Y-109037380D01*
X100242857Y-109132619D02*
X101004761Y-109132619D01*
X101242857Y-109037380D02*
X101242857Y-108037380D01*
X101814285Y-109037380D01*
X101814285Y-108037380D01*
X102719047Y-109037380D02*
X102719047Y-108513571D01*
X102671428Y-108418333D01*
X102576190Y-108370714D01*
X102385714Y-108370714D01*
X102290476Y-108418333D01*
X102719047Y-108989761D02*
X102623809Y-109037380D01*
X102385714Y-109037380D01*
X102290476Y-108989761D01*
X102242857Y-108894523D01*
X102242857Y-108799285D01*
X102290476Y-108704047D01*
X102385714Y-108656428D01*
X102623809Y-108656428D01*
X102719047Y-108608809D01*
X103195238Y-108370714D02*
X103195238Y-109037380D01*
X103195238Y-108465952D02*
X103242857Y-108418333D01*
X103338095Y-108370714D01*
X103480952Y-108370714D01*
X103576190Y-108418333D01*
X103623809Y-108513571D01*
X103623809Y-109037380D01*
X104242857Y-109037380D02*
X104147619Y-108989761D01*
X104100000Y-108942142D01*
X104052380Y-108846904D01*
X104052380Y-108561190D01*
X104100000Y-108465952D01*
X104147619Y-108418333D01*
X104242857Y-108370714D01*
X104385714Y-108370714D01*
X104480952Y-108418333D01*
X104528571Y-108465952D01*
X104576190Y-108561190D01*
X104576190Y-108846904D01*
X104528571Y-108942142D01*
X104480952Y-108989761D01*
X104385714Y-109037380D01*
X104242857Y-109037380D01*
X104766666Y-109132619D02*
X105528571Y-109132619D01*
X105671428Y-108370714D02*
X105909523Y-109037380D01*
X106147619Y-108370714D01*
X106480952Y-108132619D02*
X106528571Y-108085000D01*
X106623809Y-108037380D01*
X106861904Y-108037380D01*
X106957142Y-108085000D01*
X107004761Y-108132619D01*
X107052380Y-108227857D01*
X107052380Y-108323095D01*
X107004761Y-108465952D01*
X106433333Y-109037380D01*
X107052380Y-109037380D01*
X107480952Y-108942142D02*
X107528571Y-108989761D01*
X107480952Y-109037380D01*
X107433333Y-108989761D01*
X107480952Y-108942142D01*
X107480952Y-109037380D01*
X107861904Y-109037380D02*
X108385714Y-108370714D01*
X107861904Y-108370714D02*
X108385714Y-109037380D01*
%TD*%
M02*
