%TF.GenerationSoftware,KiCad,Pcbnew,(5.1.9)-1*%
%TF.CreationDate,2021-09-21T00:59:16-04:00*%
%TF.ProjectId,Servo-Simple-Tester-ver-0.1,53657276-6f2d-4536-996d-706c652d5465,rev?*%
%TF.SameCoordinates,Original*%
%TF.FileFunction,Copper,L1,Top*%
%TF.FilePolarity,Positive*%
%FSLAX46Y46*%
G04 Gerber Fmt 4.6, Leading zero omitted, Abs format (unit mm)*
G04 Created by KiCad (PCBNEW (5.1.9)-1) date 2021-09-21 00:59:16*
%MOMM*%
%LPD*%
G01*
G04 APERTURE LIST*
%TA.AperFunction,ComponentPad*%
%ADD10R,1.700000X1.700000*%
%TD*%
%TA.AperFunction,ComponentPad*%
%ADD11O,1.700000X1.700000*%
%TD*%
%TA.AperFunction,ComponentPad*%
%ADD12C,1.800000*%
%TD*%
%TA.AperFunction,ComponentPad*%
%ADD13R,1.800000X1.800000*%
%TD*%
%TA.AperFunction,ComponentPad*%
%ADD14C,2.000000*%
%TD*%
%TA.AperFunction,ComponentPad*%
%ADD15O,2.720000X3.240000*%
%TD*%
%TA.AperFunction,ComponentPad*%
%ADD16O,1.400000X1.400000*%
%TD*%
%TA.AperFunction,ComponentPad*%
%ADD17C,1.400000*%
%TD*%
%TA.AperFunction,ComponentPad*%
%ADD18C,2.600000*%
%TD*%
%TA.AperFunction,ComponentPad*%
%ADD19R,2.600000X2.600000*%
%TD*%
%TA.AperFunction,ComponentPad*%
%ADD20O,1.800000X1.800000*%
%TD*%
%TA.AperFunction,ComponentPad*%
%ADD21O,1.600000X1.600000*%
%TD*%
%TA.AperFunction,ComponentPad*%
%ADD22R,1.600000X1.600000*%
%TD*%
%TA.AperFunction,ViaPad*%
%ADD23C,0.800000*%
%TD*%
%TA.AperFunction,ViaPad*%
%ADD24C,1.200000*%
%TD*%
%TA.AperFunction,Conductor*%
%ADD25C,1.000000*%
%TD*%
%TA.AperFunction,Conductor*%
%ADD26C,0.250000*%
%TD*%
%TA.AperFunction,Conductor*%
%ADD27C,0.500000*%
%TD*%
%TA.AperFunction,Conductor*%
%ADD28C,0.254000*%
%TD*%
%TA.AperFunction,Conductor*%
%ADD29C,0.100000*%
%TD*%
G04 APERTURE END LIST*
D10*
%TO.P,J5,1*%
%TO.N,D8*%
X144780000Y-90170000D03*
D11*
%TO.P,J5,5*%
%TO.N,D12*%
X154940000Y-90170000D03*
%TO.P,J5,2*%
%TO.N,D9*%
X147320000Y-90170000D03*
%TO.P,J5,3*%
%TO.N,D10*%
X149860000Y-90170000D03*
%TO.P,J5,6*%
%TO.N,D13*%
X157480000Y-90170000D03*
%TO.P,J5,4*%
%TO.N,D11*%
X152400000Y-90170000D03*
%TD*%
D10*
%TO.P,J4,1*%
%TO.N,VIN*%
X144780000Y-92710000D03*
D11*
%TO.P,J4,5*%
X154940000Y-92710000D03*
%TO.P,J4,2*%
X147320000Y-92710000D03*
%TO.P,J4,3*%
X149860000Y-92710000D03*
%TO.P,J4,6*%
X157480000Y-92710000D03*
%TO.P,J4,4*%
X152400000Y-92710000D03*
%TD*%
D10*
%TO.P,J3,1*%
%TO.N,GND*%
X144780000Y-95250000D03*
D11*
%TO.P,J3,5*%
X154940000Y-95250000D03*
%TO.P,J3,2*%
X147320000Y-95250000D03*
%TO.P,J3,3*%
X149860000Y-95250000D03*
%TO.P,J3,6*%
X157480000Y-95250000D03*
%TO.P,J3,4*%
X152400000Y-95250000D03*
%TD*%
D12*
%TO.P,D1,2*%
%TO.N,Net-(D1-Pad2)*%
X87630000Y-88900000D03*
D13*
%TO.P,D1,1*%
%TO.N,GND*%
X90170000Y-88900000D03*
%TD*%
D11*
%TO.P,J2,2*%
%TO.N,VIN*%
X111760000Y-124460000D03*
D10*
%TO.P,J2,1*%
%TO.N,GND*%
X109220000Y-124460000D03*
%TD*%
D11*
%TO.P,J1,2*%
%TO.N,+5V*%
X121285000Y-124460000D03*
D10*
%TO.P,J1,1*%
%TO.N,GND*%
X118745000Y-124460000D03*
%TD*%
D14*
%TO.P,SW3,1*%
%TO.N,D7*%
X154940000Y-120650000D03*
%TO.P,SW3,2*%
%TO.N,GND*%
X154940000Y-125150000D03*
%TO.P,SW3,1*%
%TO.N,D7*%
X148440000Y-120650000D03*
%TO.P,SW3,2*%
%TO.N,GND*%
X148440000Y-125150000D03*
%TD*%
%TO.P,SW2,1*%
%TO.N,D6*%
X140335000Y-120650000D03*
%TO.P,SW2,2*%
%TO.N,GND*%
X140335000Y-125150000D03*
%TO.P,SW2,1*%
%TO.N,D6*%
X133835000Y-120650000D03*
%TO.P,SW2,2*%
%TO.N,GND*%
X133835000Y-125150000D03*
%TD*%
%TO.P,SW1,1*%
%TO.N,D5*%
X170180000Y-120650000D03*
%TO.P,SW1,2*%
%TO.N,GND*%
X170180000Y-125150000D03*
%TO.P,SW1,1*%
%TO.N,D5*%
X163680000Y-120650000D03*
%TO.P,SW1,2*%
%TO.N,GND*%
X163680000Y-125150000D03*
%TD*%
D12*
%TO.P,RV3,4*%
%TO.N,N/C*%
X164200000Y-116205000D03*
%TO.P,RV3,5*%
X166700000Y-116205000D03*
%TO.P,RV3,6*%
X169200000Y-116205000D03*
D15*
%TO.P,RV3,*%
%TO.N,*%
X161950000Y-106205000D03*
X171450000Y-106205000D03*
D12*
%TO.P,RV3,3*%
%TO.N,GND*%
X169200000Y-113705000D03*
%TO.P,RV3,2*%
%TO.N,A7*%
X166700000Y-113705000D03*
D13*
%TO.P,RV3,1*%
%TO.N,+5V*%
X164200000Y-113705000D03*
%TD*%
D12*
%TO.P,RV2,4*%
%TO.N,N/C*%
X148960000Y-116205000D03*
%TO.P,RV2,5*%
X151460000Y-116205000D03*
%TO.P,RV2,6*%
X153960000Y-116205000D03*
D15*
%TO.P,RV2,*%
%TO.N,*%
X146710000Y-106205000D03*
X156210000Y-106205000D03*
D12*
%TO.P,RV2,3*%
%TO.N,GND*%
X153960000Y-113705000D03*
%TO.P,RV2,2*%
%TO.N,A6*%
X151460000Y-113705000D03*
D13*
%TO.P,RV2,1*%
%TO.N,+5V*%
X148960000Y-113705000D03*
%TD*%
D12*
%TO.P,RV1,4*%
%TO.N,N/C*%
X133720000Y-116205000D03*
%TO.P,RV1,5*%
X136220000Y-116205000D03*
%TO.P,RV1,6*%
X138720000Y-116205000D03*
D15*
%TO.P,RV1,*%
%TO.N,*%
X131470000Y-106205000D03*
X140970000Y-106205000D03*
D12*
%TO.P,RV1,3*%
%TO.N,GND*%
X138720000Y-113705000D03*
%TO.P,RV1,2*%
%TO.N,A5*%
X136220000Y-113705000D03*
D13*
%TO.P,RV1,1*%
%TO.N,+5V*%
X133720000Y-113705000D03*
%TD*%
D16*
%TO.P,R2,2*%
%TO.N,GND*%
X128270000Y-86995000D03*
D17*
%TO.P,R2,1*%
%TO.N,Net-(D2-Pad1)*%
X120650000Y-86995000D03*
%TD*%
D16*
%TO.P,R1,2*%
%TO.N,Net-(D1-Pad2)*%
X120650000Y-90805000D03*
D17*
%TO.P,R1,1*%
%TO.N,+5V*%
X128270000Y-90805000D03*
%TD*%
D18*
%TO.P,J6,2*%
%TO.N,Net-(D6-Pad2)*%
X88265000Y-123825000D03*
D19*
%TO.P,J6,1*%
%TO.N,Net-(D5-Pad1)*%
X88265000Y-120325000D03*
%TD*%
D20*
%TO.P,D6,2*%
%TO.N,Net-(D6-Pad2)*%
X94615000Y-119380000D03*
D13*
%TO.P,D6,1*%
%TO.N,VIN*%
X102235000Y-119380000D03*
%TD*%
D20*
%TO.P,D5,2*%
%TO.N,GND*%
X102235000Y-124460000D03*
D13*
%TO.P,D5,1*%
%TO.N,Net-(D5-Pad1)*%
X94615000Y-124460000D03*
%TD*%
D12*
%TO.P,D4,2*%
%TO.N,D4*%
X112395000Y-88900000D03*
D13*
%TO.P,D4,1*%
%TO.N,Net-(D2-Pad1)*%
X114935000Y-88900000D03*
%TD*%
D12*
%TO.P,D3,2*%
%TO.N,D3*%
X104775000Y-88900000D03*
D13*
%TO.P,D3,1*%
%TO.N,Net-(D2-Pad1)*%
X107315000Y-88900000D03*
%TD*%
D12*
%TO.P,D2,2*%
%TO.N,D2*%
X97155000Y-88900000D03*
D13*
%TO.P,D2,1*%
%TO.N,Net-(D2-Pad1)*%
X99695000Y-88900000D03*
%TD*%
D21*
%TO.P,A1,16*%
%TO.N,D13*%
X88265000Y-112395000D03*
%TO.P,A1,15*%
%TO.N,D12*%
X88265000Y-97155000D03*
%TO.P,A1,30*%
%TO.N,VIN*%
X123825000Y-112395000D03*
%TO.P,A1,14*%
%TO.N,D11*%
X90805000Y-97155000D03*
%TO.P,A1,29*%
%TO.N,GND*%
X121285000Y-112395000D03*
%TO.P,A1,13*%
%TO.N,D10*%
X93345000Y-97155000D03*
%TO.P,A1,28*%
%TO.N,RESET*%
X118745000Y-112395000D03*
%TO.P,A1,12*%
%TO.N,D9*%
X95885000Y-97155000D03*
%TO.P,A1,27*%
%TO.N,+5V*%
X116205000Y-112395000D03*
%TO.P,A1,11*%
%TO.N,D8*%
X98425000Y-97155000D03*
%TO.P,A1,26*%
%TO.N,A7*%
X113665000Y-112395000D03*
%TO.P,A1,10*%
%TO.N,D7*%
X100965000Y-97155000D03*
%TO.P,A1,25*%
%TO.N,A6*%
X111125000Y-112395000D03*
%TO.P,A1,9*%
%TO.N,D6*%
X103505000Y-97155000D03*
%TO.P,A1,24*%
%TO.N,A5*%
X108585000Y-112395000D03*
%TO.P,A1,8*%
%TO.N,D5*%
X106045000Y-97155000D03*
%TO.P,A1,23*%
%TO.N,A4*%
X106045000Y-112395000D03*
%TO.P,A1,7*%
%TO.N,D4*%
X108585000Y-97155000D03*
%TO.P,A1,22*%
%TO.N,A3*%
X103505000Y-112395000D03*
%TO.P,A1,6*%
%TO.N,D3*%
X111125000Y-97155000D03*
%TO.P,A1,21*%
%TO.N,A2*%
X100965000Y-112395000D03*
%TO.P,A1,5*%
%TO.N,D2*%
X113665000Y-97155000D03*
%TO.P,A1,20*%
%TO.N,A1*%
X98425000Y-112395000D03*
%TO.P,A1,4*%
%TO.N,GND*%
X116205000Y-97155000D03*
%TO.P,A1,19*%
%TO.N,A0*%
X95885000Y-112395000D03*
%TO.P,A1,3*%
%TO.N,RESET*%
X118745000Y-97155000D03*
%TO.P,A1,18*%
%TO.N,REF*%
X93345000Y-112395000D03*
%TO.P,A1,2*%
%TO.N,RX*%
X121285000Y-97155000D03*
%TO.P,A1,17*%
%TO.N,3.3V*%
X90805000Y-112395000D03*
D22*
%TO.P,A1,1*%
%TO.N,TX*%
X123825000Y-97155000D03*
%TD*%
D23*
%TO.N,GND*%
X116205000Y-102870000D03*
X104775000Y-110490000D03*
D24*
X127635000Y-113665000D03*
X142240000Y-95250000D03*
D23*
%TO.N,D3*%
X110490000Y-90805000D03*
%TO.N,RESET*%
X118745000Y-102870000D03*
%TO.N,D5*%
X159385000Y-99695000D03*
%TO.N,D6*%
X159385000Y-98425000D03*
X167005000Y-98425000D03*
%TO.N,D7*%
X159385000Y-97155000D03*
%TO.N,D8*%
X135255000Y-89535000D03*
%TO.N,D10*%
X139065000Y-89535000D03*
%TO.N,D12*%
X165100000Y-95885000D03*
%TO.N,+5V*%
X143510000Y-118110000D03*
X131445000Y-90805000D03*
X122555000Y-118110000D03*
X127635000Y-118110000D03*
X140335000Y-95885000D03*
%TO.N,A7*%
X117475000Y-107950000D03*
%TO.N,A6*%
X113665000Y-109220000D03*
%TO.N,D13*%
X111760000Y-104140000D03*
%TD*%
D25*
%TO.N,GND*%
X102235000Y-124460000D02*
X109220000Y-124460000D01*
X157480000Y-95250000D02*
X154940000Y-95250000D01*
X154940000Y-95250000D02*
X152400000Y-95250000D01*
X152400000Y-95250000D02*
X149860000Y-95250000D01*
X149860000Y-95250000D02*
X147320000Y-95250000D01*
X147320000Y-95250000D02*
X144780000Y-95250000D01*
X118745000Y-121920000D02*
X118745000Y-123190000D01*
X118745000Y-123190000D02*
X118745000Y-124460000D01*
X170180000Y-125150000D02*
X163680000Y-125150000D01*
X163680000Y-125150000D02*
X154940000Y-125150000D01*
X154940000Y-125150000D02*
X148440000Y-125150000D01*
X140335000Y-125150000D02*
X133835000Y-125150000D01*
D26*
X144145000Y-125095000D02*
X144090000Y-125150000D01*
D25*
X144090000Y-125150000D02*
X140335000Y-125150000D01*
X148440000Y-125150000D02*
X144090000Y-125150000D01*
X118745000Y-121920000D02*
X120015000Y-121920000D01*
X131445000Y-125095000D02*
X133835000Y-125150000D01*
X128905000Y-121920000D02*
X131445000Y-125095000D01*
X120015000Y-121920000D02*
X128905000Y-121920000D01*
D26*
X116205000Y-102870000D02*
X116205000Y-102870000D01*
D27*
X116205000Y-97155000D02*
X116205000Y-102870000D01*
X82550000Y-114300000D02*
X82550000Y-110490000D01*
X84455000Y-116205000D02*
X82550000Y-114300000D01*
X111760000Y-116205000D02*
X84455000Y-116205000D01*
X114300000Y-119380000D02*
X111760000Y-116205000D01*
X114300000Y-121920000D02*
X114300000Y-119380000D01*
D25*
X109220000Y-123190000D02*
X109220000Y-124460000D01*
X114935000Y-121920000D02*
X118745000Y-121920000D01*
X110490000Y-121920000D02*
X114935000Y-121920000D01*
X109220000Y-123190000D02*
X110490000Y-121920000D01*
D27*
X88900000Y-95250000D02*
X90170000Y-93980000D01*
X83820000Y-95250000D02*
X88900000Y-95250000D01*
X82550000Y-96520000D02*
X83820000Y-95250000D01*
X82550000Y-110490000D02*
X82550000Y-96520000D01*
X90170000Y-93980000D02*
X90170000Y-88900000D01*
D25*
X121285000Y-112395000D02*
X121285000Y-114935000D01*
D26*
X170235000Y-125095000D02*
X170180000Y-125150000D01*
D25*
X118745000Y-118745000D02*
X118745000Y-121920000D01*
X118745000Y-116840000D02*
X118745000Y-118745000D01*
X121285000Y-114935000D02*
X118745000Y-116840000D01*
D27*
X104775000Y-110490000D02*
X82550000Y-110490000D01*
D25*
X142240000Y-95250000D02*
X142240000Y-95250000D01*
X126365000Y-114935000D02*
X121285000Y-114935000D01*
X127635000Y-113665000D02*
X126365000Y-114935000D01*
X142240000Y-95250000D02*
X144780000Y-95250000D01*
D27*
X130175000Y-86995000D02*
X128270000Y-86995000D01*
X140335000Y-93345000D02*
X136525000Y-93345000D01*
X136525000Y-93345000D02*
X130175000Y-86995000D01*
X142240000Y-95250000D02*
X140335000Y-93345000D01*
%TO.N,Net-(D2-Pad1)*%
X119380000Y-86995000D02*
X120650000Y-86995000D01*
X117475000Y-88900000D02*
X119380000Y-86995000D01*
X114935000Y-88900000D02*
X117475000Y-88900000D01*
X107315000Y-85725000D02*
X107315000Y-88900000D01*
X99695000Y-86360000D02*
X99695000Y-88900000D01*
X100330000Y-85725000D02*
X99695000Y-86360000D01*
X114300000Y-85725000D02*
X100330000Y-85725000D01*
X114935000Y-86360000D02*
X114300000Y-85725000D01*
X114935000Y-88900000D02*
X114935000Y-86360000D01*
%TO.N,D3*%
X105410000Y-90805000D02*
X104775000Y-90170000D01*
X110490000Y-90805000D02*
X105410000Y-90805000D01*
X104775000Y-90170000D02*
X104775000Y-88900000D01*
D25*
%TO.N,Net-(D5-Pad1)*%
X90480000Y-120325000D02*
X94615000Y-124460000D01*
X88265000Y-120325000D02*
X90480000Y-120325000D01*
D27*
%TO.N,RESET*%
X118745000Y-97155000D02*
X118745000Y-102870000D01*
X118745000Y-102870000D02*
X118745000Y-102870000D01*
%TO.N,D5*%
X159385000Y-99695000D02*
X159385000Y-99695000D01*
X106045000Y-95250000D02*
X106045000Y-97155000D01*
X106680000Y-94615000D02*
X106045000Y-95250000D01*
X128270000Y-94615000D02*
X106680000Y-94615000D01*
X133350000Y-99695000D02*
X128270000Y-94615000D01*
X159385000Y-99695000D02*
X133350000Y-99695000D01*
%TO.N,D6*%
X140335000Y-120650000D02*
X133835000Y-120650000D01*
X167005000Y-98425000D02*
X167005000Y-98425000D01*
X159385000Y-98425000D02*
X133985000Y-98425000D01*
X133985000Y-98425000D02*
X128905000Y-93345000D01*
X128905000Y-93345000D02*
X104775000Y-93345000D01*
X104775000Y-93345000D02*
X103505000Y-94615000D01*
X103505000Y-94615000D02*
X103505000Y-97155000D01*
X141605000Y-120650000D02*
X140335000Y-120650000D01*
X144018000Y-122809000D02*
X141605000Y-120650000D01*
X172085000Y-121926990D02*
X171199495Y-122812495D01*
X172085000Y-118745000D02*
X172085000Y-121926990D01*
X170815000Y-117475000D02*
X172085000Y-118745000D01*
X170815000Y-111760000D02*
X170815000Y-117475000D01*
X167640000Y-99060000D02*
X167640000Y-108585000D01*
X167640000Y-108585000D02*
X170815000Y-111760000D01*
X171199495Y-122812495D02*
X144018000Y-122809000D01*
X167005000Y-98425000D02*
X167640000Y-99060000D01*
%TO.N,D7*%
X159385000Y-97155000D02*
X135255000Y-97155000D01*
X116205000Y-92075000D02*
X102235000Y-92075000D01*
X135255000Y-97155000D02*
X130175000Y-92075000D01*
X102235000Y-92075000D02*
X100965000Y-93345000D01*
X130175000Y-92075000D02*
X130175000Y-89535000D01*
X130175000Y-89535000D02*
X129540000Y-88900000D01*
X119380000Y-88900000D02*
X116205000Y-92075000D01*
X100965000Y-93345000D02*
X100965000Y-97155000D01*
X129540000Y-88900000D02*
X119380000Y-88900000D01*
%TO.N,D8*%
X142240000Y-90805000D02*
X142875000Y-90170000D01*
X136525000Y-90805000D02*
X142240000Y-90805000D01*
X142875000Y-90170000D02*
X144780000Y-90170000D01*
X135255000Y-89535000D02*
X136525000Y-90805000D01*
%TO.N,D10*%
X139065000Y-89535000D02*
X139065000Y-89535000D01*
X149860000Y-88900000D02*
X149860000Y-90805000D01*
X149225000Y-88265000D02*
X149860000Y-88900000D01*
X140335000Y-88265000D02*
X149225000Y-88265000D01*
X139065000Y-89535000D02*
X140335000Y-88265000D01*
%TO.N,D11*%
X124460000Y-105410000D02*
X97790000Y-105410000D01*
X127635000Y-102235000D02*
X124460000Y-105410000D01*
X163830000Y-101600000D02*
X163195000Y-102235000D01*
X163195000Y-102235000D02*
X127635000Y-102235000D01*
X163195000Y-88265000D02*
X163830000Y-88900000D01*
X90805000Y-98425000D02*
X90805000Y-97155000D01*
X153035000Y-88265000D02*
X163195000Y-88265000D01*
X97790000Y-105410000D02*
X90805000Y-98425000D01*
X152400000Y-88900000D02*
X153035000Y-88265000D01*
X163830000Y-88900000D02*
X163830000Y-101600000D01*
X152400000Y-90805000D02*
X152400000Y-88900000D01*
%TO.N,D12*%
X165100000Y-95885000D02*
X165100000Y-95885000D01*
X125095000Y-106680000D02*
X96520000Y-106680000D01*
X163830000Y-103505000D02*
X128270000Y-103505000D01*
X96520000Y-106680000D02*
X88265000Y-98425000D01*
X165100000Y-102235000D02*
X163830000Y-103505000D01*
X128270000Y-103505000D02*
X125095000Y-106680000D01*
X165100000Y-95885000D02*
X165100000Y-102235000D01*
X88265000Y-98425000D02*
X88265000Y-97155000D01*
%TO.N,+5V*%
X127635000Y-118110000D02*
X127635000Y-118110000D01*
X162520000Y-113705000D02*
X164200000Y-113705000D01*
X161925000Y-114300000D02*
X162520000Y-113705000D01*
X161925000Y-117475000D02*
X161925000Y-114300000D01*
X143510000Y-118110000D02*
X161290000Y-118110000D01*
X161290000Y-118110000D02*
X161925000Y-117475000D01*
X131445000Y-90805000D02*
X131445000Y-90805000D01*
X122555000Y-118110000D02*
X127635000Y-118110000D01*
X136525000Y-95885000D02*
X131445000Y-90805000D01*
X140335000Y-95885000D02*
X136525000Y-95885000D01*
%TO.N,A7*%
X166700000Y-111760000D02*
X166700000Y-113705000D01*
X165100000Y-110490000D02*
X166700000Y-111760000D01*
X138430000Y-110490000D02*
X165100000Y-110490000D01*
X137160000Y-109220000D02*
X138430000Y-110490000D01*
X128270000Y-109220000D02*
X137160000Y-109220000D01*
X127000000Y-107950000D02*
X128270000Y-109220000D01*
X117475000Y-107950000D02*
X127000000Y-107950000D01*
%TO.N,A6*%
X137160000Y-111760000D02*
X151130000Y-111760000D01*
X135890000Y-110490000D02*
X137160000Y-111760000D01*
X127000000Y-110490000D02*
X135890000Y-110490000D01*
X125730000Y-109220000D02*
X127000000Y-110490000D01*
X113665000Y-109220000D02*
X125730000Y-109220000D01*
X151460000Y-112090000D02*
X151130000Y-111760000D01*
X151460000Y-113705000D02*
X151460000Y-112090000D01*
%TO.N,A5*%
X136220000Y-112725000D02*
X136220000Y-113705000D01*
X135255000Y-111760000D02*
X136220000Y-112725000D01*
X126365000Y-111760000D02*
X135255000Y-111760000D01*
X125095000Y-110490000D02*
X126365000Y-111760000D01*
X109220000Y-110490000D02*
X125095000Y-110490000D01*
X108585000Y-111125000D02*
X109220000Y-110490000D01*
X108585000Y-112395000D02*
X108585000Y-111125000D01*
%TO.N,D13*%
X111760000Y-104140000D02*
X111760000Y-104140000D01*
X160020000Y-90170000D02*
X157480000Y-90170000D01*
X160655000Y-90805000D02*
X160020000Y-90170000D01*
X160655000Y-100330000D02*
X160655000Y-90805000D01*
X160147000Y-100965000D02*
X160655000Y-100330000D01*
X127000000Y-100965000D02*
X160147000Y-100965000D01*
X123825000Y-104140000D02*
X127000000Y-100965000D01*
X111760000Y-104140000D02*
X123825000Y-104140000D01*
%TD*%
D28*
%TO.N,GND*%
X173203001Y-104992532D02*
X173116807Y-104831275D01*
X172867503Y-104527497D01*
X172563725Y-104278193D01*
X172217147Y-104092943D01*
X171841088Y-103978867D01*
X171450000Y-103940348D01*
X171058913Y-103978867D01*
X170682854Y-104092943D01*
X170336276Y-104278193D01*
X170032498Y-104527497D01*
X169783193Y-104831275D01*
X169597943Y-105177853D01*
X169483867Y-105553912D01*
X169455000Y-105847002D01*
X169455000Y-106562997D01*
X169483867Y-106856087D01*
X169597943Y-107232146D01*
X169783193Y-107578725D01*
X170032497Y-107882503D01*
X170336275Y-108131807D01*
X170682853Y-108317057D01*
X171058912Y-108431133D01*
X171450000Y-108469652D01*
X171841087Y-108431133D01*
X172217146Y-108317057D01*
X172563725Y-108131807D01*
X172867503Y-107882503D01*
X173116807Y-107578725D01*
X173203000Y-107417469D01*
X173203000Y-129388000D01*
X80797000Y-129388000D01*
X80797000Y-126285413D01*
X132879192Y-126285413D01*
X132974956Y-126549814D01*
X133264571Y-126690704D01*
X133576108Y-126772384D01*
X133897595Y-126791718D01*
X134216675Y-126747961D01*
X134521088Y-126642795D01*
X134695044Y-126549814D01*
X134790808Y-126285413D01*
X139379192Y-126285413D01*
X139474956Y-126549814D01*
X139764571Y-126690704D01*
X140076108Y-126772384D01*
X140397595Y-126791718D01*
X140716675Y-126747961D01*
X141021088Y-126642795D01*
X141195044Y-126549814D01*
X141290808Y-126285413D01*
X147484192Y-126285413D01*
X147579956Y-126549814D01*
X147869571Y-126690704D01*
X148181108Y-126772384D01*
X148502595Y-126791718D01*
X148821675Y-126747961D01*
X149126088Y-126642795D01*
X149300044Y-126549814D01*
X149395808Y-126285413D01*
X153984192Y-126285413D01*
X154079956Y-126549814D01*
X154369571Y-126690704D01*
X154681108Y-126772384D01*
X155002595Y-126791718D01*
X155321675Y-126747961D01*
X155626088Y-126642795D01*
X155800044Y-126549814D01*
X155895808Y-126285413D01*
X162724192Y-126285413D01*
X162819956Y-126549814D01*
X163109571Y-126690704D01*
X163421108Y-126772384D01*
X163742595Y-126791718D01*
X164061675Y-126747961D01*
X164366088Y-126642795D01*
X164540044Y-126549814D01*
X164635808Y-126285413D01*
X169224192Y-126285413D01*
X169319956Y-126549814D01*
X169609571Y-126690704D01*
X169921108Y-126772384D01*
X170242595Y-126791718D01*
X170561675Y-126747961D01*
X170866088Y-126642795D01*
X171040044Y-126549814D01*
X171135808Y-126285413D01*
X170180000Y-125329605D01*
X169224192Y-126285413D01*
X164635808Y-126285413D01*
X163680000Y-125329605D01*
X162724192Y-126285413D01*
X155895808Y-126285413D01*
X154940000Y-125329605D01*
X153984192Y-126285413D01*
X149395808Y-126285413D01*
X148440000Y-125329605D01*
X147484192Y-126285413D01*
X141290808Y-126285413D01*
X140335000Y-125329605D01*
X139379192Y-126285413D01*
X134790808Y-126285413D01*
X133835000Y-125329605D01*
X132879192Y-126285413D01*
X80797000Y-126285413D01*
X80797000Y-119025000D01*
X86326928Y-119025000D01*
X86326928Y-121625000D01*
X86339188Y-121749482D01*
X86375498Y-121869180D01*
X86434463Y-121979494D01*
X86513815Y-122076185D01*
X86610506Y-122155537D01*
X86720820Y-122214502D01*
X86840518Y-122250812D01*
X86965000Y-122263072D01*
X87119682Y-122263072D01*
X87031509Y-122321987D01*
X86761987Y-122591509D01*
X86550225Y-122908434D01*
X86404361Y-123260581D01*
X86330000Y-123634419D01*
X86330000Y-124015581D01*
X86404361Y-124389419D01*
X86550225Y-124741566D01*
X86761987Y-125058491D01*
X87031509Y-125328013D01*
X87348434Y-125539775D01*
X87700581Y-125685639D01*
X88074419Y-125760000D01*
X88455581Y-125760000D01*
X88829419Y-125685639D01*
X89181566Y-125539775D01*
X89498491Y-125328013D01*
X89768013Y-125058491D01*
X89979775Y-124741566D01*
X90125639Y-124389419D01*
X90200000Y-124015581D01*
X90200000Y-123634419D01*
X90125639Y-123260581D01*
X89979775Y-122908434D01*
X89768013Y-122591509D01*
X89498491Y-122321987D01*
X89410318Y-122263072D01*
X89565000Y-122263072D01*
X89689482Y-122250812D01*
X89809180Y-122214502D01*
X89919494Y-122155537D01*
X90016185Y-122076185D01*
X90095537Y-121979494D01*
X90154502Y-121869180D01*
X90190812Y-121749482D01*
X90200543Y-121650674D01*
X93076928Y-124527060D01*
X93076928Y-125360000D01*
X93089188Y-125484482D01*
X93125498Y-125604180D01*
X93184463Y-125714494D01*
X93263815Y-125811185D01*
X93360506Y-125890537D01*
X93470820Y-125949502D01*
X93590518Y-125985812D01*
X93715000Y-125998072D01*
X95515000Y-125998072D01*
X95639482Y-125985812D01*
X95759180Y-125949502D01*
X95869494Y-125890537D01*
X95966185Y-125811185D01*
X96045537Y-125714494D01*
X96104502Y-125604180D01*
X96140812Y-125484482D01*
X96153072Y-125360000D01*
X96153072Y-124824740D01*
X100743964Y-124824740D01*
X100792606Y-124985107D01*
X100922764Y-125256414D01*
X101103351Y-125497116D01*
X101327427Y-125697962D01*
X101586380Y-125851234D01*
X101870259Y-125951041D01*
X102108000Y-125830992D01*
X102108000Y-124587000D01*
X102362000Y-124587000D01*
X102362000Y-125830992D01*
X102599741Y-125951041D01*
X102883620Y-125851234D01*
X103142573Y-125697962D01*
X103366649Y-125497116D01*
X103507033Y-125310000D01*
X107731928Y-125310000D01*
X107744188Y-125434482D01*
X107780498Y-125554180D01*
X107839463Y-125664494D01*
X107918815Y-125761185D01*
X108015506Y-125840537D01*
X108125820Y-125899502D01*
X108245518Y-125935812D01*
X108370000Y-125948072D01*
X108934250Y-125945000D01*
X109093000Y-125786250D01*
X109093000Y-124587000D01*
X107893750Y-124587000D01*
X107735000Y-124745750D01*
X107731928Y-125310000D01*
X103507033Y-125310000D01*
X103547236Y-125256414D01*
X103677394Y-124985107D01*
X103726036Y-124824740D01*
X103605378Y-124587000D01*
X102362000Y-124587000D01*
X102108000Y-124587000D01*
X100864622Y-124587000D01*
X100743964Y-124824740D01*
X96153072Y-124824740D01*
X96153072Y-124095260D01*
X100743964Y-124095260D01*
X100864622Y-124333000D01*
X102108000Y-124333000D01*
X102108000Y-123089008D01*
X102362000Y-123089008D01*
X102362000Y-124333000D01*
X103605378Y-124333000D01*
X103726036Y-124095260D01*
X103677394Y-123934893D01*
X103547236Y-123663586D01*
X103507034Y-123610000D01*
X107731928Y-123610000D01*
X107735000Y-124174250D01*
X107893750Y-124333000D01*
X109093000Y-124333000D01*
X109093000Y-123133750D01*
X109347000Y-123133750D01*
X109347000Y-124333000D01*
X109367000Y-124333000D01*
X109367000Y-124587000D01*
X109347000Y-124587000D01*
X109347000Y-125786250D01*
X109505750Y-125945000D01*
X110070000Y-125948072D01*
X110194482Y-125935812D01*
X110314180Y-125899502D01*
X110424494Y-125840537D01*
X110521185Y-125761185D01*
X110600537Y-125664494D01*
X110659502Y-125554180D01*
X110681513Y-125481620D01*
X110813368Y-125613475D01*
X111056589Y-125775990D01*
X111326842Y-125887932D01*
X111613740Y-125945000D01*
X111906260Y-125945000D01*
X112193158Y-125887932D01*
X112463411Y-125775990D01*
X112706632Y-125613475D01*
X112913475Y-125406632D01*
X112978042Y-125310000D01*
X117256928Y-125310000D01*
X117269188Y-125434482D01*
X117305498Y-125554180D01*
X117364463Y-125664494D01*
X117443815Y-125761185D01*
X117540506Y-125840537D01*
X117650820Y-125899502D01*
X117770518Y-125935812D01*
X117895000Y-125948072D01*
X118459250Y-125945000D01*
X118618000Y-125786250D01*
X118618000Y-124587000D01*
X117418750Y-124587000D01*
X117260000Y-124745750D01*
X117256928Y-125310000D01*
X112978042Y-125310000D01*
X113075990Y-125163411D01*
X113187932Y-124893158D01*
X113245000Y-124606260D01*
X113245000Y-124313740D01*
X113187932Y-124026842D01*
X113075990Y-123756589D01*
X112978043Y-123610000D01*
X117256928Y-123610000D01*
X117260000Y-124174250D01*
X117418750Y-124333000D01*
X118618000Y-124333000D01*
X118618000Y-123133750D01*
X118872000Y-123133750D01*
X118872000Y-124333000D01*
X118892000Y-124333000D01*
X118892000Y-124587000D01*
X118872000Y-124587000D01*
X118872000Y-125786250D01*
X119030750Y-125945000D01*
X119595000Y-125948072D01*
X119719482Y-125935812D01*
X119839180Y-125899502D01*
X119949494Y-125840537D01*
X120046185Y-125761185D01*
X120125537Y-125664494D01*
X120184502Y-125554180D01*
X120206513Y-125481620D01*
X120338368Y-125613475D01*
X120581589Y-125775990D01*
X120851842Y-125887932D01*
X121138740Y-125945000D01*
X121431260Y-125945000D01*
X121718158Y-125887932D01*
X121988411Y-125775990D01*
X122231632Y-125613475D01*
X122438475Y-125406632D01*
X122568126Y-125212595D01*
X132193282Y-125212595D01*
X132237039Y-125531675D01*
X132342205Y-125836088D01*
X132435186Y-126010044D01*
X132699587Y-126105808D01*
X133655395Y-125150000D01*
X134014605Y-125150000D01*
X134970413Y-126105808D01*
X135234814Y-126010044D01*
X135375704Y-125720429D01*
X135457384Y-125408892D01*
X135469189Y-125212595D01*
X138693282Y-125212595D01*
X138737039Y-125531675D01*
X138842205Y-125836088D01*
X138935186Y-126010044D01*
X139199587Y-126105808D01*
X140155395Y-125150000D01*
X140514605Y-125150000D01*
X141470413Y-126105808D01*
X141734814Y-126010044D01*
X141875704Y-125720429D01*
X141957384Y-125408892D01*
X141969189Y-125212595D01*
X146798282Y-125212595D01*
X146842039Y-125531675D01*
X146947205Y-125836088D01*
X147040186Y-126010044D01*
X147304587Y-126105808D01*
X148260395Y-125150000D01*
X148619605Y-125150000D01*
X149575413Y-126105808D01*
X149839814Y-126010044D01*
X149980704Y-125720429D01*
X150062384Y-125408892D01*
X150074189Y-125212595D01*
X153298282Y-125212595D01*
X153342039Y-125531675D01*
X153447205Y-125836088D01*
X153540186Y-126010044D01*
X153804587Y-126105808D01*
X154760395Y-125150000D01*
X155119605Y-125150000D01*
X156075413Y-126105808D01*
X156339814Y-126010044D01*
X156480704Y-125720429D01*
X156562384Y-125408892D01*
X156574189Y-125212595D01*
X162038282Y-125212595D01*
X162082039Y-125531675D01*
X162187205Y-125836088D01*
X162280186Y-126010044D01*
X162544587Y-126105808D01*
X163500395Y-125150000D01*
X163859605Y-125150000D01*
X164815413Y-126105808D01*
X165079814Y-126010044D01*
X165220704Y-125720429D01*
X165302384Y-125408892D01*
X165314189Y-125212595D01*
X168538282Y-125212595D01*
X168582039Y-125531675D01*
X168687205Y-125836088D01*
X168780186Y-126010044D01*
X169044587Y-126105808D01*
X170000395Y-125150000D01*
X170359605Y-125150000D01*
X171315413Y-126105808D01*
X171579814Y-126010044D01*
X171720704Y-125720429D01*
X171802384Y-125408892D01*
X171821718Y-125087405D01*
X171777961Y-124768325D01*
X171672795Y-124463912D01*
X171579814Y-124289956D01*
X171315413Y-124194192D01*
X170359605Y-125150000D01*
X170000395Y-125150000D01*
X169044587Y-124194192D01*
X168780186Y-124289956D01*
X168639296Y-124579571D01*
X168557616Y-124891108D01*
X168538282Y-125212595D01*
X165314189Y-125212595D01*
X165321718Y-125087405D01*
X165277961Y-124768325D01*
X165172795Y-124463912D01*
X165079814Y-124289956D01*
X164815413Y-124194192D01*
X163859605Y-125150000D01*
X163500395Y-125150000D01*
X162544587Y-124194192D01*
X162280186Y-124289956D01*
X162139296Y-124579571D01*
X162057616Y-124891108D01*
X162038282Y-125212595D01*
X156574189Y-125212595D01*
X156581718Y-125087405D01*
X156537961Y-124768325D01*
X156432795Y-124463912D01*
X156339814Y-124289956D01*
X156075413Y-124194192D01*
X155119605Y-125150000D01*
X154760395Y-125150000D01*
X153804587Y-124194192D01*
X153540186Y-124289956D01*
X153399296Y-124579571D01*
X153317616Y-124891108D01*
X153298282Y-125212595D01*
X150074189Y-125212595D01*
X150081718Y-125087405D01*
X150037961Y-124768325D01*
X149932795Y-124463912D01*
X149839814Y-124289956D01*
X149575413Y-124194192D01*
X148619605Y-125150000D01*
X148260395Y-125150000D01*
X147304587Y-124194192D01*
X147040186Y-124289956D01*
X146899296Y-124579571D01*
X146817616Y-124891108D01*
X146798282Y-125212595D01*
X141969189Y-125212595D01*
X141976718Y-125087405D01*
X141932961Y-124768325D01*
X141827795Y-124463912D01*
X141734814Y-124289956D01*
X141470413Y-124194192D01*
X140514605Y-125150000D01*
X140155395Y-125150000D01*
X139199587Y-124194192D01*
X138935186Y-124289956D01*
X138794296Y-124579571D01*
X138712616Y-124891108D01*
X138693282Y-125212595D01*
X135469189Y-125212595D01*
X135476718Y-125087405D01*
X135432961Y-124768325D01*
X135327795Y-124463912D01*
X135234814Y-124289956D01*
X134970413Y-124194192D01*
X134014605Y-125150000D01*
X133655395Y-125150000D01*
X132699587Y-124194192D01*
X132435186Y-124289956D01*
X132294296Y-124579571D01*
X132212616Y-124891108D01*
X132193282Y-125212595D01*
X122568126Y-125212595D01*
X122600990Y-125163411D01*
X122712932Y-124893158D01*
X122770000Y-124606260D01*
X122770000Y-124313740D01*
X122712932Y-124026842D01*
X122707856Y-124014587D01*
X132879192Y-124014587D01*
X133835000Y-124970395D01*
X134790808Y-124014587D01*
X139379192Y-124014587D01*
X140335000Y-124970395D01*
X141290808Y-124014587D01*
X141195044Y-123750186D01*
X140905429Y-123609296D01*
X140593892Y-123527616D01*
X140272405Y-123508282D01*
X139953325Y-123552039D01*
X139648912Y-123657205D01*
X139474956Y-123750186D01*
X139379192Y-124014587D01*
X134790808Y-124014587D01*
X134695044Y-123750186D01*
X134405429Y-123609296D01*
X134093892Y-123527616D01*
X133772405Y-123508282D01*
X133453325Y-123552039D01*
X133148912Y-123657205D01*
X132974956Y-123750186D01*
X132879192Y-124014587D01*
X122707856Y-124014587D01*
X122600990Y-123756589D01*
X122438475Y-123513368D01*
X122231632Y-123306525D01*
X121988411Y-123144010D01*
X121718158Y-123032068D01*
X121431260Y-122975000D01*
X121138740Y-122975000D01*
X120851842Y-123032068D01*
X120581589Y-123144010D01*
X120338368Y-123306525D01*
X120206513Y-123438380D01*
X120184502Y-123365820D01*
X120125537Y-123255506D01*
X120046185Y-123158815D01*
X119949494Y-123079463D01*
X119839180Y-123020498D01*
X119719482Y-122984188D01*
X119595000Y-122971928D01*
X119030750Y-122975000D01*
X118872000Y-123133750D01*
X118618000Y-123133750D01*
X118459250Y-122975000D01*
X117895000Y-122971928D01*
X117770518Y-122984188D01*
X117650820Y-123020498D01*
X117540506Y-123079463D01*
X117443815Y-123158815D01*
X117364463Y-123255506D01*
X117305498Y-123365820D01*
X117269188Y-123485518D01*
X117256928Y-123610000D01*
X112978043Y-123610000D01*
X112913475Y-123513368D01*
X112706632Y-123306525D01*
X112463411Y-123144010D01*
X112193158Y-123032068D01*
X111906260Y-122975000D01*
X111613740Y-122975000D01*
X111326842Y-123032068D01*
X111056589Y-123144010D01*
X110813368Y-123306525D01*
X110681513Y-123438380D01*
X110659502Y-123365820D01*
X110600537Y-123255506D01*
X110521185Y-123158815D01*
X110424494Y-123079463D01*
X110314180Y-123020498D01*
X110194482Y-122984188D01*
X110070000Y-122971928D01*
X109505750Y-122975000D01*
X109347000Y-123133750D01*
X109093000Y-123133750D01*
X108934250Y-122975000D01*
X108370000Y-122971928D01*
X108245518Y-122984188D01*
X108125820Y-123020498D01*
X108015506Y-123079463D01*
X107918815Y-123158815D01*
X107839463Y-123255506D01*
X107780498Y-123365820D01*
X107744188Y-123485518D01*
X107731928Y-123610000D01*
X103507034Y-123610000D01*
X103366649Y-123422884D01*
X103142573Y-123222038D01*
X102883620Y-123068766D01*
X102599741Y-122968959D01*
X102362000Y-123089008D01*
X102108000Y-123089008D01*
X101870259Y-122968959D01*
X101586380Y-123068766D01*
X101327427Y-123222038D01*
X101103351Y-123422884D01*
X100922764Y-123663586D01*
X100792606Y-123934893D01*
X100743964Y-124095260D01*
X96153072Y-124095260D01*
X96153072Y-123560000D01*
X96140812Y-123435518D01*
X96104502Y-123315820D01*
X96045537Y-123205506D01*
X95966185Y-123108815D01*
X95869494Y-123029463D01*
X95759180Y-122970498D01*
X95639482Y-122934188D01*
X95515000Y-122921928D01*
X94682060Y-122921928D01*
X91321996Y-119561865D01*
X91286449Y-119518551D01*
X91113623Y-119376716D01*
X90916447Y-119271324D01*
X90776319Y-119228816D01*
X93080000Y-119228816D01*
X93080000Y-119531184D01*
X93138989Y-119827743D01*
X93254701Y-120107095D01*
X93422688Y-120358505D01*
X93636495Y-120572312D01*
X93887905Y-120740299D01*
X94167257Y-120856011D01*
X94463816Y-120915000D01*
X94766184Y-120915000D01*
X95062743Y-120856011D01*
X95342095Y-120740299D01*
X95593505Y-120572312D01*
X95807312Y-120358505D01*
X95975299Y-120107095D01*
X96091011Y-119827743D01*
X96150000Y-119531184D01*
X96150000Y-119228816D01*
X96091011Y-118932257D01*
X95975299Y-118652905D01*
X95859768Y-118480000D01*
X100696928Y-118480000D01*
X100696928Y-120280000D01*
X100709188Y-120404482D01*
X100745498Y-120524180D01*
X100804463Y-120634494D01*
X100883815Y-120731185D01*
X100980506Y-120810537D01*
X101090820Y-120869502D01*
X101210518Y-120905812D01*
X101335000Y-120918072D01*
X103135000Y-120918072D01*
X103259482Y-120905812D01*
X103379180Y-120869502D01*
X103489494Y-120810537D01*
X103586185Y-120731185D01*
X103665537Y-120634494D01*
X103724502Y-120524180D01*
X103760812Y-120404482D01*
X103773072Y-120280000D01*
X103773072Y-118480000D01*
X103760812Y-118355518D01*
X103724502Y-118235820D01*
X103665537Y-118125506D01*
X103586185Y-118028815D01*
X103560897Y-118008061D01*
X121520000Y-118008061D01*
X121520000Y-118211939D01*
X121559774Y-118411898D01*
X121637795Y-118600256D01*
X121751063Y-118769774D01*
X121895226Y-118913937D01*
X122064744Y-119027205D01*
X122253102Y-119105226D01*
X122453061Y-119145000D01*
X122656939Y-119145000D01*
X122856898Y-119105226D01*
X123045256Y-119027205D01*
X123093454Y-118995000D01*
X127096546Y-118995000D01*
X127144744Y-119027205D01*
X127333102Y-119105226D01*
X127533061Y-119145000D01*
X127736939Y-119145000D01*
X127936898Y-119105226D01*
X128125256Y-119027205D01*
X128294774Y-118913937D01*
X128438937Y-118769774D01*
X128552205Y-118600256D01*
X128630226Y-118411898D01*
X128670000Y-118211939D01*
X128670000Y-118008061D01*
X128630226Y-117808102D01*
X128552205Y-117619744D01*
X128438937Y-117450226D01*
X128294774Y-117306063D01*
X128125256Y-117192795D01*
X127936898Y-117114774D01*
X127736939Y-117075000D01*
X127533061Y-117075000D01*
X127333102Y-117114774D01*
X127144744Y-117192795D01*
X127096546Y-117225000D01*
X123093454Y-117225000D01*
X123045256Y-117192795D01*
X122856898Y-117114774D01*
X122656939Y-117075000D01*
X122453061Y-117075000D01*
X122253102Y-117114774D01*
X122064744Y-117192795D01*
X121895226Y-117306063D01*
X121751063Y-117450226D01*
X121637795Y-117619744D01*
X121559774Y-117808102D01*
X121520000Y-118008061D01*
X103560897Y-118008061D01*
X103489494Y-117949463D01*
X103379180Y-117890498D01*
X103259482Y-117854188D01*
X103135000Y-117841928D01*
X101335000Y-117841928D01*
X101210518Y-117854188D01*
X101090820Y-117890498D01*
X100980506Y-117949463D01*
X100883815Y-118028815D01*
X100804463Y-118125506D01*
X100745498Y-118235820D01*
X100709188Y-118355518D01*
X100696928Y-118480000D01*
X95859768Y-118480000D01*
X95807312Y-118401495D01*
X95593505Y-118187688D01*
X95342095Y-118019701D01*
X95062743Y-117903989D01*
X94766184Y-117845000D01*
X94463816Y-117845000D01*
X94167257Y-117903989D01*
X93887905Y-118019701D01*
X93636495Y-118187688D01*
X93422688Y-118401495D01*
X93254701Y-118652905D01*
X93138989Y-118932257D01*
X93080000Y-119228816D01*
X90776319Y-119228816D01*
X90702499Y-119206423D01*
X90535752Y-119190000D01*
X90535751Y-119190000D01*
X90480000Y-119184509D01*
X90424249Y-119190000D01*
X90203072Y-119190000D01*
X90203072Y-119025000D01*
X90190812Y-118900518D01*
X90154502Y-118780820D01*
X90095537Y-118670506D01*
X90016185Y-118573815D01*
X89919494Y-118494463D01*
X89809180Y-118435498D01*
X89689482Y-118399188D01*
X89565000Y-118386928D01*
X86965000Y-118386928D01*
X86840518Y-118399188D01*
X86720820Y-118435498D01*
X86610506Y-118494463D01*
X86513815Y-118573815D01*
X86434463Y-118670506D01*
X86375498Y-118780820D01*
X86339188Y-118900518D01*
X86326928Y-119025000D01*
X80797000Y-119025000D01*
X80797000Y-97013665D01*
X86830000Y-97013665D01*
X86830000Y-97296335D01*
X86885147Y-97573574D01*
X86993320Y-97834727D01*
X87150363Y-98069759D01*
X87350241Y-98269637D01*
X87380000Y-98289521D01*
X87380000Y-98381530D01*
X87375719Y-98425000D01*
X87380000Y-98468469D01*
X87380000Y-98468476D01*
X87392805Y-98598489D01*
X87443411Y-98765312D01*
X87525589Y-98919058D01*
X87636183Y-99053817D01*
X87669954Y-99081532D01*
X95863470Y-107275049D01*
X95891183Y-107308817D01*
X95924951Y-107336530D01*
X95924953Y-107336532D01*
X95996452Y-107395210D01*
X96025941Y-107419411D01*
X96179687Y-107501589D01*
X96295903Y-107536843D01*
X96346509Y-107552195D01*
X96361306Y-107553652D01*
X96476523Y-107565000D01*
X96476531Y-107565000D01*
X96520000Y-107569281D01*
X96563469Y-107565000D01*
X116514196Y-107565000D01*
X116479774Y-107648102D01*
X116440000Y-107848061D01*
X116440000Y-108051939D01*
X116479774Y-108251898D01*
X116514196Y-108335000D01*
X114203454Y-108335000D01*
X114155256Y-108302795D01*
X113966898Y-108224774D01*
X113766939Y-108185000D01*
X113563061Y-108185000D01*
X113363102Y-108224774D01*
X113174744Y-108302795D01*
X113005226Y-108416063D01*
X112861063Y-108560226D01*
X112747795Y-108729744D01*
X112669774Y-108918102D01*
X112630000Y-109118061D01*
X112630000Y-109321939D01*
X112669774Y-109521898D01*
X112704196Y-109605000D01*
X109263469Y-109605000D01*
X109220000Y-109600719D01*
X109176531Y-109605000D01*
X109176523Y-109605000D01*
X109046510Y-109617805D01*
X108879686Y-109668411D01*
X108725941Y-109750589D01*
X108624953Y-109833468D01*
X108624951Y-109833470D01*
X108591183Y-109861183D01*
X108563470Y-109894951D01*
X107989951Y-110468471D01*
X107956184Y-110496183D01*
X107928471Y-110529951D01*
X107928468Y-110529954D01*
X107845590Y-110630941D01*
X107763412Y-110784687D01*
X107712805Y-110951510D01*
X107695719Y-111125000D01*
X107700001Y-111168478D01*
X107700001Y-111260478D01*
X107670241Y-111280363D01*
X107470363Y-111480241D01*
X107315000Y-111712759D01*
X107159637Y-111480241D01*
X106959759Y-111280363D01*
X106724727Y-111123320D01*
X106463574Y-111015147D01*
X106186335Y-110960000D01*
X105903665Y-110960000D01*
X105626426Y-111015147D01*
X105365273Y-111123320D01*
X105130241Y-111280363D01*
X104930363Y-111480241D01*
X104775000Y-111712759D01*
X104619637Y-111480241D01*
X104419759Y-111280363D01*
X104184727Y-111123320D01*
X103923574Y-111015147D01*
X103646335Y-110960000D01*
X103363665Y-110960000D01*
X103086426Y-111015147D01*
X102825273Y-111123320D01*
X102590241Y-111280363D01*
X102390363Y-111480241D01*
X102235000Y-111712759D01*
X102079637Y-111480241D01*
X101879759Y-111280363D01*
X101644727Y-111123320D01*
X101383574Y-111015147D01*
X101106335Y-110960000D01*
X100823665Y-110960000D01*
X100546426Y-111015147D01*
X100285273Y-111123320D01*
X100050241Y-111280363D01*
X99850363Y-111480241D01*
X99695000Y-111712759D01*
X99539637Y-111480241D01*
X99339759Y-111280363D01*
X99104727Y-111123320D01*
X98843574Y-111015147D01*
X98566335Y-110960000D01*
X98283665Y-110960000D01*
X98006426Y-111015147D01*
X97745273Y-111123320D01*
X97510241Y-111280363D01*
X97310363Y-111480241D01*
X97155000Y-111712759D01*
X96999637Y-111480241D01*
X96799759Y-111280363D01*
X96564727Y-111123320D01*
X96303574Y-111015147D01*
X96026335Y-110960000D01*
X95743665Y-110960000D01*
X95466426Y-111015147D01*
X95205273Y-111123320D01*
X94970241Y-111280363D01*
X94770363Y-111480241D01*
X94615000Y-111712759D01*
X94459637Y-111480241D01*
X94259759Y-111280363D01*
X94024727Y-111123320D01*
X93763574Y-111015147D01*
X93486335Y-110960000D01*
X93203665Y-110960000D01*
X92926426Y-111015147D01*
X92665273Y-111123320D01*
X92430241Y-111280363D01*
X92230363Y-111480241D01*
X92075000Y-111712759D01*
X91919637Y-111480241D01*
X91719759Y-111280363D01*
X91484727Y-111123320D01*
X91223574Y-111015147D01*
X90946335Y-110960000D01*
X90663665Y-110960000D01*
X90386426Y-111015147D01*
X90125273Y-111123320D01*
X89890241Y-111280363D01*
X89690363Y-111480241D01*
X89535000Y-111712759D01*
X89379637Y-111480241D01*
X89179759Y-111280363D01*
X88944727Y-111123320D01*
X88683574Y-111015147D01*
X88406335Y-110960000D01*
X88123665Y-110960000D01*
X87846426Y-111015147D01*
X87585273Y-111123320D01*
X87350241Y-111280363D01*
X87150363Y-111480241D01*
X86993320Y-111715273D01*
X86885147Y-111976426D01*
X86830000Y-112253665D01*
X86830000Y-112536335D01*
X86885147Y-112813574D01*
X86993320Y-113074727D01*
X87150363Y-113309759D01*
X87350241Y-113509637D01*
X87585273Y-113666680D01*
X87846426Y-113774853D01*
X88123665Y-113830000D01*
X88406335Y-113830000D01*
X88683574Y-113774853D01*
X88944727Y-113666680D01*
X89179759Y-113509637D01*
X89379637Y-113309759D01*
X89535000Y-113077241D01*
X89690363Y-113309759D01*
X89890241Y-113509637D01*
X90125273Y-113666680D01*
X90386426Y-113774853D01*
X90663665Y-113830000D01*
X90946335Y-113830000D01*
X91223574Y-113774853D01*
X91484727Y-113666680D01*
X91719759Y-113509637D01*
X91919637Y-113309759D01*
X92075000Y-113077241D01*
X92230363Y-113309759D01*
X92430241Y-113509637D01*
X92665273Y-113666680D01*
X92926426Y-113774853D01*
X93203665Y-113830000D01*
X93486335Y-113830000D01*
X93763574Y-113774853D01*
X94024727Y-113666680D01*
X94259759Y-113509637D01*
X94459637Y-113309759D01*
X94615000Y-113077241D01*
X94770363Y-113309759D01*
X94970241Y-113509637D01*
X95205273Y-113666680D01*
X95466426Y-113774853D01*
X95743665Y-113830000D01*
X96026335Y-113830000D01*
X96303574Y-113774853D01*
X96564727Y-113666680D01*
X96799759Y-113509637D01*
X96999637Y-113309759D01*
X97155000Y-113077241D01*
X97310363Y-113309759D01*
X97510241Y-113509637D01*
X97745273Y-113666680D01*
X98006426Y-113774853D01*
X98283665Y-113830000D01*
X98566335Y-113830000D01*
X98843574Y-113774853D01*
X99104727Y-113666680D01*
X99339759Y-113509637D01*
X99539637Y-113309759D01*
X99695000Y-113077241D01*
X99850363Y-113309759D01*
X100050241Y-113509637D01*
X100285273Y-113666680D01*
X100546426Y-113774853D01*
X100823665Y-113830000D01*
X101106335Y-113830000D01*
X101383574Y-113774853D01*
X101644727Y-113666680D01*
X101879759Y-113509637D01*
X102079637Y-113309759D01*
X102235000Y-113077241D01*
X102390363Y-113309759D01*
X102590241Y-113509637D01*
X102825273Y-113666680D01*
X103086426Y-113774853D01*
X103363665Y-113830000D01*
X103646335Y-113830000D01*
X103923574Y-113774853D01*
X104184727Y-113666680D01*
X104419759Y-113509637D01*
X104619637Y-113309759D01*
X104775000Y-113077241D01*
X104930363Y-113309759D01*
X105130241Y-113509637D01*
X105365273Y-113666680D01*
X105626426Y-113774853D01*
X105903665Y-113830000D01*
X106186335Y-113830000D01*
X106463574Y-113774853D01*
X106724727Y-113666680D01*
X106959759Y-113509637D01*
X107159637Y-113309759D01*
X107315000Y-113077241D01*
X107470363Y-113309759D01*
X107670241Y-113509637D01*
X107905273Y-113666680D01*
X108166426Y-113774853D01*
X108443665Y-113830000D01*
X108726335Y-113830000D01*
X109003574Y-113774853D01*
X109264727Y-113666680D01*
X109499759Y-113509637D01*
X109699637Y-113309759D01*
X109855000Y-113077241D01*
X110010363Y-113309759D01*
X110210241Y-113509637D01*
X110445273Y-113666680D01*
X110706426Y-113774853D01*
X110983665Y-113830000D01*
X111266335Y-113830000D01*
X111543574Y-113774853D01*
X111804727Y-113666680D01*
X112039759Y-113509637D01*
X112239637Y-113309759D01*
X112395000Y-113077241D01*
X112550363Y-113309759D01*
X112750241Y-113509637D01*
X112985273Y-113666680D01*
X113246426Y-113774853D01*
X113523665Y-113830000D01*
X113806335Y-113830000D01*
X114083574Y-113774853D01*
X114344727Y-113666680D01*
X114579759Y-113509637D01*
X114779637Y-113309759D01*
X114935000Y-113077241D01*
X115090363Y-113309759D01*
X115290241Y-113509637D01*
X115525273Y-113666680D01*
X115786426Y-113774853D01*
X116063665Y-113830000D01*
X116346335Y-113830000D01*
X116623574Y-113774853D01*
X116884727Y-113666680D01*
X117119759Y-113509637D01*
X117319637Y-113309759D01*
X117475000Y-113077241D01*
X117630363Y-113309759D01*
X117830241Y-113509637D01*
X118065273Y-113666680D01*
X118326426Y-113774853D01*
X118603665Y-113830000D01*
X118886335Y-113830000D01*
X119163574Y-113774853D01*
X119424727Y-113666680D01*
X119659759Y-113509637D01*
X119859637Y-113309759D01*
X120016680Y-113074727D01*
X120021067Y-113064135D01*
X120132615Y-113250131D01*
X120321586Y-113458519D01*
X120547580Y-113626037D01*
X120801913Y-113746246D01*
X120935961Y-113786904D01*
X121158000Y-113664915D01*
X121158000Y-112522000D01*
X121138000Y-112522000D01*
X121138000Y-112268000D01*
X121158000Y-112268000D01*
X121158000Y-112248000D01*
X121412000Y-112248000D01*
X121412000Y-112268000D01*
X121432000Y-112268000D01*
X121432000Y-112522000D01*
X121412000Y-112522000D01*
X121412000Y-113664915D01*
X121634039Y-113786904D01*
X121768087Y-113746246D01*
X122022420Y-113626037D01*
X122248414Y-113458519D01*
X122437385Y-113250131D01*
X122548933Y-113064135D01*
X122553320Y-113074727D01*
X122710363Y-113309759D01*
X122910241Y-113509637D01*
X123145273Y-113666680D01*
X123406426Y-113774853D01*
X123683665Y-113830000D01*
X123966335Y-113830000D01*
X124243574Y-113774853D01*
X124504727Y-113666680D01*
X124739759Y-113509637D01*
X124939637Y-113309759D01*
X125096680Y-113074727D01*
X125204853Y-112813574D01*
X125260000Y-112536335D01*
X125260000Y-112253665D01*
X125204853Y-111976426D01*
X125116469Y-111763047D01*
X125708470Y-112355049D01*
X125736183Y-112388817D01*
X125769951Y-112416530D01*
X125769953Y-112416532D01*
X125841452Y-112475210D01*
X125870941Y-112499411D01*
X126024687Y-112581589D01*
X126191510Y-112632195D01*
X126321523Y-112645000D01*
X126321533Y-112645000D01*
X126364999Y-112649281D01*
X126408465Y-112645000D01*
X132204962Y-112645000D01*
X132194188Y-112680518D01*
X132181928Y-112805000D01*
X132181928Y-114605000D01*
X132194188Y-114729482D01*
X132230498Y-114849180D01*
X132289463Y-114959494D01*
X132368815Y-115056185D01*
X132465506Y-115135537D01*
X132565303Y-115188880D01*
X132527688Y-115226495D01*
X132359701Y-115477905D01*
X132243989Y-115757257D01*
X132185000Y-116053816D01*
X132185000Y-116356184D01*
X132243989Y-116652743D01*
X132359701Y-116932095D01*
X132527688Y-117183505D01*
X132741495Y-117397312D01*
X132992905Y-117565299D01*
X133272257Y-117681011D01*
X133568816Y-117740000D01*
X133871184Y-117740000D01*
X134167743Y-117681011D01*
X134447095Y-117565299D01*
X134698505Y-117397312D01*
X134912312Y-117183505D01*
X134970000Y-117097169D01*
X135027688Y-117183505D01*
X135241495Y-117397312D01*
X135492905Y-117565299D01*
X135772257Y-117681011D01*
X136068816Y-117740000D01*
X136371184Y-117740000D01*
X136667743Y-117681011D01*
X136947095Y-117565299D01*
X137198505Y-117397312D01*
X137412312Y-117183505D01*
X137470000Y-117097169D01*
X137527688Y-117183505D01*
X137741495Y-117397312D01*
X137992905Y-117565299D01*
X138272257Y-117681011D01*
X138568816Y-117740000D01*
X138871184Y-117740000D01*
X139167743Y-117681011D01*
X139447095Y-117565299D01*
X139698505Y-117397312D01*
X139912312Y-117183505D01*
X140080299Y-116932095D01*
X140196011Y-116652743D01*
X140255000Y-116356184D01*
X140255000Y-116053816D01*
X140196011Y-115757257D01*
X140080299Y-115477905D01*
X139912312Y-115226495D01*
X139698505Y-115012688D01*
X139555690Y-114917262D01*
X139604475Y-114769080D01*
X138720000Y-113884605D01*
X137835525Y-114769080D01*
X137884310Y-114917262D01*
X137741495Y-115012688D01*
X137527688Y-115226495D01*
X137470000Y-115312831D01*
X137412312Y-115226495D01*
X137198505Y-115012688D01*
X137112169Y-114955000D01*
X137198505Y-114897312D01*
X137412312Y-114683505D01*
X137507738Y-114540690D01*
X137655920Y-114589475D01*
X138540395Y-113705000D01*
X138526253Y-113690858D01*
X138705858Y-113511253D01*
X138720000Y-113525395D01*
X138734143Y-113511253D01*
X138913748Y-113690858D01*
X138899605Y-113705000D01*
X139784080Y-114589475D01*
X140038261Y-114505792D01*
X140169158Y-114233225D01*
X140244365Y-113940358D01*
X140260991Y-113638447D01*
X140218397Y-113339093D01*
X140118222Y-113053801D01*
X140038261Y-112904208D01*
X139784082Y-112820526D01*
X139900030Y-112704578D01*
X139840452Y-112645000D01*
X147444962Y-112645000D01*
X147434188Y-112680518D01*
X147421928Y-112805000D01*
X147421928Y-114605000D01*
X147434188Y-114729482D01*
X147470498Y-114849180D01*
X147529463Y-114959494D01*
X147608815Y-115056185D01*
X147705506Y-115135537D01*
X147805303Y-115188880D01*
X147767688Y-115226495D01*
X147599701Y-115477905D01*
X147483989Y-115757257D01*
X147425000Y-116053816D01*
X147425000Y-116356184D01*
X147483989Y-116652743D01*
X147599701Y-116932095D01*
X147767688Y-117183505D01*
X147809183Y-117225000D01*
X144048454Y-117225000D01*
X144000256Y-117192795D01*
X143811898Y-117114774D01*
X143611939Y-117075000D01*
X143408061Y-117075000D01*
X143208102Y-117114774D01*
X143019744Y-117192795D01*
X142850226Y-117306063D01*
X142706063Y-117450226D01*
X142592795Y-117619744D01*
X142514774Y-117808102D01*
X142475000Y-118008061D01*
X142475000Y-118211939D01*
X142514774Y-118411898D01*
X142592795Y-118600256D01*
X142706063Y-118769774D01*
X142850226Y-118913937D01*
X143019744Y-119027205D01*
X143208102Y-119105226D01*
X143408061Y-119145000D01*
X143611939Y-119145000D01*
X143811898Y-119105226D01*
X144000256Y-119027205D01*
X144048454Y-118995000D01*
X161246531Y-118995000D01*
X161290000Y-118999281D01*
X161333469Y-118995000D01*
X161333477Y-118995000D01*
X161463490Y-118982195D01*
X161630313Y-118931589D01*
X161784059Y-118849411D01*
X161918817Y-118738817D01*
X161946534Y-118705044D01*
X162520050Y-118131529D01*
X162553817Y-118103817D01*
X162581533Y-118070046D01*
X162664411Y-117969059D01*
X162746589Y-117815314D01*
X162797195Y-117648490D01*
X162805388Y-117565299D01*
X162810000Y-117518477D01*
X162810000Y-117518469D01*
X162814281Y-117475000D01*
X162810000Y-117431531D01*
X162810000Y-116860391D01*
X162839701Y-116932095D01*
X163007688Y-117183505D01*
X163221495Y-117397312D01*
X163472905Y-117565299D01*
X163752257Y-117681011D01*
X164048816Y-117740000D01*
X164351184Y-117740000D01*
X164647743Y-117681011D01*
X164927095Y-117565299D01*
X165178505Y-117397312D01*
X165392312Y-117183505D01*
X165450000Y-117097169D01*
X165507688Y-117183505D01*
X165721495Y-117397312D01*
X165972905Y-117565299D01*
X166252257Y-117681011D01*
X166548816Y-117740000D01*
X166851184Y-117740000D01*
X167147743Y-117681011D01*
X167427095Y-117565299D01*
X167678505Y-117397312D01*
X167892312Y-117183505D01*
X167950000Y-117097169D01*
X168007688Y-117183505D01*
X168221495Y-117397312D01*
X168472905Y-117565299D01*
X168752257Y-117681011D01*
X169048816Y-117740000D01*
X169351184Y-117740000D01*
X169647743Y-117681011D01*
X169927095Y-117565299D01*
X169934148Y-117560586D01*
X169942805Y-117648490D01*
X169993412Y-117815313D01*
X170075590Y-117969059D01*
X170158468Y-118070046D01*
X170158469Y-118070047D01*
X170186184Y-118103817D01*
X170219951Y-118131529D01*
X171200000Y-119111579D01*
X171200000Y-119365145D01*
X170954463Y-119201082D01*
X170656912Y-119077832D01*
X170341033Y-119015000D01*
X170018967Y-119015000D01*
X169703088Y-119077832D01*
X169405537Y-119201082D01*
X169137748Y-119380013D01*
X168910013Y-119607748D01*
X168731082Y-119875537D01*
X168607832Y-120173088D01*
X168545000Y-120488967D01*
X168545000Y-120811033D01*
X168607832Y-121126912D01*
X168731082Y-121424463D01*
X168910013Y-121692252D01*
X169137748Y-121919987D01*
X169148590Y-121927232D01*
X164712263Y-121926661D01*
X164722252Y-121919987D01*
X164949987Y-121692252D01*
X165128918Y-121424463D01*
X165252168Y-121126912D01*
X165315000Y-120811033D01*
X165315000Y-120488967D01*
X165252168Y-120173088D01*
X165128918Y-119875537D01*
X164949987Y-119607748D01*
X164722252Y-119380013D01*
X164454463Y-119201082D01*
X164156912Y-119077832D01*
X163841033Y-119015000D01*
X163518967Y-119015000D01*
X163203088Y-119077832D01*
X162905537Y-119201082D01*
X162637748Y-119380013D01*
X162410013Y-119607748D01*
X162231082Y-119875537D01*
X162107832Y-120173088D01*
X162045000Y-120488967D01*
X162045000Y-120811033D01*
X162107832Y-121126912D01*
X162231082Y-121424463D01*
X162410013Y-121692252D01*
X162637748Y-121919987D01*
X162647339Y-121926396D01*
X155973945Y-121925538D01*
X155982252Y-121919987D01*
X156209987Y-121692252D01*
X156388918Y-121424463D01*
X156512168Y-121126912D01*
X156575000Y-120811033D01*
X156575000Y-120488967D01*
X156512168Y-120173088D01*
X156388918Y-119875537D01*
X156209987Y-119607748D01*
X155982252Y-119380013D01*
X155714463Y-119201082D01*
X155416912Y-119077832D01*
X155101033Y-119015000D01*
X154778967Y-119015000D01*
X154463088Y-119077832D01*
X154165537Y-119201082D01*
X153897748Y-119380013D01*
X153670013Y-119607748D01*
X153491082Y-119875537D01*
X153367832Y-120173088D01*
X153305000Y-120488967D01*
X153305000Y-120811033D01*
X153367832Y-121126912D01*
X153491082Y-121424463D01*
X153670013Y-121692252D01*
X153897748Y-121919987D01*
X153905657Y-121925272D01*
X149475195Y-121924702D01*
X149482252Y-121919987D01*
X149709987Y-121692252D01*
X149888918Y-121424463D01*
X150012168Y-121126912D01*
X150075000Y-120811033D01*
X150075000Y-120488967D01*
X150012168Y-120173088D01*
X149888918Y-119875537D01*
X149709987Y-119607748D01*
X149482252Y-119380013D01*
X149214463Y-119201082D01*
X148916912Y-119077832D01*
X148601033Y-119015000D01*
X148278967Y-119015000D01*
X147963088Y-119077832D01*
X147665537Y-119201082D01*
X147397748Y-119380013D01*
X147170013Y-119607748D01*
X146991082Y-119875537D01*
X146867832Y-120173088D01*
X146805000Y-120488967D01*
X146805000Y-120811033D01*
X146867832Y-121126912D01*
X146991082Y-121424463D01*
X147170013Y-121692252D01*
X147397748Y-121919987D01*
X147404406Y-121924436D01*
X144356177Y-121924044D01*
X142245892Y-120035896D01*
X142233817Y-120021183D01*
X142181026Y-119977858D01*
X142162712Y-119961472D01*
X142147462Y-119950312D01*
X142099059Y-119910589D01*
X142077239Y-119898926D01*
X142057283Y-119884323D01*
X142000528Y-119857924D01*
X141945313Y-119828411D01*
X141921642Y-119821230D01*
X141899216Y-119810799D01*
X141838404Y-119795980D01*
X141778490Y-119777805D01*
X141753869Y-119775380D01*
X141729842Y-119769525D01*
X141712591Y-119768788D01*
X141604987Y-119607748D01*
X141377252Y-119380013D01*
X141109463Y-119201082D01*
X140811912Y-119077832D01*
X140496033Y-119015000D01*
X140173967Y-119015000D01*
X139858088Y-119077832D01*
X139560537Y-119201082D01*
X139292748Y-119380013D01*
X139065013Y-119607748D01*
X138959941Y-119765000D01*
X135210059Y-119765000D01*
X135104987Y-119607748D01*
X134877252Y-119380013D01*
X134609463Y-119201082D01*
X134311912Y-119077832D01*
X133996033Y-119015000D01*
X133673967Y-119015000D01*
X133358088Y-119077832D01*
X133060537Y-119201082D01*
X132792748Y-119380013D01*
X132565013Y-119607748D01*
X132386082Y-119875537D01*
X132262832Y-120173088D01*
X132200000Y-120488967D01*
X132200000Y-120811033D01*
X132262832Y-121126912D01*
X132386082Y-121424463D01*
X132565013Y-121692252D01*
X132792748Y-121919987D01*
X133060537Y-122098918D01*
X133358088Y-122222168D01*
X133673967Y-122285000D01*
X133996033Y-122285000D01*
X134311912Y-122222168D01*
X134609463Y-122098918D01*
X134877252Y-121919987D01*
X135104987Y-121692252D01*
X135210059Y-121535000D01*
X138959941Y-121535000D01*
X139065013Y-121692252D01*
X139292748Y-121919987D01*
X139560537Y-122098918D01*
X139858088Y-122222168D01*
X140173967Y-122285000D01*
X140496033Y-122285000D01*
X140811912Y-122222168D01*
X141109463Y-122098918D01*
X141377252Y-121919987D01*
X141528316Y-121768923D01*
X143377072Y-123423073D01*
X143389103Y-123437736D01*
X143441910Y-123481086D01*
X143460287Y-123497528D01*
X143475508Y-123508666D01*
X143523846Y-123548347D01*
X143545708Y-123560036D01*
X143565716Y-123574677D01*
X143622429Y-123601057D01*
X143677582Y-123630545D01*
X143701305Y-123637745D01*
X143723783Y-123648200D01*
X143784545Y-123663007D01*
X143844398Y-123681172D01*
X143869070Y-123683605D01*
X143893157Y-123689475D01*
X143955642Y-123692143D01*
X143974410Y-123693994D01*
X143999064Y-123693997D01*
X144067328Y-123696912D01*
X144086074Y-123694008D01*
X147684192Y-123694471D01*
X147579956Y-123750186D01*
X147484192Y-124014587D01*
X148440000Y-124970395D01*
X149395808Y-124014587D01*
X149300044Y-123750186D01*
X149185913Y-123694664D01*
X154182629Y-123695307D01*
X154079956Y-123750186D01*
X153984192Y-124014587D01*
X154940000Y-124970395D01*
X155895808Y-124014587D01*
X155800044Y-123750186D01*
X155687631Y-123695500D01*
X162920527Y-123696430D01*
X162819956Y-123750186D01*
X162724192Y-124014587D01*
X163680000Y-124970395D01*
X164635808Y-124014587D01*
X164540044Y-123750186D01*
X164429941Y-123696624D01*
X169418964Y-123697265D01*
X169319956Y-123750186D01*
X169224192Y-124014587D01*
X170180000Y-124970395D01*
X171135808Y-124014587D01*
X171040044Y-123750186D01*
X170931660Y-123697460D01*
X171155963Y-123697489D01*
X171199495Y-123701776D01*
X171286715Y-123693186D01*
X171372872Y-123684712D01*
X171372925Y-123684696D01*
X171372985Y-123684690D01*
X171457792Y-123658963D01*
X171539702Y-123634127D01*
X171539753Y-123634100D01*
X171539808Y-123634083D01*
X171616489Y-123593097D01*
X171693458Y-123551969D01*
X171693502Y-123551933D01*
X171693554Y-123551905D01*
X171765472Y-123492883D01*
X171828230Y-123441392D01*
X171855980Y-123407588D01*
X172680049Y-122583520D01*
X172713817Y-122555807D01*
X172824411Y-122421049D01*
X172906589Y-122267303D01*
X172957195Y-122100480D01*
X172970000Y-121970467D01*
X172970000Y-121970457D01*
X172974281Y-121926991D01*
X172970000Y-121883525D01*
X172970000Y-118788465D01*
X172974281Y-118744999D01*
X172970000Y-118701533D01*
X172970000Y-118701523D01*
X172957195Y-118571510D01*
X172906589Y-118404687D01*
X172824411Y-118250941D01*
X172713817Y-118116183D01*
X172680050Y-118088471D01*
X171700000Y-117108422D01*
X171700000Y-111803466D01*
X171704281Y-111759999D01*
X171700000Y-111716533D01*
X171700000Y-111716523D01*
X171687195Y-111586510D01*
X171636589Y-111419687D01*
X171554411Y-111265941D01*
X171524431Y-111229410D01*
X171471532Y-111164953D01*
X171471530Y-111164951D01*
X171443817Y-111131183D01*
X171410050Y-111103471D01*
X168525000Y-108218422D01*
X168525000Y-99103469D01*
X168529281Y-99060000D01*
X168525000Y-99016531D01*
X168525000Y-99016523D01*
X168512195Y-98886510D01*
X168475430Y-98765313D01*
X168461589Y-98719686D01*
X168379411Y-98565941D01*
X168296532Y-98464953D01*
X168296530Y-98464951D01*
X168268817Y-98431183D01*
X168235050Y-98403471D01*
X168011535Y-98179956D01*
X168000226Y-98123102D01*
X167922205Y-97934744D01*
X167808937Y-97765226D01*
X167664774Y-97621063D01*
X167495256Y-97507795D01*
X167306898Y-97429774D01*
X167106939Y-97390000D01*
X166903061Y-97390000D01*
X166703102Y-97429774D01*
X166514744Y-97507795D01*
X166345226Y-97621063D01*
X166201063Y-97765226D01*
X166087795Y-97934744D01*
X166009774Y-98123102D01*
X165985000Y-98247650D01*
X165985000Y-96423454D01*
X166017205Y-96375256D01*
X166095226Y-96186898D01*
X166135000Y-95986939D01*
X166135000Y-95783061D01*
X166095226Y-95583102D01*
X166017205Y-95394744D01*
X165903937Y-95225226D01*
X165759774Y-95081063D01*
X165590256Y-94967795D01*
X165401898Y-94889774D01*
X165201939Y-94850000D01*
X164998061Y-94850000D01*
X164798102Y-94889774D01*
X164715000Y-94924196D01*
X164715000Y-88943469D01*
X164719281Y-88900000D01*
X164715000Y-88856531D01*
X164715000Y-88856523D01*
X164702195Y-88726510D01*
X164665430Y-88605313D01*
X164651589Y-88559686D01*
X164569411Y-88405941D01*
X164486532Y-88304953D01*
X164486530Y-88304951D01*
X164458817Y-88271183D01*
X164425050Y-88243471D01*
X163851534Y-87669956D01*
X163823817Y-87636183D01*
X163689059Y-87525589D01*
X163535313Y-87443411D01*
X163368490Y-87392805D01*
X163238477Y-87380000D01*
X163238469Y-87380000D01*
X163195000Y-87375719D01*
X163151531Y-87380000D01*
X153078469Y-87380000D01*
X153035000Y-87375719D01*
X152991531Y-87380000D01*
X152991523Y-87380000D01*
X152861510Y-87392805D01*
X152694686Y-87443411D01*
X152540941Y-87525589D01*
X152439953Y-87608468D01*
X152439951Y-87608470D01*
X152406183Y-87636183D01*
X152378470Y-87669951D01*
X151804951Y-88243471D01*
X151771184Y-88271183D01*
X151743471Y-88304951D01*
X151743468Y-88304954D01*
X151660590Y-88405941D01*
X151578412Y-88559687D01*
X151527805Y-88726510D01*
X151510719Y-88900000D01*
X151515001Y-88943476D01*
X151515001Y-88975343D01*
X151453368Y-89016525D01*
X151246525Y-89223368D01*
X151130000Y-89397760D01*
X151013475Y-89223368D01*
X150806632Y-89016525D01*
X150745000Y-88975344D01*
X150745000Y-88943469D01*
X150749281Y-88900000D01*
X150745000Y-88856531D01*
X150745000Y-88856523D01*
X150732195Y-88726510D01*
X150695430Y-88605313D01*
X150681589Y-88559686D01*
X150599411Y-88405941D01*
X150516532Y-88304953D01*
X150516530Y-88304951D01*
X150488817Y-88271183D01*
X150455050Y-88243471D01*
X149881534Y-87669956D01*
X149853817Y-87636183D01*
X149719059Y-87525589D01*
X149565313Y-87443411D01*
X149398490Y-87392805D01*
X149268477Y-87380000D01*
X149268469Y-87380000D01*
X149225000Y-87375719D01*
X149181531Y-87380000D01*
X140378465Y-87380000D01*
X140334999Y-87375719D01*
X140291533Y-87380000D01*
X140291523Y-87380000D01*
X140161510Y-87392805D01*
X139994687Y-87443411D01*
X139840941Y-87525589D01*
X139840939Y-87525590D01*
X139840940Y-87525590D01*
X139739953Y-87608468D01*
X139739951Y-87608470D01*
X139706183Y-87636183D01*
X139678470Y-87669951D01*
X138819957Y-88528465D01*
X138763102Y-88539774D01*
X138574744Y-88617795D01*
X138405226Y-88731063D01*
X138261063Y-88875226D01*
X138147795Y-89044744D01*
X138069774Y-89233102D01*
X138030000Y-89433061D01*
X138030000Y-89636939D01*
X138069774Y-89836898D01*
X138104196Y-89920000D01*
X136891579Y-89920000D01*
X136261535Y-89289957D01*
X136250226Y-89233102D01*
X136172205Y-89044744D01*
X136058937Y-88875226D01*
X135914774Y-88731063D01*
X135745256Y-88617795D01*
X135556898Y-88539774D01*
X135356939Y-88500000D01*
X135153061Y-88500000D01*
X134953102Y-88539774D01*
X134764744Y-88617795D01*
X134595226Y-88731063D01*
X134451063Y-88875226D01*
X134337795Y-89044744D01*
X134259774Y-89233102D01*
X134220000Y-89433061D01*
X134220000Y-89636939D01*
X134259774Y-89836898D01*
X134337795Y-90025256D01*
X134451063Y-90194774D01*
X134595226Y-90338937D01*
X134764744Y-90452205D01*
X134953102Y-90530226D01*
X135009957Y-90541535D01*
X135868470Y-91400049D01*
X135896183Y-91433817D01*
X135929951Y-91461530D01*
X135929953Y-91461532D01*
X136001452Y-91520210D01*
X136030941Y-91544411D01*
X136184687Y-91626589D01*
X136351510Y-91677195D01*
X136481523Y-91690000D01*
X136481533Y-91690000D01*
X136524999Y-91694281D01*
X136568465Y-91690000D01*
X142196531Y-91690000D01*
X142240000Y-91694281D01*
X142283469Y-91690000D01*
X142283477Y-91690000D01*
X142413490Y-91677195D01*
X142580313Y-91626589D01*
X142734059Y-91544411D01*
X142868817Y-91433817D01*
X142896534Y-91400044D01*
X143241579Y-91055000D01*
X143295375Y-91055000D01*
X143304188Y-91144482D01*
X143340498Y-91264180D01*
X143399463Y-91374494D01*
X143453222Y-91440000D01*
X143399463Y-91505506D01*
X143340498Y-91615820D01*
X143304188Y-91735518D01*
X143291928Y-91860000D01*
X143291928Y-93560000D01*
X143304188Y-93684482D01*
X143340498Y-93804180D01*
X143399463Y-93914494D01*
X143453222Y-93980000D01*
X143399463Y-94045506D01*
X143340498Y-94155820D01*
X143304188Y-94275518D01*
X143291928Y-94400000D01*
X143295000Y-94964250D01*
X143453750Y-95123000D01*
X144653000Y-95123000D01*
X144653000Y-95103000D01*
X144907000Y-95103000D01*
X144907000Y-95123000D01*
X147193000Y-95123000D01*
X147193000Y-95103000D01*
X147447000Y-95103000D01*
X147447000Y-95123000D01*
X149733000Y-95123000D01*
X149733000Y-95103000D01*
X149987000Y-95103000D01*
X149987000Y-95123000D01*
X152273000Y-95123000D01*
X152273000Y-95103000D01*
X152527000Y-95103000D01*
X152527000Y-95123000D01*
X154813000Y-95123000D01*
X154813000Y-95103000D01*
X155067000Y-95103000D01*
X155067000Y-95123000D01*
X157353000Y-95123000D01*
X157353000Y-95103000D01*
X157607000Y-95103000D01*
X157607000Y-95123000D01*
X158800814Y-95123000D01*
X158921481Y-94893109D01*
X158824157Y-94618748D01*
X158675178Y-94368645D01*
X158480269Y-94152412D01*
X158250594Y-93981100D01*
X158426632Y-93863475D01*
X158633475Y-93656632D01*
X158795990Y-93413411D01*
X158907932Y-93143158D01*
X158965000Y-92856260D01*
X158965000Y-92563740D01*
X158907932Y-92276842D01*
X158795990Y-92006589D01*
X158633475Y-91763368D01*
X158426632Y-91556525D01*
X158252240Y-91440000D01*
X158426632Y-91323475D01*
X158633475Y-91116632D01*
X158674656Y-91055000D01*
X159653422Y-91055000D01*
X159770001Y-91171580D01*
X159770000Y-96194196D01*
X159686898Y-96159774D01*
X159486939Y-96120000D01*
X159283061Y-96120000D01*
X159083102Y-96159774D01*
X158894744Y-96237795D01*
X158846546Y-96270000D01*
X158550206Y-96270000D01*
X158675178Y-96131355D01*
X158824157Y-95881252D01*
X158921481Y-95606891D01*
X158800814Y-95377000D01*
X157607000Y-95377000D01*
X157607000Y-95397000D01*
X157353000Y-95397000D01*
X157353000Y-95377000D01*
X155067000Y-95377000D01*
X155067000Y-95397000D01*
X154813000Y-95397000D01*
X154813000Y-95377000D01*
X152527000Y-95377000D01*
X152527000Y-95397000D01*
X152273000Y-95397000D01*
X152273000Y-95377000D01*
X149987000Y-95377000D01*
X149987000Y-95397000D01*
X149733000Y-95397000D01*
X149733000Y-95377000D01*
X147447000Y-95377000D01*
X147447000Y-95397000D01*
X147193000Y-95397000D01*
X147193000Y-95377000D01*
X144907000Y-95377000D01*
X144907000Y-95397000D01*
X144653000Y-95397000D01*
X144653000Y-95377000D01*
X143453750Y-95377000D01*
X143295000Y-95535750D01*
X143291928Y-96100000D01*
X143304188Y-96224482D01*
X143317996Y-96270000D01*
X141295804Y-96270000D01*
X141330226Y-96186898D01*
X141370000Y-95986939D01*
X141370000Y-95783061D01*
X141330226Y-95583102D01*
X141252205Y-95394744D01*
X141138937Y-95225226D01*
X140994774Y-95081063D01*
X140825256Y-94967795D01*
X140636898Y-94889774D01*
X140436939Y-94850000D01*
X140233061Y-94850000D01*
X140033102Y-94889774D01*
X139844744Y-94967795D01*
X139796546Y-95000000D01*
X136891579Y-95000000D01*
X132451535Y-90559957D01*
X132440226Y-90503102D01*
X132362205Y-90314744D01*
X132248937Y-90145226D01*
X132104774Y-90001063D01*
X131935256Y-89887795D01*
X131746898Y-89809774D01*
X131546939Y-89770000D01*
X131343061Y-89770000D01*
X131143102Y-89809774D01*
X131060000Y-89844196D01*
X131060000Y-89578469D01*
X131064281Y-89535000D01*
X131060000Y-89491531D01*
X131060000Y-89491523D01*
X131047195Y-89361510D01*
X131010430Y-89240313D01*
X130996589Y-89194686D01*
X130914411Y-89040941D01*
X130831532Y-88939953D01*
X130831530Y-88939951D01*
X130803817Y-88906183D01*
X130770049Y-88878470D01*
X130196532Y-88304954D01*
X130168817Y-88271183D01*
X130034059Y-88160589D01*
X129880313Y-88078411D01*
X129713490Y-88027805D01*
X129583477Y-88015000D01*
X129583469Y-88015000D01*
X129540000Y-88010719D01*
X129496531Y-88015000D01*
X129123539Y-88015000D01*
X129265351Y-87884670D01*
X129419792Y-87673392D01*
X129530047Y-87436044D01*
X129562716Y-87328329D01*
X129439374Y-87122000D01*
X128397000Y-87122000D01*
X128397000Y-87142000D01*
X128143000Y-87142000D01*
X128143000Y-87122000D01*
X127100626Y-87122000D01*
X126977284Y-87328329D01*
X127009953Y-87436044D01*
X127120208Y-87673392D01*
X127274649Y-87884670D01*
X127416461Y-88015000D01*
X121517975Y-88015000D01*
X121686962Y-87846013D01*
X121833061Y-87627359D01*
X121933696Y-87384405D01*
X121985000Y-87126486D01*
X121985000Y-86863514D01*
X121944851Y-86661671D01*
X126977284Y-86661671D01*
X127100626Y-86868000D01*
X128143000Y-86868000D01*
X128143000Y-85824799D01*
X128397000Y-85824799D01*
X128397000Y-86868000D01*
X129439374Y-86868000D01*
X129562716Y-86661671D01*
X129530047Y-86553956D01*
X129419792Y-86316608D01*
X129265351Y-86105330D01*
X129072660Y-85928241D01*
X128849123Y-85792147D01*
X128603330Y-85702278D01*
X128397000Y-85824799D01*
X128143000Y-85824799D01*
X127936670Y-85702278D01*
X127690877Y-85792147D01*
X127467340Y-85928241D01*
X127274649Y-86105330D01*
X127120208Y-86316608D01*
X127009953Y-86553956D01*
X126977284Y-86661671D01*
X121944851Y-86661671D01*
X121933696Y-86605595D01*
X121833061Y-86362641D01*
X121686962Y-86143987D01*
X121501013Y-85958038D01*
X121282359Y-85811939D01*
X121039405Y-85711304D01*
X120781486Y-85660000D01*
X120518514Y-85660000D01*
X120260595Y-85711304D01*
X120017641Y-85811939D01*
X119798987Y-85958038D01*
X119647025Y-86110000D01*
X119423469Y-86110000D01*
X119380000Y-86105719D01*
X119336531Y-86110000D01*
X119336523Y-86110000D01*
X119206510Y-86122805D01*
X119039687Y-86173411D01*
X118954285Y-86219059D01*
X118885941Y-86255589D01*
X118784953Y-86338468D01*
X118784951Y-86338470D01*
X118751183Y-86366183D01*
X118723470Y-86399951D01*
X117108422Y-88015000D01*
X116473072Y-88015000D01*
X116473072Y-88000000D01*
X116460812Y-87875518D01*
X116424502Y-87755820D01*
X116365537Y-87645506D01*
X116286185Y-87548815D01*
X116189494Y-87469463D01*
X116079180Y-87410498D01*
X115959482Y-87374188D01*
X115835000Y-87361928D01*
X115820000Y-87361928D01*
X115820000Y-86403469D01*
X115824281Y-86360000D01*
X115820000Y-86316531D01*
X115820000Y-86316523D01*
X115807195Y-86186510D01*
X115770430Y-86065313D01*
X115756589Y-86019686D01*
X115674411Y-85865941D01*
X115591532Y-85764953D01*
X115591530Y-85764951D01*
X115563817Y-85731183D01*
X115530049Y-85703470D01*
X114956534Y-85129956D01*
X114928817Y-85096183D01*
X114794059Y-84985589D01*
X114640313Y-84903411D01*
X114473490Y-84852805D01*
X114343477Y-84840000D01*
X114343469Y-84840000D01*
X114300000Y-84835719D01*
X114256531Y-84840000D01*
X107358476Y-84840000D01*
X107315000Y-84835718D01*
X107271523Y-84840000D01*
X100373469Y-84840000D01*
X100330000Y-84835719D01*
X100286531Y-84840000D01*
X100286523Y-84840000D01*
X100156510Y-84852805D01*
X99989686Y-84903411D01*
X99835941Y-84985589D01*
X99734953Y-85068468D01*
X99734951Y-85068470D01*
X99701183Y-85096183D01*
X99673470Y-85129951D01*
X99099956Y-85703466D01*
X99066183Y-85731183D01*
X98955589Y-85865942D01*
X98873411Y-86019688D01*
X98846015Y-86110000D01*
X98826779Y-86173412D01*
X98822805Y-86186511D01*
X98810000Y-86316524D01*
X98810000Y-86316531D01*
X98805719Y-86360000D01*
X98810000Y-86403469D01*
X98810000Y-87361928D01*
X98795000Y-87361928D01*
X98670518Y-87374188D01*
X98550820Y-87410498D01*
X98440506Y-87469463D01*
X98343815Y-87548815D01*
X98264463Y-87645506D01*
X98205498Y-87755820D01*
X98199944Y-87774127D01*
X98133505Y-87707688D01*
X97882095Y-87539701D01*
X97602743Y-87423989D01*
X97306184Y-87365000D01*
X97003816Y-87365000D01*
X96707257Y-87423989D01*
X96427905Y-87539701D01*
X96176495Y-87707688D01*
X95962688Y-87921495D01*
X95794701Y-88172905D01*
X95678989Y-88452257D01*
X95620000Y-88748816D01*
X95620000Y-89051184D01*
X95678989Y-89347743D01*
X95794701Y-89627095D01*
X95962688Y-89878505D01*
X96176495Y-90092312D01*
X96427905Y-90260299D01*
X96707257Y-90376011D01*
X97003816Y-90435000D01*
X97306184Y-90435000D01*
X97602743Y-90376011D01*
X97882095Y-90260299D01*
X98133505Y-90092312D01*
X98199944Y-90025873D01*
X98205498Y-90044180D01*
X98264463Y-90154494D01*
X98343815Y-90251185D01*
X98440506Y-90330537D01*
X98550820Y-90389502D01*
X98670518Y-90425812D01*
X98795000Y-90438072D01*
X100595000Y-90438072D01*
X100719482Y-90425812D01*
X100839180Y-90389502D01*
X100949494Y-90330537D01*
X101046185Y-90251185D01*
X101125537Y-90154494D01*
X101184502Y-90044180D01*
X101220812Y-89924482D01*
X101233072Y-89800000D01*
X101233072Y-88000000D01*
X101220812Y-87875518D01*
X101184502Y-87755820D01*
X101125537Y-87645506D01*
X101046185Y-87548815D01*
X100949494Y-87469463D01*
X100839180Y-87410498D01*
X100719482Y-87374188D01*
X100595000Y-87361928D01*
X100580000Y-87361928D01*
X100580000Y-86726578D01*
X100696579Y-86610000D01*
X106430000Y-86610000D01*
X106430001Y-87361928D01*
X106415000Y-87361928D01*
X106290518Y-87374188D01*
X106170820Y-87410498D01*
X106060506Y-87469463D01*
X105963815Y-87548815D01*
X105884463Y-87645506D01*
X105825498Y-87755820D01*
X105819944Y-87774127D01*
X105753505Y-87707688D01*
X105502095Y-87539701D01*
X105222743Y-87423989D01*
X104926184Y-87365000D01*
X104623816Y-87365000D01*
X104327257Y-87423989D01*
X104047905Y-87539701D01*
X103796495Y-87707688D01*
X103582688Y-87921495D01*
X103414701Y-88172905D01*
X103298989Y-88452257D01*
X103240000Y-88748816D01*
X103240000Y-89051184D01*
X103298989Y-89347743D01*
X103414701Y-89627095D01*
X103582688Y-89878505D01*
X103796495Y-90092312D01*
X103887389Y-90153045D01*
X103885719Y-90170000D01*
X103890000Y-90213469D01*
X103890000Y-90213476D01*
X103896183Y-90276250D01*
X103902805Y-90343490D01*
X103916763Y-90389502D01*
X103953411Y-90510312D01*
X104035589Y-90664058D01*
X104146183Y-90798817D01*
X104179956Y-90826534D01*
X104543421Y-91190000D01*
X102278465Y-91190000D01*
X102234999Y-91185719D01*
X102191533Y-91190000D01*
X102191523Y-91190000D01*
X102061510Y-91202805D01*
X101894687Y-91253411D01*
X101740941Y-91335589D01*
X101740939Y-91335590D01*
X101740940Y-91335590D01*
X101639953Y-91418468D01*
X101639951Y-91418470D01*
X101606183Y-91446183D01*
X101578470Y-91479951D01*
X100369956Y-92688466D01*
X100336183Y-92716183D01*
X100225589Y-92850942D01*
X100143411Y-93004688D01*
X100092805Y-93171511D01*
X100080000Y-93301524D01*
X100080000Y-93301531D01*
X100075719Y-93345000D01*
X100080000Y-93388469D01*
X100080001Y-96020478D01*
X100050241Y-96040363D01*
X99850363Y-96240241D01*
X99695000Y-96472759D01*
X99539637Y-96240241D01*
X99339759Y-96040363D01*
X99104727Y-95883320D01*
X98843574Y-95775147D01*
X98566335Y-95720000D01*
X98283665Y-95720000D01*
X98006426Y-95775147D01*
X97745273Y-95883320D01*
X97510241Y-96040363D01*
X97310363Y-96240241D01*
X97155000Y-96472759D01*
X96999637Y-96240241D01*
X96799759Y-96040363D01*
X96564727Y-95883320D01*
X96303574Y-95775147D01*
X96026335Y-95720000D01*
X95743665Y-95720000D01*
X95466426Y-95775147D01*
X95205273Y-95883320D01*
X94970241Y-96040363D01*
X94770363Y-96240241D01*
X94615000Y-96472759D01*
X94459637Y-96240241D01*
X94259759Y-96040363D01*
X94024727Y-95883320D01*
X93763574Y-95775147D01*
X93486335Y-95720000D01*
X93203665Y-95720000D01*
X92926426Y-95775147D01*
X92665273Y-95883320D01*
X92430241Y-96040363D01*
X92230363Y-96240241D01*
X92075000Y-96472759D01*
X91919637Y-96240241D01*
X91719759Y-96040363D01*
X91484727Y-95883320D01*
X91223574Y-95775147D01*
X90946335Y-95720000D01*
X90663665Y-95720000D01*
X90386426Y-95775147D01*
X90125273Y-95883320D01*
X89890241Y-96040363D01*
X89690363Y-96240241D01*
X89535000Y-96472759D01*
X89379637Y-96240241D01*
X89179759Y-96040363D01*
X88944727Y-95883320D01*
X88683574Y-95775147D01*
X88406335Y-95720000D01*
X88123665Y-95720000D01*
X87846426Y-95775147D01*
X87585273Y-95883320D01*
X87350241Y-96040363D01*
X87150363Y-96240241D01*
X86993320Y-96475273D01*
X86885147Y-96736426D01*
X86830000Y-97013665D01*
X80797000Y-97013665D01*
X80797000Y-88748816D01*
X86095000Y-88748816D01*
X86095000Y-89051184D01*
X86153989Y-89347743D01*
X86269701Y-89627095D01*
X86437688Y-89878505D01*
X86651495Y-90092312D01*
X86902905Y-90260299D01*
X87182257Y-90376011D01*
X87478816Y-90435000D01*
X87781184Y-90435000D01*
X88077743Y-90376011D01*
X88357095Y-90260299D01*
X88608505Y-90092312D01*
X88674944Y-90025873D01*
X88680498Y-90044180D01*
X88739463Y-90154494D01*
X88818815Y-90251185D01*
X88915506Y-90330537D01*
X89025820Y-90389502D01*
X89145518Y-90425812D01*
X89270000Y-90438072D01*
X89884250Y-90435000D01*
X90043000Y-90276250D01*
X90043000Y-89027000D01*
X90297000Y-89027000D01*
X90297000Y-90276250D01*
X90455750Y-90435000D01*
X91070000Y-90438072D01*
X91194482Y-90425812D01*
X91314180Y-90389502D01*
X91424494Y-90330537D01*
X91521185Y-90251185D01*
X91600537Y-90154494D01*
X91659502Y-90044180D01*
X91695812Y-89924482D01*
X91708072Y-89800000D01*
X91705000Y-89185750D01*
X91546250Y-89027000D01*
X90297000Y-89027000D01*
X90043000Y-89027000D01*
X90023000Y-89027000D01*
X90023000Y-88773000D01*
X90043000Y-88773000D01*
X90043000Y-87523750D01*
X90297000Y-87523750D01*
X90297000Y-88773000D01*
X91546250Y-88773000D01*
X91705000Y-88614250D01*
X91708072Y-88000000D01*
X91695812Y-87875518D01*
X91659502Y-87755820D01*
X91600537Y-87645506D01*
X91521185Y-87548815D01*
X91424494Y-87469463D01*
X91314180Y-87410498D01*
X91194482Y-87374188D01*
X91070000Y-87361928D01*
X90455750Y-87365000D01*
X90297000Y-87523750D01*
X90043000Y-87523750D01*
X89884250Y-87365000D01*
X89270000Y-87361928D01*
X89145518Y-87374188D01*
X89025820Y-87410498D01*
X88915506Y-87469463D01*
X88818815Y-87548815D01*
X88739463Y-87645506D01*
X88680498Y-87755820D01*
X88674944Y-87774127D01*
X88608505Y-87707688D01*
X88357095Y-87539701D01*
X88077743Y-87423989D01*
X87781184Y-87365000D01*
X87478816Y-87365000D01*
X87182257Y-87423989D01*
X86902905Y-87539701D01*
X86651495Y-87707688D01*
X86437688Y-87921495D01*
X86269701Y-88172905D01*
X86153989Y-88452257D01*
X86095000Y-88748816D01*
X80797000Y-88748816D01*
X80797000Y-83972000D01*
X173203001Y-83972000D01*
X173203001Y-104992532D01*
%TA.AperFunction,Conductor*%
D29*
G36*
X173203001Y-104992532D02*
G01*
X173116807Y-104831275D01*
X172867503Y-104527497D01*
X172563725Y-104278193D01*
X172217147Y-104092943D01*
X171841088Y-103978867D01*
X171450000Y-103940348D01*
X171058913Y-103978867D01*
X170682854Y-104092943D01*
X170336276Y-104278193D01*
X170032498Y-104527497D01*
X169783193Y-104831275D01*
X169597943Y-105177853D01*
X169483867Y-105553912D01*
X169455000Y-105847002D01*
X169455000Y-106562997D01*
X169483867Y-106856087D01*
X169597943Y-107232146D01*
X169783193Y-107578725D01*
X170032497Y-107882503D01*
X170336275Y-108131807D01*
X170682853Y-108317057D01*
X171058912Y-108431133D01*
X171450000Y-108469652D01*
X171841087Y-108431133D01*
X172217146Y-108317057D01*
X172563725Y-108131807D01*
X172867503Y-107882503D01*
X173116807Y-107578725D01*
X173203000Y-107417469D01*
X173203000Y-129388000D01*
X80797000Y-129388000D01*
X80797000Y-126285413D01*
X132879192Y-126285413D01*
X132974956Y-126549814D01*
X133264571Y-126690704D01*
X133576108Y-126772384D01*
X133897595Y-126791718D01*
X134216675Y-126747961D01*
X134521088Y-126642795D01*
X134695044Y-126549814D01*
X134790808Y-126285413D01*
X139379192Y-126285413D01*
X139474956Y-126549814D01*
X139764571Y-126690704D01*
X140076108Y-126772384D01*
X140397595Y-126791718D01*
X140716675Y-126747961D01*
X141021088Y-126642795D01*
X141195044Y-126549814D01*
X141290808Y-126285413D01*
X147484192Y-126285413D01*
X147579956Y-126549814D01*
X147869571Y-126690704D01*
X148181108Y-126772384D01*
X148502595Y-126791718D01*
X148821675Y-126747961D01*
X149126088Y-126642795D01*
X149300044Y-126549814D01*
X149395808Y-126285413D01*
X153984192Y-126285413D01*
X154079956Y-126549814D01*
X154369571Y-126690704D01*
X154681108Y-126772384D01*
X155002595Y-126791718D01*
X155321675Y-126747961D01*
X155626088Y-126642795D01*
X155800044Y-126549814D01*
X155895808Y-126285413D01*
X162724192Y-126285413D01*
X162819956Y-126549814D01*
X163109571Y-126690704D01*
X163421108Y-126772384D01*
X163742595Y-126791718D01*
X164061675Y-126747961D01*
X164366088Y-126642795D01*
X164540044Y-126549814D01*
X164635808Y-126285413D01*
X169224192Y-126285413D01*
X169319956Y-126549814D01*
X169609571Y-126690704D01*
X169921108Y-126772384D01*
X170242595Y-126791718D01*
X170561675Y-126747961D01*
X170866088Y-126642795D01*
X171040044Y-126549814D01*
X171135808Y-126285413D01*
X170180000Y-125329605D01*
X169224192Y-126285413D01*
X164635808Y-126285413D01*
X163680000Y-125329605D01*
X162724192Y-126285413D01*
X155895808Y-126285413D01*
X154940000Y-125329605D01*
X153984192Y-126285413D01*
X149395808Y-126285413D01*
X148440000Y-125329605D01*
X147484192Y-126285413D01*
X141290808Y-126285413D01*
X140335000Y-125329605D01*
X139379192Y-126285413D01*
X134790808Y-126285413D01*
X133835000Y-125329605D01*
X132879192Y-126285413D01*
X80797000Y-126285413D01*
X80797000Y-119025000D01*
X86326928Y-119025000D01*
X86326928Y-121625000D01*
X86339188Y-121749482D01*
X86375498Y-121869180D01*
X86434463Y-121979494D01*
X86513815Y-122076185D01*
X86610506Y-122155537D01*
X86720820Y-122214502D01*
X86840518Y-122250812D01*
X86965000Y-122263072D01*
X87119682Y-122263072D01*
X87031509Y-122321987D01*
X86761987Y-122591509D01*
X86550225Y-122908434D01*
X86404361Y-123260581D01*
X86330000Y-123634419D01*
X86330000Y-124015581D01*
X86404361Y-124389419D01*
X86550225Y-124741566D01*
X86761987Y-125058491D01*
X87031509Y-125328013D01*
X87348434Y-125539775D01*
X87700581Y-125685639D01*
X88074419Y-125760000D01*
X88455581Y-125760000D01*
X88829419Y-125685639D01*
X89181566Y-125539775D01*
X89498491Y-125328013D01*
X89768013Y-125058491D01*
X89979775Y-124741566D01*
X90125639Y-124389419D01*
X90200000Y-124015581D01*
X90200000Y-123634419D01*
X90125639Y-123260581D01*
X89979775Y-122908434D01*
X89768013Y-122591509D01*
X89498491Y-122321987D01*
X89410318Y-122263072D01*
X89565000Y-122263072D01*
X89689482Y-122250812D01*
X89809180Y-122214502D01*
X89919494Y-122155537D01*
X90016185Y-122076185D01*
X90095537Y-121979494D01*
X90154502Y-121869180D01*
X90190812Y-121749482D01*
X90200543Y-121650674D01*
X93076928Y-124527060D01*
X93076928Y-125360000D01*
X93089188Y-125484482D01*
X93125498Y-125604180D01*
X93184463Y-125714494D01*
X93263815Y-125811185D01*
X93360506Y-125890537D01*
X93470820Y-125949502D01*
X93590518Y-125985812D01*
X93715000Y-125998072D01*
X95515000Y-125998072D01*
X95639482Y-125985812D01*
X95759180Y-125949502D01*
X95869494Y-125890537D01*
X95966185Y-125811185D01*
X96045537Y-125714494D01*
X96104502Y-125604180D01*
X96140812Y-125484482D01*
X96153072Y-125360000D01*
X96153072Y-124824740D01*
X100743964Y-124824740D01*
X100792606Y-124985107D01*
X100922764Y-125256414D01*
X101103351Y-125497116D01*
X101327427Y-125697962D01*
X101586380Y-125851234D01*
X101870259Y-125951041D01*
X102108000Y-125830992D01*
X102108000Y-124587000D01*
X102362000Y-124587000D01*
X102362000Y-125830992D01*
X102599741Y-125951041D01*
X102883620Y-125851234D01*
X103142573Y-125697962D01*
X103366649Y-125497116D01*
X103507033Y-125310000D01*
X107731928Y-125310000D01*
X107744188Y-125434482D01*
X107780498Y-125554180D01*
X107839463Y-125664494D01*
X107918815Y-125761185D01*
X108015506Y-125840537D01*
X108125820Y-125899502D01*
X108245518Y-125935812D01*
X108370000Y-125948072D01*
X108934250Y-125945000D01*
X109093000Y-125786250D01*
X109093000Y-124587000D01*
X107893750Y-124587000D01*
X107735000Y-124745750D01*
X107731928Y-125310000D01*
X103507033Y-125310000D01*
X103547236Y-125256414D01*
X103677394Y-124985107D01*
X103726036Y-124824740D01*
X103605378Y-124587000D01*
X102362000Y-124587000D01*
X102108000Y-124587000D01*
X100864622Y-124587000D01*
X100743964Y-124824740D01*
X96153072Y-124824740D01*
X96153072Y-124095260D01*
X100743964Y-124095260D01*
X100864622Y-124333000D01*
X102108000Y-124333000D01*
X102108000Y-123089008D01*
X102362000Y-123089008D01*
X102362000Y-124333000D01*
X103605378Y-124333000D01*
X103726036Y-124095260D01*
X103677394Y-123934893D01*
X103547236Y-123663586D01*
X103507034Y-123610000D01*
X107731928Y-123610000D01*
X107735000Y-124174250D01*
X107893750Y-124333000D01*
X109093000Y-124333000D01*
X109093000Y-123133750D01*
X109347000Y-123133750D01*
X109347000Y-124333000D01*
X109367000Y-124333000D01*
X109367000Y-124587000D01*
X109347000Y-124587000D01*
X109347000Y-125786250D01*
X109505750Y-125945000D01*
X110070000Y-125948072D01*
X110194482Y-125935812D01*
X110314180Y-125899502D01*
X110424494Y-125840537D01*
X110521185Y-125761185D01*
X110600537Y-125664494D01*
X110659502Y-125554180D01*
X110681513Y-125481620D01*
X110813368Y-125613475D01*
X111056589Y-125775990D01*
X111326842Y-125887932D01*
X111613740Y-125945000D01*
X111906260Y-125945000D01*
X112193158Y-125887932D01*
X112463411Y-125775990D01*
X112706632Y-125613475D01*
X112913475Y-125406632D01*
X112978042Y-125310000D01*
X117256928Y-125310000D01*
X117269188Y-125434482D01*
X117305498Y-125554180D01*
X117364463Y-125664494D01*
X117443815Y-125761185D01*
X117540506Y-125840537D01*
X117650820Y-125899502D01*
X117770518Y-125935812D01*
X117895000Y-125948072D01*
X118459250Y-125945000D01*
X118618000Y-125786250D01*
X118618000Y-124587000D01*
X117418750Y-124587000D01*
X117260000Y-124745750D01*
X117256928Y-125310000D01*
X112978042Y-125310000D01*
X113075990Y-125163411D01*
X113187932Y-124893158D01*
X113245000Y-124606260D01*
X113245000Y-124313740D01*
X113187932Y-124026842D01*
X113075990Y-123756589D01*
X112978043Y-123610000D01*
X117256928Y-123610000D01*
X117260000Y-124174250D01*
X117418750Y-124333000D01*
X118618000Y-124333000D01*
X118618000Y-123133750D01*
X118872000Y-123133750D01*
X118872000Y-124333000D01*
X118892000Y-124333000D01*
X118892000Y-124587000D01*
X118872000Y-124587000D01*
X118872000Y-125786250D01*
X119030750Y-125945000D01*
X119595000Y-125948072D01*
X119719482Y-125935812D01*
X119839180Y-125899502D01*
X119949494Y-125840537D01*
X120046185Y-125761185D01*
X120125537Y-125664494D01*
X120184502Y-125554180D01*
X120206513Y-125481620D01*
X120338368Y-125613475D01*
X120581589Y-125775990D01*
X120851842Y-125887932D01*
X121138740Y-125945000D01*
X121431260Y-125945000D01*
X121718158Y-125887932D01*
X121988411Y-125775990D01*
X122231632Y-125613475D01*
X122438475Y-125406632D01*
X122568126Y-125212595D01*
X132193282Y-125212595D01*
X132237039Y-125531675D01*
X132342205Y-125836088D01*
X132435186Y-126010044D01*
X132699587Y-126105808D01*
X133655395Y-125150000D01*
X134014605Y-125150000D01*
X134970413Y-126105808D01*
X135234814Y-126010044D01*
X135375704Y-125720429D01*
X135457384Y-125408892D01*
X135469189Y-125212595D01*
X138693282Y-125212595D01*
X138737039Y-125531675D01*
X138842205Y-125836088D01*
X138935186Y-126010044D01*
X139199587Y-126105808D01*
X140155395Y-125150000D01*
X140514605Y-125150000D01*
X141470413Y-126105808D01*
X141734814Y-126010044D01*
X141875704Y-125720429D01*
X141957384Y-125408892D01*
X141969189Y-125212595D01*
X146798282Y-125212595D01*
X146842039Y-125531675D01*
X146947205Y-125836088D01*
X147040186Y-126010044D01*
X147304587Y-126105808D01*
X148260395Y-125150000D01*
X148619605Y-125150000D01*
X149575413Y-126105808D01*
X149839814Y-126010044D01*
X149980704Y-125720429D01*
X150062384Y-125408892D01*
X150074189Y-125212595D01*
X153298282Y-125212595D01*
X153342039Y-125531675D01*
X153447205Y-125836088D01*
X153540186Y-126010044D01*
X153804587Y-126105808D01*
X154760395Y-125150000D01*
X155119605Y-125150000D01*
X156075413Y-126105808D01*
X156339814Y-126010044D01*
X156480704Y-125720429D01*
X156562384Y-125408892D01*
X156574189Y-125212595D01*
X162038282Y-125212595D01*
X162082039Y-125531675D01*
X162187205Y-125836088D01*
X162280186Y-126010044D01*
X162544587Y-126105808D01*
X163500395Y-125150000D01*
X163859605Y-125150000D01*
X164815413Y-126105808D01*
X165079814Y-126010044D01*
X165220704Y-125720429D01*
X165302384Y-125408892D01*
X165314189Y-125212595D01*
X168538282Y-125212595D01*
X168582039Y-125531675D01*
X168687205Y-125836088D01*
X168780186Y-126010044D01*
X169044587Y-126105808D01*
X170000395Y-125150000D01*
X170359605Y-125150000D01*
X171315413Y-126105808D01*
X171579814Y-126010044D01*
X171720704Y-125720429D01*
X171802384Y-125408892D01*
X171821718Y-125087405D01*
X171777961Y-124768325D01*
X171672795Y-124463912D01*
X171579814Y-124289956D01*
X171315413Y-124194192D01*
X170359605Y-125150000D01*
X170000395Y-125150000D01*
X169044587Y-124194192D01*
X168780186Y-124289956D01*
X168639296Y-124579571D01*
X168557616Y-124891108D01*
X168538282Y-125212595D01*
X165314189Y-125212595D01*
X165321718Y-125087405D01*
X165277961Y-124768325D01*
X165172795Y-124463912D01*
X165079814Y-124289956D01*
X164815413Y-124194192D01*
X163859605Y-125150000D01*
X163500395Y-125150000D01*
X162544587Y-124194192D01*
X162280186Y-124289956D01*
X162139296Y-124579571D01*
X162057616Y-124891108D01*
X162038282Y-125212595D01*
X156574189Y-125212595D01*
X156581718Y-125087405D01*
X156537961Y-124768325D01*
X156432795Y-124463912D01*
X156339814Y-124289956D01*
X156075413Y-124194192D01*
X155119605Y-125150000D01*
X154760395Y-125150000D01*
X153804587Y-124194192D01*
X153540186Y-124289956D01*
X153399296Y-124579571D01*
X153317616Y-124891108D01*
X153298282Y-125212595D01*
X150074189Y-125212595D01*
X150081718Y-125087405D01*
X150037961Y-124768325D01*
X149932795Y-124463912D01*
X149839814Y-124289956D01*
X149575413Y-124194192D01*
X148619605Y-125150000D01*
X148260395Y-125150000D01*
X147304587Y-124194192D01*
X147040186Y-124289956D01*
X146899296Y-124579571D01*
X146817616Y-124891108D01*
X146798282Y-125212595D01*
X141969189Y-125212595D01*
X141976718Y-125087405D01*
X141932961Y-124768325D01*
X141827795Y-124463912D01*
X141734814Y-124289956D01*
X141470413Y-124194192D01*
X140514605Y-125150000D01*
X140155395Y-125150000D01*
X139199587Y-124194192D01*
X138935186Y-124289956D01*
X138794296Y-124579571D01*
X138712616Y-124891108D01*
X138693282Y-125212595D01*
X135469189Y-125212595D01*
X135476718Y-125087405D01*
X135432961Y-124768325D01*
X135327795Y-124463912D01*
X135234814Y-124289956D01*
X134970413Y-124194192D01*
X134014605Y-125150000D01*
X133655395Y-125150000D01*
X132699587Y-124194192D01*
X132435186Y-124289956D01*
X132294296Y-124579571D01*
X132212616Y-124891108D01*
X132193282Y-125212595D01*
X122568126Y-125212595D01*
X122600990Y-125163411D01*
X122712932Y-124893158D01*
X122770000Y-124606260D01*
X122770000Y-124313740D01*
X122712932Y-124026842D01*
X122707856Y-124014587D01*
X132879192Y-124014587D01*
X133835000Y-124970395D01*
X134790808Y-124014587D01*
X139379192Y-124014587D01*
X140335000Y-124970395D01*
X141290808Y-124014587D01*
X141195044Y-123750186D01*
X140905429Y-123609296D01*
X140593892Y-123527616D01*
X140272405Y-123508282D01*
X139953325Y-123552039D01*
X139648912Y-123657205D01*
X139474956Y-123750186D01*
X139379192Y-124014587D01*
X134790808Y-124014587D01*
X134695044Y-123750186D01*
X134405429Y-123609296D01*
X134093892Y-123527616D01*
X133772405Y-123508282D01*
X133453325Y-123552039D01*
X133148912Y-123657205D01*
X132974956Y-123750186D01*
X132879192Y-124014587D01*
X122707856Y-124014587D01*
X122600990Y-123756589D01*
X122438475Y-123513368D01*
X122231632Y-123306525D01*
X121988411Y-123144010D01*
X121718158Y-123032068D01*
X121431260Y-122975000D01*
X121138740Y-122975000D01*
X120851842Y-123032068D01*
X120581589Y-123144010D01*
X120338368Y-123306525D01*
X120206513Y-123438380D01*
X120184502Y-123365820D01*
X120125537Y-123255506D01*
X120046185Y-123158815D01*
X119949494Y-123079463D01*
X119839180Y-123020498D01*
X119719482Y-122984188D01*
X119595000Y-122971928D01*
X119030750Y-122975000D01*
X118872000Y-123133750D01*
X118618000Y-123133750D01*
X118459250Y-122975000D01*
X117895000Y-122971928D01*
X117770518Y-122984188D01*
X117650820Y-123020498D01*
X117540506Y-123079463D01*
X117443815Y-123158815D01*
X117364463Y-123255506D01*
X117305498Y-123365820D01*
X117269188Y-123485518D01*
X117256928Y-123610000D01*
X112978043Y-123610000D01*
X112913475Y-123513368D01*
X112706632Y-123306525D01*
X112463411Y-123144010D01*
X112193158Y-123032068D01*
X111906260Y-122975000D01*
X111613740Y-122975000D01*
X111326842Y-123032068D01*
X111056589Y-123144010D01*
X110813368Y-123306525D01*
X110681513Y-123438380D01*
X110659502Y-123365820D01*
X110600537Y-123255506D01*
X110521185Y-123158815D01*
X110424494Y-123079463D01*
X110314180Y-123020498D01*
X110194482Y-122984188D01*
X110070000Y-122971928D01*
X109505750Y-122975000D01*
X109347000Y-123133750D01*
X109093000Y-123133750D01*
X108934250Y-122975000D01*
X108370000Y-122971928D01*
X108245518Y-122984188D01*
X108125820Y-123020498D01*
X108015506Y-123079463D01*
X107918815Y-123158815D01*
X107839463Y-123255506D01*
X107780498Y-123365820D01*
X107744188Y-123485518D01*
X107731928Y-123610000D01*
X103507034Y-123610000D01*
X103366649Y-123422884D01*
X103142573Y-123222038D01*
X102883620Y-123068766D01*
X102599741Y-122968959D01*
X102362000Y-123089008D01*
X102108000Y-123089008D01*
X101870259Y-122968959D01*
X101586380Y-123068766D01*
X101327427Y-123222038D01*
X101103351Y-123422884D01*
X100922764Y-123663586D01*
X100792606Y-123934893D01*
X100743964Y-124095260D01*
X96153072Y-124095260D01*
X96153072Y-123560000D01*
X96140812Y-123435518D01*
X96104502Y-123315820D01*
X96045537Y-123205506D01*
X95966185Y-123108815D01*
X95869494Y-123029463D01*
X95759180Y-122970498D01*
X95639482Y-122934188D01*
X95515000Y-122921928D01*
X94682060Y-122921928D01*
X91321996Y-119561865D01*
X91286449Y-119518551D01*
X91113623Y-119376716D01*
X90916447Y-119271324D01*
X90776319Y-119228816D01*
X93080000Y-119228816D01*
X93080000Y-119531184D01*
X93138989Y-119827743D01*
X93254701Y-120107095D01*
X93422688Y-120358505D01*
X93636495Y-120572312D01*
X93887905Y-120740299D01*
X94167257Y-120856011D01*
X94463816Y-120915000D01*
X94766184Y-120915000D01*
X95062743Y-120856011D01*
X95342095Y-120740299D01*
X95593505Y-120572312D01*
X95807312Y-120358505D01*
X95975299Y-120107095D01*
X96091011Y-119827743D01*
X96150000Y-119531184D01*
X96150000Y-119228816D01*
X96091011Y-118932257D01*
X95975299Y-118652905D01*
X95859768Y-118480000D01*
X100696928Y-118480000D01*
X100696928Y-120280000D01*
X100709188Y-120404482D01*
X100745498Y-120524180D01*
X100804463Y-120634494D01*
X100883815Y-120731185D01*
X100980506Y-120810537D01*
X101090820Y-120869502D01*
X101210518Y-120905812D01*
X101335000Y-120918072D01*
X103135000Y-120918072D01*
X103259482Y-120905812D01*
X103379180Y-120869502D01*
X103489494Y-120810537D01*
X103586185Y-120731185D01*
X103665537Y-120634494D01*
X103724502Y-120524180D01*
X103760812Y-120404482D01*
X103773072Y-120280000D01*
X103773072Y-118480000D01*
X103760812Y-118355518D01*
X103724502Y-118235820D01*
X103665537Y-118125506D01*
X103586185Y-118028815D01*
X103560897Y-118008061D01*
X121520000Y-118008061D01*
X121520000Y-118211939D01*
X121559774Y-118411898D01*
X121637795Y-118600256D01*
X121751063Y-118769774D01*
X121895226Y-118913937D01*
X122064744Y-119027205D01*
X122253102Y-119105226D01*
X122453061Y-119145000D01*
X122656939Y-119145000D01*
X122856898Y-119105226D01*
X123045256Y-119027205D01*
X123093454Y-118995000D01*
X127096546Y-118995000D01*
X127144744Y-119027205D01*
X127333102Y-119105226D01*
X127533061Y-119145000D01*
X127736939Y-119145000D01*
X127936898Y-119105226D01*
X128125256Y-119027205D01*
X128294774Y-118913937D01*
X128438937Y-118769774D01*
X128552205Y-118600256D01*
X128630226Y-118411898D01*
X128670000Y-118211939D01*
X128670000Y-118008061D01*
X128630226Y-117808102D01*
X128552205Y-117619744D01*
X128438937Y-117450226D01*
X128294774Y-117306063D01*
X128125256Y-117192795D01*
X127936898Y-117114774D01*
X127736939Y-117075000D01*
X127533061Y-117075000D01*
X127333102Y-117114774D01*
X127144744Y-117192795D01*
X127096546Y-117225000D01*
X123093454Y-117225000D01*
X123045256Y-117192795D01*
X122856898Y-117114774D01*
X122656939Y-117075000D01*
X122453061Y-117075000D01*
X122253102Y-117114774D01*
X122064744Y-117192795D01*
X121895226Y-117306063D01*
X121751063Y-117450226D01*
X121637795Y-117619744D01*
X121559774Y-117808102D01*
X121520000Y-118008061D01*
X103560897Y-118008061D01*
X103489494Y-117949463D01*
X103379180Y-117890498D01*
X103259482Y-117854188D01*
X103135000Y-117841928D01*
X101335000Y-117841928D01*
X101210518Y-117854188D01*
X101090820Y-117890498D01*
X100980506Y-117949463D01*
X100883815Y-118028815D01*
X100804463Y-118125506D01*
X100745498Y-118235820D01*
X100709188Y-118355518D01*
X100696928Y-118480000D01*
X95859768Y-118480000D01*
X95807312Y-118401495D01*
X95593505Y-118187688D01*
X95342095Y-118019701D01*
X95062743Y-117903989D01*
X94766184Y-117845000D01*
X94463816Y-117845000D01*
X94167257Y-117903989D01*
X93887905Y-118019701D01*
X93636495Y-118187688D01*
X93422688Y-118401495D01*
X93254701Y-118652905D01*
X93138989Y-118932257D01*
X93080000Y-119228816D01*
X90776319Y-119228816D01*
X90702499Y-119206423D01*
X90535752Y-119190000D01*
X90535751Y-119190000D01*
X90480000Y-119184509D01*
X90424249Y-119190000D01*
X90203072Y-119190000D01*
X90203072Y-119025000D01*
X90190812Y-118900518D01*
X90154502Y-118780820D01*
X90095537Y-118670506D01*
X90016185Y-118573815D01*
X89919494Y-118494463D01*
X89809180Y-118435498D01*
X89689482Y-118399188D01*
X89565000Y-118386928D01*
X86965000Y-118386928D01*
X86840518Y-118399188D01*
X86720820Y-118435498D01*
X86610506Y-118494463D01*
X86513815Y-118573815D01*
X86434463Y-118670506D01*
X86375498Y-118780820D01*
X86339188Y-118900518D01*
X86326928Y-119025000D01*
X80797000Y-119025000D01*
X80797000Y-97013665D01*
X86830000Y-97013665D01*
X86830000Y-97296335D01*
X86885147Y-97573574D01*
X86993320Y-97834727D01*
X87150363Y-98069759D01*
X87350241Y-98269637D01*
X87380000Y-98289521D01*
X87380000Y-98381530D01*
X87375719Y-98425000D01*
X87380000Y-98468469D01*
X87380000Y-98468476D01*
X87392805Y-98598489D01*
X87443411Y-98765312D01*
X87525589Y-98919058D01*
X87636183Y-99053817D01*
X87669954Y-99081532D01*
X95863470Y-107275049D01*
X95891183Y-107308817D01*
X95924951Y-107336530D01*
X95924953Y-107336532D01*
X95996452Y-107395210D01*
X96025941Y-107419411D01*
X96179687Y-107501589D01*
X96295903Y-107536843D01*
X96346509Y-107552195D01*
X96361306Y-107553652D01*
X96476523Y-107565000D01*
X96476531Y-107565000D01*
X96520000Y-107569281D01*
X96563469Y-107565000D01*
X116514196Y-107565000D01*
X116479774Y-107648102D01*
X116440000Y-107848061D01*
X116440000Y-108051939D01*
X116479774Y-108251898D01*
X116514196Y-108335000D01*
X114203454Y-108335000D01*
X114155256Y-108302795D01*
X113966898Y-108224774D01*
X113766939Y-108185000D01*
X113563061Y-108185000D01*
X113363102Y-108224774D01*
X113174744Y-108302795D01*
X113005226Y-108416063D01*
X112861063Y-108560226D01*
X112747795Y-108729744D01*
X112669774Y-108918102D01*
X112630000Y-109118061D01*
X112630000Y-109321939D01*
X112669774Y-109521898D01*
X112704196Y-109605000D01*
X109263469Y-109605000D01*
X109220000Y-109600719D01*
X109176531Y-109605000D01*
X109176523Y-109605000D01*
X109046510Y-109617805D01*
X108879686Y-109668411D01*
X108725941Y-109750589D01*
X108624953Y-109833468D01*
X108624951Y-109833470D01*
X108591183Y-109861183D01*
X108563470Y-109894951D01*
X107989951Y-110468471D01*
X107956184Y-110496183D01*
X107928471Y-110529951D01*
X107928468Y-110529954D01*
X107845590Y-110630941D01*
X107763412Y-110784687D01*
X107712805Y-110951510D01*
X107695719Y-111125000D01*
X107700001Y-111168478D01*
X107700001Y-111260478D01*
X107670241Y-111280363D01*
X107470363Y-111480241D01*
X107315000Y-111712759D01*
X107159637Y-111480241D01*
X106959759Y-111280363D01*
X106724727Y-111123320D01*
X106463574Y-111015147D01*
X106186335Y-110960000D01*
X105903665Y-110960000D01*
X105626426Y-111015147D01*
X105365273Y-111123320D01*
X105130241Y-111280363D01*
X104930363Y-111480241D01*
X104775000Y-111712759D01*
X104619637Y-111480241D01*
X104419759Y-111280363D01*
X104184727Y-111123320D01*
X103923574Y-111015147D01*
X103646335Y-110960000D01*
X103363665Y-110960000D01*
X103086426Y-111015147D01*
X102825273Y-111123320D01*
X102590241Y-111280363D01*
X102390363Y-111480241D01*
X102235000Y-111712759D01*
X102079637Y-111480241D01*
X101879759Y-111280363D01*
X101644727Y-111123320D01*
X101383574Y-111015147D01*
X101106335Y-110960000D01*
X100823665Y-110960000D01*
X100546426Y-111015147D01*
X100285273Y-111123320D01*
X100050241Y-111280363D01*
X99850363Y-111480241D01*
X99695000Y-111712759D01*
X99539637Y-111480241D01*
X99339759Y-111280363D01*
X99104727Y-111123320D01*
X98843574Y-111015147D01*
X98566335Y-110960000D01*
X98283665Y-110960000D01*
X98006426Y-111015147D01*
X97745273Y-111123320D01*
X97510241Y-111280363D01*
X97310363Y-111480241D01*
X97155000Y-111712759D01*
X96999637Y-111480241D01*
X96799759Y-111280363D01*
X96564727Y-111123320D01*
X96303574Y-111015147D01*
X96026335Y-110960000D01*
X95743665Y-110960000D01*
X95466426Y-111015147D01*
X95205273Y-111123320D01*
X94970241Y-111280363D01*
X94770363Y-111480241D01*
X94615000Y-111712759D01*
X94459637Y-111480241D01*
X94259759Y-111280363D01*
X94024727Y-111123320D01*
X93763574Y-111015147D01*
X93486335Y-110960000D01*
X93203665Y-110960000D01*
X92926426Y-111015147D01*
X92665273Y-111123320D01*
X92430241Y-111280363D01*
X92230363Y-111480241D01*
X92075000Y-111712759D01*
X91919637Y-111480241D01*
X91719759Y-111280363D01*
X91484727Y-111123320D01*
X91223574Y-111015147D01*
X90946335Y-110960000D01*
X90663665Y-110960000D01*
X90386426Y-111015147D01*
X90125273Y-111123320D01*
X89890241Y-111280363D01*
X89690363Y-111480241D01*
X89535000Y-111712759D01*
X89379637Y-111480241D01*
X89179759Y-111280363D01*
X88944727Y-111123320D01*
X88683574Y-111015147D01*
X88406335Y-110960000D01*
X88123665Y-110960000D01*
X87846426Y-111015147D01*
X87585273Y-111123320D01*
X87350241Y-111280363D01*
X87150363Y-111480241D01*
X86993320Y-111715273D01*
X86885147Y-111976426D01*
X86830000Y-112253665D01*
X86830000Y-112536335D01*
X86885147Y-112813574D01*
X86993320Y-113074727D01*
X87150363Y-113309759D01*
X87350241Y-113509637D01*
X87585273Y-113666680D01*
X87846426Y-113774853D01*
X88123665Y-113830000D01*
X88406335Y-113830000D01*
X88683574Y-113774853D01*
X88944727Y-113666680D01*
X89179759Y-113509637D01*
X89379637Y-113309759D01*
X89535000Y-113077241D01*
X89690363Y-113309759D01*
X89890241Y-113509637D01*
X90125273Y-113666680D01*
X90386426Y-113774853D01*
X90663665Y-113830000D01*
X90946335Y-113830000D01*
X91223574Y-113774853D01*
X91484727Y-113666680D01*
X91719759Y-113509637D01*
X91919637Y-113309759D01*
X92075000Y-113077241D01*
X92230363Y-113309759D01*
X92430241Y-113509637D01*
X92665273Y-113666680D01*
X92926426Y-113774853D01*
X93203665Y-113830000D01*
X93486335Y-113830000D01*
X93763574Y-113774853D01*
X94024727Y-113666680D01*
X94259759Y-113509637D01*
X94459637Y-113309759D01*
X94615000Y-113077241D01*
X94770363Y-113309759D01*
X94970241Y-113509637D01*
X95205273Y-113666680D01*
X95466426Y-113774853D01*
X95743665Y-113830000D01*
X96026335Y-113830000D01*
X96303574Y-113774853D01*
X96564727Y-113666680D01*
X96799759Y-113509637D01*
X96999637Y-113309759D01*
X97155000Y-113077241D01*
X97310363Y-113309759D01*
X97510241Y-113509637D01*
X97745273Y-113666680D01*
X98006426Y-113774853D01*
X98283665Y-113830000D01*
X98566335Y-113830000D01*
X98843574Y-113774853D01*
X99104727Y-113666680D01*
X99339759Y-113509637D01*
X99539637Y-113309759D01*
X99695000Y-113077241D01*
X99850363Y-113309759D01*
X100050241Y-113509637D01*
X100285273Y-113666680D01*
X100546426Y-113774853D01*
X100823665Y-113830000D01*
X101106335Y-113830000D01*
X101383574Y-113774853D01*
X101644727Y-113666680D01*
X101879759Y-113509637D01*
X102079637Y-113309759D01*
X102235000Y-113077241D01*
X102390363Y-113309759D01*
X102590241Y-113509637D01*
X102825273Y-113666680D01*
X103086426Y-113774853D01*
X103363665Y-113830000D01*
X103646335Y-113830000D01*
X103923574Y-113774853D01*
X104184727Y-113666680D01*
X104419759Y-113509637D01*
X104619637Y-113309759D01*
X104775000Y-113077241D01*
X104930363Y-113309759D01*
X105130241Y-113509637D01*
X105365273Y-113666680D01*
X105626426Y-113774853D01*
X105903665Y-113830000D01*
X106186335Y-113830000D01*
X106463574Y-113774853D01*
X106724727Y-113666680D01*
X106959759Y-113509637D01*
X107159637Y-113309759D01*
X107315000Y-113077241D01*
X107470363Y-113309759D01*
X107670241Y-113509637D01*
X107905273Y-113666680D01*
X108166426Y-113774853D01*
X108443665Y-113830000D01*
X108726335Y-113830000D01*
X109003574Y-113774853D01*
X109264727Y-113666680D01*
X109499759Y-113509637D01*
X109699637Y-113309759D01*
X109855000Y-113077241D01*
X110010363Y-113309759D01*
X110210241Y-113509637D01*
X110445273Y-113666680D01*
X110706426Y-113774853D01*
X110983665Y-113830000D01*
X111266335Y-113830000D01*
X111543574Y-113774853D01*
X111804727Y-113666680D01*
X112039759Y-113509637D01*
X112239637Y-113309759D01*
X112395000Y-113077241D01*
X112550363Y-113309759D01*
X112750241Y-113509637D01*
X112985273Y-113666680D01*
X113246426Y-113774853D01*
X113523665Y-113830000D01*
X113806335Y-113830000D01*
X114083574Y-113774853D01*
X114344727Y-113666680D01*
X114579759Y-113509637D01*
X114779637Y-113309759D01*
X114935000Y-113077241D01*
X115090363Y-113309759D01*
X115290241Y-113509637D01*
X115525273Y-113666680D01*
X115786426Y-113774853D01*
X116063665Y-113830000D01*
X116346335Y-113830000D01*
X116623574Y-113774853D01*
X116884727Y-113666680D01*
X117119759Y-113509637D01*
X117319637Y-113309759D01*
X117475000Y-113077241D01*
X117630363Y-113309759D01*
X117830241Y-113509637D01*
X118065273Y-113666680D01*
X118326426Y-113774853D01*
X118603665Y-113830000D01*
X118886335Y-113830000D01*
X119163574Y-113774853D01*
X119424727Y-113666680D01*
X119659759Y-113509637D01*
X119859637Y-113309759D01*
X120016680Y-113074727D01*
X120021067Y-113064135D01*
X120132615Y-113250131D01*
X120321586Y-113458519D01*
X120547580Y-113626037D01*
X120801913Y-113746246D01*
X120935961Y-113786904D01*
X121158000Y-113664915D01*
X121158000Y-112522000D01*
X121138000Y-112522000D01*
X121138000Y-112268000D01*
X121158000Y-112268000D01*
X121158000Y-112248000D01*
X121412000Y-112248000D01*
X121412000Y-112268000D01*
X121432000Y-112268000D01*
X121432000Y-112522000D01*
X121412000Y-112522000D01*
X121412000Y-113664915D01*
X121634039Y-113786904D01*
X121768087Y-113746246D01*
X122022420Y-113626037D01*
X122248414Y-113458519D01*
X122437385Y-113250131D01*
X122548933Y-113064135D01*
X122553320Y-113074727D01*
X122710363Y-113309759D01*
X122910241Y-113509637D01*
X123145273Y-113666680D01*
X123406426Y-113774853D01*
X123683665Y-113830000D01*
X123966335Y-113830000D01*
X124243574Y-113774853D01*
X124504727Y-113666680D01*
X124739759Y-113509637D01*
X124939637Y-113309759D01*
X125096680Y-113074727D01*
X125204853Y-112813574D01*
X125260000Y-112536335D01*
X125260000Y-112253665D01*
X125204853Y-111976426D01*
X125116469Y-111763047D01*
X125708470Y-112355049D01*
X125736183Y-112388817D01*
X125769951Y-112416530D01*
X125769953Y-112416532D01*
X125841452Y-112475210D01*
X125870941Y-112499411D01*
X126024687Y-112581589D01*
X126191510Y-112632195D01*
X126321523Y-112645000D01*
X126321533Y-112645000D01*
X126364999Y-112649281D01*
X126408465Y-112645000D01*
X132204962Y-112645000D01*
X132194188Y-112680518D01*
X132181928Y-112805000D01*
X132181928Y-114605000D01*
X132194188Y-114729482D01*
X132230498Y-114849180D01*
X132289463Y-114959494D01*
X132368815Y-115056185D01*
X132465506Y-115135537D01*
X132565303Y-115188880D01*
X132527688Y-115226495D01*
X132359701Y-115477905D01*
X132243989Y-115757257D01*
X132185000Y-116053816D01*
X132185000Y-116356184D01*
X132243989Y-116652743D01*
X132359701Y-116932095D01*
X132527688Y-117183505D01*
X132741495Y-117397312D01*
X132992905Y-117565299D01*
X133272257Y-117681011D01*
X133568816Y-117740000D01*
X133871184Y-117740000D01*
X134167743Y-117681011D01*
X134447095Y-117565299D01*
X134698505Y-117397312D01*
X134912312Y-117183505D01*
X134970000Y-117097169D01*
X135027688Y-117183505D01*
X135241495Y-117397312D01*
X135492905Y-117565299D01*
X135772257Y-117681011D01*
X136068816Y-117740000D01*
X136371184Y-117740000D01*
X136667743Y-117681011D01*
X136947095Y-117565299D01*
X137198505Y-117397312D01*
X137412312Y-117183505D01*
X137470000Y-117097169D01*
X137527688Y-117183505D01*
X137741495Y-117397312D01*
X137992905Y-117565299D01*
X138272257Y-117681011D01*
X138568816Y-117740000D01*
X138871184Y-117740000D01*
X139167743Y-117681011D01*
X139447095Y-117565299D01*
X139698505Y-117397312D01*
X139912312Y-117183505D01*
X140080299Y-116932095D01*
X140196011Y-116652743D01*
X140255000Y-116356184D01*
X140255000Y-116053816D01*
X140196011Y-115757257D01*
X140080299Y-115477905D01*
X139912312Y-115226495D01*
X139698505Y-115012688D01*
X139555690Y-114917262D01*
X139604475Y-114769080D01*
X138720000Y-113884605D01*
X137835525Y-114769080D01*
X137884310Y-114917262D01*
X137741495Y-115012688D01*
X137527688Y-115226495D01*
X137470000Y-115312831D01*
X137412312Y-115226495D01*
X137198505Y-115012688D01*
X137112169Y-114955000D01*
X137198505Y-114897312D01*
X137412312Y-114683505D01*
X137507738Y-114540690D01*
X137655920Y-114589475D01*
X138540395Y-113705000D01*
X138526253Y-113690858D01*
X138705858Y-113511253D01*
X138720000Y-113525395D01*
X138734143Y-113511253D01*
X138913748Y-113690858D01*
X138899605Y-113705000D01*
X139784080Y-114589475D01*
X140038261Y-114505792D01*
X140169158Y-114233225D01*
X140244365Y-113940358D01*
X140260991Y-113638447D01*
X140218397Y-113339093D01*
X140118222Y-113053801D01*
X140038261Y-112904208D01*
X139784082Y-112820526D01*
X139900030Y-112704578D01*
X139840452Y-112645000D01*
X147444962Y-112645000D01*
X147434188Y-112680518D01*
X147421928Y-112805000D01*
X147421928Y-114605000D01*
X147434188Y-114729482D01*
X147470498Y-114849180D01*
X147529463Y-114959494D01*
X147608815Y-115056185D01*
X147705506Y-115135537D01*
X147805303Y-115188880D01*
X147767688Y-115226495D01*
X147599701Y-115477905D01*
X147483989Y-115757257D01*
X147425000Y-116053816D01*
X147425000Y-116356184D01*
X147483989Y-116652743D01*
X147599701Y-116932095D01*
X147767688Y-117183505D01*
X147809183Y-117225000D01*
X144048454Y-117225000D01*
X144000256Y-117192795D01*
X143811898Y-117114774D01*
X143611939Y-117075000D01*
X143408061Y-117075000D01*
X143208102Y-117114774D01*
X143019744Y-117192795D01*
X142850226Y-117306063D01*
X142706063Y-117450226D01*
X142592795Y-117619744D01*
X142514774Y-117808102D01*
X142475000Y-118008061D01*
X142475000Y-118211939D01*
X142514774Y-118411898D01*
X142592795Y-118600256D01*
X142706063Y-118769774D01*
X142850226Y-118913937D01*
X143019744Y-119027205D01*
X143208102Y-119105226D01*
X143408061Y-119145000D01*
X143611939Y-119145000D01*
X143811898Y-119105226D01*
X144000256Y-119027205D01*
X144048454Y-118995000D01*
X161246531Y-118995000D01*
X161290000Y-118999281D01*
X161333469Y-118995000D01*
X161333477Y-118995000D01*
X161463490Y-118982195D01*
X161630313Y-118931589D01*
X161784059Y-118849411D01*
X161918817Y-118738817D01*
X161946534Y-118705044D01*
X162520050Y-118131529D01*
X162553817Y-118103817D01*
X162581533Y-118070046D01*
X162664411Y-117969059D01*
X162746589Y-117815314D01*
X162797195Y-117648490D01*
X162805388Y-117565299D01*
X162810000Y-117518477D01*
X162810000Y-117518469D01*
X162814281Y-117475000D01*
X162810000Y-117431531D01*
X162810000Y-116860391D01*
X162839701Y-116932095D01*
X163007688Y-117183505D01*
X163221495Y-117397312D01*
X163472905Y-117565299D01*
X163752257Y-117681011D01*
X164048816Y-117740000D01*
X164351184Y-117740000D01*
X164647743Y-117681011D01*
X164927095Y-117565299D01*
X165178505Y-117397312D01*
X165392312Y-117183505D01*
X165450000Y-117097169D01*
X165507688Y-117183505D01*
X165721495Y-117397312D01*
X165972905Y-117565299D01*
X166252257Y-117681011D01*
X166548816Y-117740000D01*
X166851184Y-117740000D01*
X167147743Y-117681011D01*
X167427095Y-117565299D01*
X167678505Y-117397312D01*
X167892312Y-117183505D01*
X167950000Y-117097169D01*
X168007688Y-117183505D01*
X168221495Y-117397312D01*
X168472905Y-117565299D01*
X168752257Y-117681011D01*
X169048816Y-117740000D01*
X169351184Y-117740000D01*
X169647743Y-117681011D01*
X169927095Y-117565299D01*
X169934148Y-117560586D01*
X169942805Y-117648490D01*
X169993412Y-117815313D01*
X170075590Y-117969059D01*
X170158468Y-118070046D01*
X170158469Y-118070047D01*
X170186184Y-118103817D01*
X170219951Y-118131529D01*
X171200000Y-119111579D01*
X171200000Y-119365145D01*
X170954463Y-119201082D01*
X170656912Y-119077832D01*
X170341033Y-119015000D01*
X170018967Y-119015000D01*
X169703088Y-119077832D01*
X169405537Y-119201082D01*
X169137748Y-119380013D01*
X168910013Y-119607748D01*
X168731082Y-119875537D01*
X168607832Y-120173088D01*
X168545000Y-120488967D01*
X168545000Y-120811033D01*
X168607832Y-121126912D01*
X168731082Y-121424463D01*
X168910013Y-121692252D01*
X169137748Y-121919987D01*
X169148590Y-121927232D01*
X164712263Y-121926661D01*
X164722252Y-121919987D01*
X164949987Y-121692252D01*
X165128918Y-121424463D01*
X165252168Y-121126912D01*
X165315000Y-120811033D01*
X165315000Y-120488967D01*
X165252168Y-120173088D01*
X165128918Y-119875537D01*
X164949987Y-119607748D01*
X164722252Y-119380013D01*
X164454463Y-119201082D01*
X164156912Y-119077832D01*
X163841033Y-119015000D01*
X163518967Y-119015000D01*
X163203088Y-119077832D01*
X162905537Y-119201082D01*
X162637748Y-119380013D01*
X162410013Y-119607748D01*
X162231082Y-119875537D01*
X162107832Y-120173088D01*
X162045000Y-120488967D01*
X162045000Y-120811033D01*
X162107832Y-121126912D01*
X162231082Y-121424463D01*
X162410013Y-121692252D01*
X162637748Y-121919987D01*
X162647339Y-121926396D01*
X155973945Y-121925538D01*
X155982252Y-121919987D01*
X156209987Y-121692252D01*
X156388918Y-121424463D01*
X156512168Y-121126912D01*
X156575000Y-120811033D01*
X156575000Y-120488967D01*
X156512168Y-120173088D01*
X156388918Y-119875537D01*
X156209987Y-119607748D01*
X155982252Y-119380013D01*
X155714463Y-119201082D01*
X155416912Y-119077832D01*
X155101033Y-119015000D01*
X154778967Y-119015000D01*
X154463088Y-119077832D01*
X154165537Y-119201082D01*
X153897748Y-119380013D01*
X153670013Y-119607748D01*
X153491082Y-119875537D01*
X153367832Y-120173088D01*
X153305000Y-120488967D01*
X153305000Y-120811033D01*
X153367832Y-121126912D01*
X153491082Y-121424463D01*
X153670013Y-121692252D01*
X153897748Y-121919987D01*
X153905657Y-121925272D01*
X149475195Y-121924702D01*
X149482252Y-121919987D01*
X149709987Y-121692252D01*
X149888918Y-121424463D01*
X150012168Y-121126912D01*
X150075000Y-120811033D01*
X150075000Y-120488967D01*
X150012168Y-120173088D01*
X149888918Y-119875537D01*
X149709987Y-119607748D01*
X149482252Y-119380013D01*
X149214463Y-119201082D01*
X148916912Y-119077832D01*
X148601033Y-119015000D01*
X148278967Y-119015000D01*
X147963088Y-119077832D01*
X147665537Y-119201082D01*
X147397748Y-119380013D01*
X147170013Y-119607748D01*
X146991082Y-119875537D01*
X146867832Y-120173088D01*
X146805000Y-120488967D01*
X146805000Y-120811033D01*
X146867832Y-121126912D01*
X146991082Y-121424463D01*
X147170013Y-121692252D01*
X147397748Y-121919987D01*
X147404406Y-121924436D01*
X144356177Y-121924044D01*
X142245892Y-120035896D01*
X142233817Y-120021183D01*
X142181026Y-119977858D01*
X142162712Y-119961472D01*
X142147462Y-119950312D01*
X142099059Y-119910589D01*
X142077239Y-119898926D01*
X142057283Y-119884323D01*
X142000528Y-119857924D01*
X141945313Y-119828411D01*
X141921642Y-119821230D01*
X141899216Y-119810799D01*
X141838404Y-119795980D01*
X141778490Y-119777805D01*
X141753869Y-119775380D01*
X141729842Y-119769525D01*
X141712591Y-119768788D01*
X141604987Y-119607748D01*
X141377252Y-119380013D01*
X141109463Y-119201082D01*
X140811912Y-119077832D01*
X140496033Y-119015000D01*
X140173967Y-119015000D01*
X139858088Y-119077832D01*
X139560537Y-119201082D01*
X139292748Y-119380013D01*
X139065013Y-119607748D01*
X138959941Y-119765000D01*
X135210059Y-119765000D01*
X135104987Y-119607748D01*
X134877252Y-119380013D01*
X134609463Y-119201082D01*
X134311912Y-119077832D01*
X133996033Y-119015000D01*
X133673967Y-119015000D01*
X133358088Y-119077832D01*
X133060537Y-119201082D01*
X132792748Y-119380013D01*
X132565013Y-119607748D01*
X132386082Y-119875537D01*
X132262832Y-120173088D01*
X132200000Y-120488967D01*
X132200000Y-120811033D01*
X132262832Y-121126912D01*
X132386082Y-121424463D01*
X132565013Y-121692252D01*
X132792748Y-121919987D01*
X133060537Y-122098918D01*
X133358088Y-122222168D01*
X133673967Y-122285000D01*
X133996033Y-122285000D01*
X134311912Y-122222168D01*
X134609463Y-122098918D01*
X134877252Y-121919987D01*
X135104987Y-121692252D01*
X135210059Y-121535000D01*
X138959941Y-121535000D01*
X139065013Y-121692252D01*
X139292748Y-121919987D01*
X139560537Y-122098918D01*
X139858088Y-122222168D01*
X140173967Y-122285000D01*
X140496033Y-122285000D01*
X140811912Y-122222168D01*
X141109463Y-122098918D01*
X141377252Y-121919987D01*
X141528316Y-121768923D01*
X143377072Y-123423073D01*
X143389103Y-123437736D01*
X143441910Y-123481086D01*
X143460287Y-123497528D01*
X143475508Y-123508666D01*
X143523846Y-123548347D01*
X143545708Y-123560036D01*
X143565716Y-123574677D01*
X143622429Y-123601057D01*
X143677582Y-123630545D01*
X143701305Y-123637745D01*
X143723783Y-123648200D01*
X143784545Y-123663007D01*
X143844398Y-123681172D01*
X143869070Y-123683605D01*
X143893157Y-123689475D01*
X143955642Y-123692143D01*
X143974410Y-123693994D01*
X143999064Y-123693997D01*
X144067328Y-123696912D01*
X144086074Y-123694008D01*
X147684192Y-123694471D01*
X147579956Y-123750186D01*
X147484192Y-124014587D01*
X148440000Y-124970395D01*
X149395808Y-124014587D01*
X149300044Y-123750186D01*
X149185913Y-123694664D01*
X154182629Y-123695307D01*
X154079956Y-123750186D01*
X153984192Y-124014587D01*
X154940000Y-124970395D01*
X155895808Y-124014587D01*
X155800044Y-123750186D01*
X155687631Y-123695500D01*
X162920527Y-123696430D01*
X162819956Y-123750186D01*
X162724192Y-124014587D01*
X163680000Y-124970395D01*
X164635808Y-124014587D01*
X164540044Y-123750186D01*
X164429941Y-123696624D01*
X169418964Y-123697265D01*
X169319956Y-123750186D01*
X169224192Y-124014587D01*
X170180000Y-124970395D01*
X171135808Y-124014587D01*
X171040044Y-123750186D01*
X170931660Y-123697460D01*
X171155963Y-123697489D01*
X171199495Y-123701776D01*
X171286715Y-123693186D01*
X171372872Y-123684712D01*
X171372925Y-123684696D01*
X171372985Y-123684690D01*
X171457792Y-123658963D01*
X171539702Y-123634127D01*
X171539753Y-123634100D01*
X171539808Y-123634083D01*
X171616489Y-123593097D01*
X171693458Y-123551969D01*
X171693502Y-123551933D01*
X171693554Y-123551905D01*
X171765472Y-123492883D01*
X171828230Y-123441392D01*
X171855980Y-123407588D01*
X172680049Y-122583520D01*
X172713817Y-122555807D01*
X172824411Y-122421049D01*
X172906589Y-122267303D01*
X172957195Y-122100480D01*
X172970000Y-121970467D01*
X172970000Y-121970457D01*
X172974281Y-121926991D01*
X172970000Y-121883525D01*
X172970000Y-118788465D01*
X172974281Y-118744999D01*
X172970000Y-118701533D01*
X172970000Y-118701523D01*
X172957195Y-118571510D01*
X172906589Y-118404687D01*
X172824411Y-118250941D01*
X172713817Y-118116183D01*
X172680050Y-118088471D01*
X171700000Y-117108422D01*
X171700000Y-111803466D01*
X171704281Y-111759999D01*
X171700000Y-111716533D01*
X171700000Y-111716523D01*
X171687195Y-111586510D01*
X171636589Y-111419687D01*
X171554411Y-111265941D01*
X171524431Y-111229410D01*
X171471532Y-111164953D01*
X171471530Y-111164951D01*
X171443817Y-111131183D01*
X171410050Y-111103471D01*
X168525000Y-108218422D01*
X168525000Y-99103469D01*
X168529281Y-99060000D01*
X168525000Y-99016531D01*
X168525000Y-99016523D01*
X168512195Y-98886510D01*
X168475430Y-98765313D01*
X168461589Y-98719686D01*
X168379411Y-98565941D01*
X168296532Y-98464953D01*
X168296530Y-98464951D01*
X168268817Y-98431183D01*
X168235050Y-98403471D01*
X168011535Y-98179956D01*
X168000226Y-98123102D01*
X167922205Y-97934744D01*
X167808937Y-97765226D01*
X167664774Y-97621063D01*
X167495256Y-97507795D01*
X167306898Y-97429774D01*
X167106939Y-97390000D01*
X166903061Y-97390000D01*
X166703102Y-97429774D01*
X166514744Y-97507795D01*
X166345226Y-97621063D01*
X166201063Y-97765226D01*
X166087795Y-97934744D01*
X166009774Y-98123102D01*
X165985000Y-98247650D01*
X165985000Y-96423454D01*
X166017205Y-96375256D01*
X166095226Y-96186898D01*
X166135000Y-95986939D01*
X166135000Y-95783061D01*
X166095226Y-95583102D01*
X166017205Y-95394744D01*
X165903937Y-95225226D01*
X165759774Y-95081063D01*
X165590256Y-94967795D01*
X165401898Y-94889774D01*
X165201939Y-94850000D01*
X164998061Y-94850000D01*
X164798102Y-94889774D01*
X164715000Y-94924196D01*
X164715000Y-88943469D01*
X164719281Y-88900000D01*
X164715000Y-88856531D01*
X164715000Y-88856523D01*
X164702195Y-88726510D01*
X164665430Y-88605313D01*
X164651589Y-88559686D01*
X164569411Y-88405941D01*
X164486532Y-88304953D01*
X164486530Y-88304951D01*
X164458817Y-88271183D01*
X164425050Y-88243471D01*
X163851534Y-87669956D01*
X163823817Y-87636183D01*
X163689059Y-87525589D01*
X163535313Y-87443411D01*
X163368490Y-87392805D01*
X163238477Y-87380000D01*
X163238469Y-87380000D01*
X163195000Y-87375719D01*
X163151531Y-87380000D01*
X153078469Y-87380000D01*
X153035000Y-87375719D01*
X152991531Y-87380000D01*
X152991523Y-87380000D01*
X152861510Y-87392805D01*
X152694686Y-87443411D01*
X152540941Y-87525589D01*
X152439953Y-87608468D01*
X152439951Y-87608470D01*
X152406183Y-87636183D01*
X152378470Y-87669951D01*
X151804951Y-88243471D01*
X151771184Y-88271183D01*
X151743471Y-88304951D01*
X151743468Y-88304954D01*
X151660590Y-88405941D01*
X151578412Y-88559687D01*
X151527805Y-88726510D01*
X151510719Y-88900000D01*
X151515001Y-88943476D01*
X151515001Y-88975343D01*
X151453368Y-89016525D01*
X151246525Y-89223368D01*
X151130000Y-89397760D01*
X151013475Y-89223368D01*
X150806632Y-89016525D01*
X150745000Y-88975344D01*
X150745000Y-88943469D01*
X150749281Y-88900000D01*
X150745000Y-88856531D01*
X150745000Y-88856523D01*
X150732195Y-88726510D01*
X150695430Y-88605313D01*
X150681589Y-88559686D01*
X150599411Y-88405941D01*
X150516532Y-88304953D01*
X150516530Y-88304951D01*
X150488817Y-88271183D01*
X150455050Y-88243471D01*
X149881534Y-87669956D01*
X149853817Y-87636183D01*
X149719059Y-87525589D01*
X149565313Y-87443411D01*
X149398490Y-87392805D01*
X149268477Y-87380000D01*
X149268469Y-87380000D01*
X149225000Y-87375719D01*
X149181531Y-87380000D01*
X140378465Y-87380000D01*
X140334999Y-87375719D01*
X140291533Y-87380000D01*
X140291523Y-87380000D01*
X140161510Y-87392805D01*
X139994687Y-87443411D01*
X139840941Y-87525589D01*
X139840939Y-87525590D01*
X139840940Y-87525590D01*
X139739953Y-87608468D01*
X139739951Y-87608470D01*
X139706183Y-87636183D01*
X139678470Y-87669951D01*
X138819957Y-88528465D01*
X138763102Y-88539774D01*
X138574744Y-88617795D01*
X138405226Y-88731063D01*
X138261063Y-88875226D01*
X138147795Y-89044744D01*
X138069774Y-89233102D01*
X138030000Y-89433061D01*
X138030000Y-89636939D01*
X138069774Y-89836898D01*
X138104196Y-89920000D01*
X136891579Y-89920000D01*
X136261535Y-89289957D01*
X136250226Y-89233102D01*
X136172205Y-89044744D01*
X136058937Y-88875226D01*
X135914774Y-88731063D01*
X135745256Y-88617795D01*
X135556898Y-88539774D01*
X135356939Y-88500000D01*
X135153061Y-88500000D01*
X134953102Y-88539774D01*
X134764744Y-88617795D01*
X134595226Y-88731063D01*
X134451063Y-88875226D01*
X134337795Y-89044744D01*
X134259774Y-89233102D01*
X134220000Y-89433061D01*
X134220000Y-89636939D01*
X134259774Y-89836898D01*
X134337795Y-90025256D01*
X134451063Y-90194774D01*
X134595226Y-90338937D01*
X134764744Y-90452205D01*
X134953102Y-90530226D01*
X135009957Y-90541535D01*
X135868470Y-91400049D01*
X135896183Y-91433817D01*
X135929951Y-91461530D01*
X135929953Y-91461532D01*
X136001452Y-91520210D01*
X136030941Y-91544411D01*
X136184687Y-91626589D01*
X136351510Y-91677195D01*
X136481523Y-91690000D01*
X136481533Y-91690000D01*
X136524999Y-91694281D01*
X136568465Y-91690000D01*
X142196531Y-91690000D01*
X142240000Y-91694281D01*
X142283469Y-91690000D01*
X142283477Y-91690000D01*
X142413490Y-91677195D01*
X142580313Y-91626589D01*
X142734059Y-91544411D01*
X142868817Y-91433817D01*
X142896534Y-91400044D01*
X143241579Y-91055000D01*
X143295375Y-91055000D01*
X143304188Y-91144482D01*
X143340498Y-91264180D01*
X143399463Y-91374494D01*
X143453222Y-91440000D01*
X143399463Y-91505506D01*
X143340498Y-91615820D01*
X143304188Y-91735518D01*
X143291928Y-91860000D01*
X143291928Y-93560000D01*
X143304188Y-93684482D01*
X143340498Y-93804180D01*
X143399463Y-93914494D01*
X143453222Y-93980000D01*
X143399463Y-94045506D01*
X143340498Y-94155820D01*
X143304188Y-94275518D01*
X143291928Y-94400000D01*
X143295000Y-94964250D01*
X143453750Y-95123000D01*
X144653000Y-95123000D01*
X144653000Y-95103000D01*
X144907000Y-95103000D01*
X144907000Y-95123000D01*
X147193000Y-95123000D01*
X147193000Y-95103000D01*
X147447000Y-95103000D01*
X147447000Y-95123000D01*
X149733000Y-95123000D01*
X149733000Y-95103000D01*
X149987000Y-95103000D01*
X149987000Y-95123000D01*
X152273000Y-95123000D01*
X152273000Y-95103000D01*
X152527000Y-95103000D01*
X152527000Y-95123000D01*
X154813000Y-95123000D01*
X154813000Y-95103000D01*
X155067000Y-95103000D01*
X155067000Y-95123000D01*
X157353000Y-95123000D01*
X157353000Y-95103000D01*
X157607000Y-95103000D01*
X157607000Y-95123000D01*
X158800814Y-95123000D01*
X158921481Y-94893109D01*
X158824157Y-94618748D01*
X158675178Y-94368645D01*
X158480269Y-94152412D01*
X158250594Y-93981100D01*
X158426632Y-93863475D01*
X158633475Y-93656632D01*
X158795990Y-93413411D01*
X158907932Y-93143158D01*
X158965000Y-92856260D01*
X158965000Y-92563740D01*
X158907932Y-92276842D01*
X158795990Y-92006589D01*
X158633475Y-91763368D01*
X158426632Y-91556525D01*
X158252240Y-91440000D01*
X158426632Y-91323475D01*
X158633475Y-91116632D01*
X158674656Y-91055000D01*
X159653422Y-91055000D01*
X159770001Y-91171580D01*
X159770000Y-96194196D01*
X159686898Y-96159774D01*
X159486939Y-96120000D01*
X159283061Y-96120000D01*
X159083102Y-96159774D01*
X158894744Y-96237795D01*
X158846546Y-96270000D01*
X158550206Y-96270000D01*
X158675178Y-96131355D01*
X158824157Y-95881252D01*
X158921481Y-95606891D01*
X158800814Y-95377000D01*
X157607000Y-95377000D01*
X157607000Y-95397000D01*
X157353000Y-95397000D01*
X157353000Y-95377000D01*
X155067000Y-95377000D01*
X155067000Y-95397000D01*
X154813000Y-95397000D01*
X154813000Y-95377000D01*
X152527000Y-95377000D01*
X152527000Y-95397000D01*
X152273000Y-95397000D01*
X152273000Y-95377000D01*
X149987000Y-95377000D01*
X149987000Y-95397000D01*
X149733000Y-95397000D01*
X149733000Y-95377000D01*
X147447000Y-95377000D01*
X147447000Y-95397000D01*
X147193000Y-95397000D01*
X147193000Y-95377000D01*
X144907000Y-95377000D01*
X144907000Y-95397000D01*
X144653000Y-95397000D01*
X144653000Y-95377000D01*
X143453750Y-95377000D01*
X143295000Y-95535750D01*
X143291928Y-96100000D01*
X143304188Y-96224482D01*
X143317996Y-96270000D01*
X141295804Y-96270000D01*
X141330226Y-96186898D01*
X141370000Y-95986939D01*
X141370000Y-95783061D01*
X141330226Y-95583102D01*
X141252205Y-95394744D01*
X141138937Y-95225226D01*
X140994774Y-95081063D01*
X140825256Y-94967795D01*
X140636898Y-94889774D01*
X140436939Y-94850000D01*
X140233061Y-94850000D01*
X140033102Y-94889774D01*
X139844744Y-94967795D01*
X139796546Y-95000000D01*
X136891579Y-95000000D01*
X132451535Y-90559957D01*
X132440226Y-90503102D01*
X132362205Y-90314744D01*
X132248937Y-90145226D01*
X132104774Y-90001063D01*
X131935256Y-89887795D01*
X131746898Y-89809774D01*
X131546939Y-89770000D01*
X131343061Y-89770000D01*
X131143102Y-89809774D01*
X131060000Y-89844196D01*
X131060000Y-89578469D01*
X131064281Y-89535000D01*
X131060000Y-89491531D01*
X131060000Y-89491523D01*
X131047195Y-89361510D01*
X131010430Y-89240313D01*
X130996589Y-89194686D01*
X130914411Y-89040941D01*
X130831532Y-88939953D01*
X130831530Y-88939951D01*
X130803817Y-88906183D01*
X130770049Y-88878470D01*
X130196532Y-88304954D01*
X130168817Y-88271183D01*
X130034059Y-88160589D01*
X129880313Y-88078411D01*
X129713490Y-88027805D01*
X129583477Y-88015000D01*
X129583469Y-88015000D01*
X129540000Y-88010719D01*
X129496531Y-88015000D01*
X129123539Y-88015000D01*
X129265351Y-87884670D01*
X129419792Y-87673392D01*
X129530047Y-87436044D01*
X129562716Y-87328329D01*
X129439374Y-87122000D01*
X128397000Y-87122000D01*
X128397000Y-87142000D01*
X128143000Y-87142000D01*
X128143000Y-87122000D01*
X127100626Y-87122000D01*
X126977284Y-87328329D01*
X127009953Y-87436044D01*
X127120208Y-87673392D01*
X127274649Y-87884670D01*
X127416461Y-88015000D01*
X121517975Y-88015000D01*
X121686962Y-87846013D01*
X121833061Y-87627359D01*
X121933696Y-87384405D01*
X121985000Y-87126486D01*
X121985000Y-86863514D01*
X121944851Y-86661671D01*
X126977284Y-86661671D01*
X127100626Y-86868000D01*
X128143000Y-86868000D01*
X128143000Y-85824799D01*
X128397000Y-85824799D01*
X128397000Y-86868000D01*
X129439374Y-86868000D01*
X129562716Y-86661671D01*
X129530047Y-86553956D01*
X129419792Y-86316608D01*
X129265351Y-86105330D01*
X129072660Y-85928241D01*
X128849123Y-85792147D01*
X128603330Y-85702278D01*
X128397000Y-85824799D01*
X128143000Y-85824799D01*
X127936670Y-85702278D01*
X127690877Y-85792147D01*
X127467340Y-85928241D01*
X127274649Y-86105330D01*
X127120208Y-86316608D01*
X127009953Y-86553956D01*
X126977284Y-86661671D01*
X121944851Y-86661671D01*
X121933696Y-86605595D01*
X121833061Y-86362641D01*
X121686962Y-86143987D01*
X121501013Y-85958038D01*
X121282359Y-85811939D01*
X121039405Y-85711304D01*
X120781486Y-85660000D01*
X120518514Y-85660000D01*
X120260595Y-85711304D01*
X120017641Y-85811939D01*
X119798987Y-85958038D01*
X119647025Y-86110000D01*
X119423469Y-86110000D01*
X119380000Y-86105719D01*
X119336531Y-86110000D01*
X119336523Y-86110000D01*
X119206510Y-86122805D01*
X119039687Y-86173411D01*
X118954285Y-86219059D01*
X118885941Y-86255589D01*
X118784953Y-86338468D01*
X118784951Y-86338470D01*
X118751183Y-86366183D01*
X118723470Y-86399951D01*
X117108422Y-88015000D01*
X116473072Y-88015000D01*
X116473072Y-88000000D01*
X116460812Y-87875518D01*
X116424502Y-87755820D01*
X116365537Y-87645506D01*
X116286185Y-87548815D01*
X116189494Y-87469463D01*
X116079180Y-87410498D01*
X115959482Y-87374188D01*
X115835000Y-87361928D01*
X115820000Y-87361928D01*
X115820000Y-86403469D01*
X115824281Y-86360000D01*
X115820000Y-86316531D01*
X115820000Y-86316523D01*
X115807195Y-86186510D01*
X115770430Y-86065313D01*
X115756589Y-86019686D01*
X115674411Y-85865941D01*
X115591532Y-85764953D01*
X115591530Y-85764951D01*
X115563817Y-85731183D01*
X115530049Y-85703470D01*
X114956534Y-85129956D01*
X114928817Y-85096183D01*
X114794059Y-84985589D01*
X114640313Y-84903411D01*
X114473490Y-84852805D01*
X114343477Y-84840000D01*
X114343469Y-84840000D01*
X114300000Y-84835719D01*
X114256531Y-84840000D01*
X107358476Y-84840000D01*
X107315000Y-84835718D01*
X107271523Y-84840000D01*
X100373469Y-84840000D01*
X100330000Y-84835719D01*
X100286531Y-84840000D01*
X100286523Y-84840000D01*
X100156510Y-84852805D01*
X99989686Y-84903411D01*
X99835941Y-84985589D01*
X99734953Y-85068468D01*
X99734951Y-85068470D01*
X99701183Y-85096183D01*
X99673470Y-85129951D01*
X99099956Y-85703466D01*
X99066183Y-85731183D01*
X98955589Y-85865942D01*
X98873411Y-86019688D01*
X98846015Y-86110000D01*
X98826779Y-86173412D01*
X98822805Y-86186511D01*
X98810000Y-86316524D01*
X98810000Y-86316531D01*
X98805719Y-86360000D01*
X98810000Y-86403469D01*
X98810000Y-87361928D01*
X98795000Y-87361928D01*
X98670518Y-87374188D01*
X98550820Y-87410498D01*
X98440506Y-87469463D01*
X98343815Y-87548815D01*
X98264463Y-87645506D01*
X98205498Y-87755820D01*
X98199944Y-87774127D01*
X98133505Y-87707688D01*
X97882095Y-87539701D01*
X97602743Y-87423989D01*
X97306184Y-87365000D01*
X97003816Y-87365000D01*
X96707257Y-87423989D01*
X96427905Y-87539701D01*
X96176495Y-87707688D01*
X95962688Y-87921495D01*
X95794701Y-88172905D01*
X95678989Y-88452257D01*
X95620000Y-88748816D01*
X95620000Y-89051184D01*
X95678989Y-89347743D01*
X95794701Y-89627095D01*
X95962688Y-89878505D01*
X96176495Y-90092312D01*
X96427905Y-90260299D01*
X96707257Y-90376011D01*
X97003816Y-90435000D01*
X97306184Y-90435000D01*
X97602743Y-90376011D01*
X97882095Y-90260299D01*
X98133505Y-90092312D01*
X98199944Y-90025873D01*
X98205498Y-90044180D01*
X98264463Y-90154494D01*
X98343815Y-90251185D01*
X98440506Y-90330537D01*
X98550820Y-90389502D01*
X98670518Y-90425812D01*
X98795000Y-90438072D01*
X100595000Y-90438072D01*
X100719482Y-90425812D01*
X100839180Y-90389502D01*
X100949494Y-90330537D01*
X101046185Y-90251185D01*
X101125537Y-90154494D01*
X101184502Y-90044180D01*
X101220812Y-89924482D01*
X101233072Y-89800000D01*
X101233072Y-88000000D01*
X101220812Y-87875518D01*
X101184502Y-87755820D01*
X101125537Y-87645506D01*
X101046185Y-87548815D01*
X100949494Y-87469463D01*
X100839180Y-87410498D01*
X100719482Y-87374188D01*
X100595000Y-87361928D01*
X100580000Y-87361928D01*
X100580000Y-86726578D01*
X100696579Y-86610000D01*
X106430000Y-86610000D01*
X106430001Y-87361928D01*
X106415000Y-87361928D01*
X106290518Y-87374188D01*
X106170820Y-87410498D01*
X106060506Y-87469463D01*
X105963815Y-87548815D01*
X105884463Y-87645506D01*
X105825498Y-87755820D01*
X105819944Y-87774127D01*
X105753505Y-87707688D01*
X105502095Y-87539701D01*
X105222743Y-87423989D01*
X104926184Y-87365000D01*
X104623816Y-87365000D01*
X104327257Y-87423989D01*
X104047905Y-87539701D01*
X103796495Y-87707688D01*
X103582688Y-87921495D01*
X103414701Y-88172905D01*
X103298989Y-88452257D01*
X103240000Y-88748816D01*
X103240000Y-89051184D01*
X103298989Y-89347743D01*
X103414701Y-89627095D01*
X103582688Y-89878505D01*
X103796495Y-90092312D01*
X103887389Y-90153045D01*
X103885719Y-90170000D01*
X103890000Y-90213469D01*
X103890000Y-90213476D01*
X103896183Y-90276250D01*
X103902805Y-90343490D01*
X103916763Y-90389502D01*
X103953411Y-90510312D01*
X104035589Y-90664058D01*
X104146183Y-90798817D01*
X104179956Y-90826534D01*
X104543421Y-91190000D01*
X102278465Y-91190000D01*
X102234999Y-91185719D01*
X102191533Y-91190000D01*
X102191523Y-91190000D01*
X102061510Y-91202805D01*
X101894687Y-91253411D01*
X101740941Y-91335589D01*
X101740939Y-91335590D01*
X101740940Y-91335590D01*
X101639953Y-91418468D01*
X101639951Y-91418470D01*
X101606183Y-91446183D01*
X101578470Y-91479951D01*
X100369956Y-92688466D01*
X100336183Y-92716183D01*
X100225589Y-92850942D01*
X100143411Y-93004688D01*
X100092805Y-93171511D01*
X100080000Y-93301524D01*
X100080000Y-93301531D01*
X100075719Y-93345000D01*
X100080000Y-93388469D01*
X100080001Y-96020478D01*
X100050241Y-96040363D01*
X99850363Y-96240241D01*
X99695000Y-96472759D01*
X99539637Y-96240241D01*
X99339759Y-96040363D01*
X99104727Y-95883320D01*
X98843574Y-95775147D01*
X98566335Y-95720000D01*
X98283665Y-95720000D01*
X98006426Y-95775147D01*
X97745273Y-95883320D01*
X97510241Y-96040363D01*
X97310363Y-96240241D01*
X97155000Y-96472759D01*
X96999637Y-96240241D01*
X96799759Y-96040363D01*
X96564727Y-95883320D01*
X96303574Y-95775147D01*
X96026335Y-95720000D01*
X95743665Y-95720000D01*
X95466426Y-95775147D01*
X95205273Y-95883320D01*
X94970241Y-96040363D01*
X94770363Y-96240241D01*
X94615000Y-96472759D01*
X94459637Y-96240241D01*
X94259759Y-96040363D01*
X94024727Y-95883320D01*
X93763574Y-95775147D01*
X93486335Y-95720000D01*
X93203665Y-95720000D01*
X92926426Y-95775147D01*
X92665273Y-95883320D01*
X92430241Y-96040363D01*
X92230363Y-96240241D01*
X92075000Y-96472759D01*
X91919637Y-96240241D01*
X91719759Y-96040363D01*
X91484727Y-95883320D01*
X91223574Y-95775147D01*
X90946335Y-95720000D01*
X90663665Y-95720000D01*
X90386426Y-95775147D01*
X90125273Y-95883320D01*
X89890241Y-96040363D01*
X89690363Y-96240241D01*
X89535000Y-96472759D01*
X89379637Y-96240241D01*
X89179759Y-96040363D01*
X88944727Y-95883320D01*
X88683574Y-95775147D01*
X88406335Y-95720000D01*
X88123665Y-95720000D01*
X87846426Y-95775147D01*
X87585273Y-95883320D01*
X87350241Y-96040363D01*
X87150363Y-96240241D01*
X86993320Y-96475273D01*
X86885147Y-96736426D01*
X86830000Y-97013665D01*
X80797000Y-97013665D01*
X80797000Y-88748816D01*
X86095000Y-88748816D01*
X86095000Y-89051184D01*
X86153989Y-89347743D01*
X86269701Y-89627095D01*
X86437688Y-89878505D01*
X86651495Y-90092312D01*
X86902905Y-90260299D01*
X87182257Y-90376011D01*
X87478816Y-90435000D01*
X87781184Y-90435000D01*
X88077743Y-90376011D01*
X88357095Y-90260299D01*
X88608505Y-90092312D01*
X88674944Y-90025873D01*
X88680498Y-90044180D01*
X88739463Y-90154494D01*
X88818815Y-90251185D01*
X88915506Y-90330537D01*
X89025820Y-90389502D01*
X89145518Y-90425812D01*
X89270000Y-90438072D01*
X89884250Y-90435000D01*
X90043000Y-90276250D01*
X90043000Y-89027000D01*
X90297000Y-89027000D01*
X90297000Y-90276250D01*
X90455750Y-90435000D01*
X91070000Y-90438072D01*
X91194482Y-90425812D01*
X91314180Y-90389502D01*
X91424494Y-90330537D01*
X91521185Y-90251185D01*
X91600537Y-90154494D01*
X91659502Y-90044180D01*
X91695812Y-89924482D01*
X91708072Y-89800000D01*
X91705000Y-89185750D01*
X91546250Y-89027000D01*
X90297000Y-89027000D01*
X90043000Y-89027000D01*
X90023000Y-89027000D01*
X90023000Y-88773000D01*
X90043000Y-88773000D01*
X90043000Y-87523750D01*
X90297000Y-87523750D01*
X90297000Y-88773000D01*
X91546250Y-88773000D01*
X91705000Y-88614250D01*
X91708072Y-88000000D01*
X91695812Y-87875518D01*
X91659502Y-87755820D01*
X91600537Y-87645506D01*
X91521185Y-87548815D01*
X91424494Y-87469463D01*
X91314180Y-87410498D01*
X91194482Y-87374188D01*
X91070000Y-87361928D01*
X90455750Y-87365000D01*
X90297000Y-87523750D01*
X90043000Y-87523750D01*
X89884250Y-87365000D01*
X89270000Y-87361928D01*
X89145518Y-87374188D01*
X89025820Y-87410498D01*
X88915506Y-87469463D01*
X88818815Y-87548815D01*
X88739463Y-87645506D01*
X88680498Y-87755820D01*
X88674944Y-87774127D01*
X88608505Y-87707688D01*
X88357095Y-87539701D01*
X88077743Y-87423989D01*
X87781184Y-87365000D01*
X87478816Y-87365000D01*
X87182257Y-87423989D01*
X86902905Y-87539701D01*
X86651495Y-87707688D01*
X86437688Y-87921495D01*
X86269701Y-88172905D01*
X86153989Y-88452257D01*
X86095000Y-88748816D01*
X80797000Y-88748816D01*
X80797000Y-83972000D01*
X173203001Y-83972000D01*
X173203001Y-104992532D01*
G37*
%TD.AperFunction*%
D28*
X165815000Y-112187437D02*
X165815000Y-112450210D01*
X165721495Y-112512688D01*
X165683880Y-112550303D01*
X165630537Y-112450506D01*
X165551185Y-112353815D01*
X165454494Y-112274463D01*
X165344180Y-112215498D01*
X165224482Y-112179188D01*
X165100000Y-112166928D01*
X163300000Y-112166928D01*
X163175518Y-112179188D01*
X163055820Y-112215498D01*
X162945506Y-112274463D01*
X162848815Y-112353815D01*
X162769463Y-112450506D01*
X162710498Y-112560820D01*
X162674188Y-112680518D01*
X162661928Y-112805000D01*
X162661928Y-112820000D01*
X162563466Y-112820000D01*
X162519999Y-112815719D01*
X162476533Y-112820000D01*
X162476523Y-112820000D01*
X162346510Y-112832805D01*
X162179687Y-112883411D01*
X162025941Y-112965589D01*
X161891183Y-113076183D01*
X161863466Y-113109956D01*
X161329952Y-113643470D01*
X161296184Y-113671183D01*
X161268471Y-113704951D01*
X161268468Y-113704954D01*
X161185590Y-113805941D01*
X161103412Y-113959687D01*
X161052805Y-114126510D01*
X161035719Y-114300000D01*
X161040001Y-114343479D01*
X161040000Y-117108421D01*
X160923422Y-117225000D01*
X155110817Y-117225000D01*
X155152312Y-117183505D01*
X155320299Y-116932095D01*
X155436011Y-116652743D01*
X155495000Y-116356184D01*
X155495000Y-116053816D01*
X155436011Y-115757257D01*
X155320299Y-115477905D01*
X155152312Y-115226495D01*
X154938505Y-115012688D01*
X154795690Y-114917262D01*
X154844475Y-114769080D01*
X153960000Y-113884605D01*
X153075525Y-114769080D01*
X153124310Y-114917262D01*
X152981495Y-115012688D01*
X152767688Y-115226495D01*
X152710000Y-115312831D01*
X152652312Y-115226495D01*
X152438505Y-115012688D01*
X152352169Y-114955000D01*
X152438505Y-114897312D01*
X152652312Y-114683505D01*
X152747738Y-114540690D01*
X152895920Y-114589475D01*
X153780395Y-113705000D01*
X154139605Y-113705000D01*
X155024080Y-114589475D01*
X155278261Y-114505792D01*
X155409158Y-114233225D01*
X155484365Y-113940358D01*
X155500991Y-113638447D01*
X155458397Y-113339093D01*
X155358222Y-113053801D01*
X155278261Y-112904208D01*
X155024080Y-112820525D01*
X154139605Y-113705000D01*
X153780395Y-113705000D01*
X152895920Y-112820525D01*
X152747738Y-112869310D01*
X152652312Y-112726495D01*
X152566737Y-112640920D01*
X153075525Y-112640920D01*
X153960000Y-113525395D01*
X154844475Y-112640920D01*
X154760792Y-112386739D01*
X154488225Y-112255842D01*
X154195358Y-112180635D01*
X153893447Y-112164009D01*
X153594093Y-112206603D01*
X153308801Y-112306778D01*
X153159208Y-112386739D01*
X153075525Y-112640920D01*
X152566737Y-112640920D01*
X152438505Y-112512688D01*
X152345000Y-112450210D01*
X152345000Y-112133465D01*
X152349281Y-112089999D01*
X152345000Y-112046533D01*
X152345000Y-112046523D01*
X152332195Y-111916510D01*
X152281589Y-111749687D01*
X152199411Y-111595941D01*
X152088817Y-111461183D01*
X152055044Y-111433466D01*
X151996578Y-111375000D01*
X164791458Y-111375000D01*
X165815000Y-112187437D01*
%TA.AperFunction,Conductor*%
D29*
G36*
X165815000Y-112187437D02*
G01*
X165815000Y-112450210D01*
X165721495Y-112512688D01*
X165683880Y-112550303D01*
X165630537Y-112450506D01*
X165551185Y-112353815D01*
X165454494Y-112274463D01*
X165344180Y-112215498D01*
X165224482Y-112179188D01*
X165100000Y-112166928D01*
X163300000Y-112166928D01*
X163175518Y-112179188D01*
X163055820Y-112215498D01*
X162945506Y-112274463D01*
X162848815Y-112353815D01*
X162769463Y-112450506D01*
X162710498Y-112560820D01*
X162674188Y-112680518D01*
X162661928Y-112805000D01*
X162661928Y-112820000D01*
X162563466Y-112820000D01*
X162519999Y-112815719D01*
X162476533Y-112820000D01*
X162476523Y-112820000D01*
X162346510Y-112832805D01*
X162179687Y-112883411D01*
X162025941Y-112965589D01*
X161891183Y-113076183D01*
X161863466Y-113109956D01*
X161329952Y-113643470D01*
X161296184Y-113671183D01*
X161268471Y-113704951D01*
X161268468Y-113704954D01*
X161185590Y-113805941D01*
X161103412Y-113959687D01*
X161052805Y-114126510D01*
X161035719Y-114300000D01*
X161040001Y-114343479D01*
X161040000Y-117108421D01*
X160923422Y-117225000D01*
X155110817Y-117225000D01*
X155152312Y-117183505D01*
X155320299Y-116932095D01*
X155436011Y-116652743D01*
X155495000Y-116356184D01*
X155495000Y-116053816D01*
X155436011Y-115757257D01*
X155320299Y-115477905D01*
X155152312Y-115226495D01*
X154938505Y-115012688D01*
X154795690Y-114917262D01*
X154844475Y-114769080D01*
X153960000Y-113884605D01*
X153075525Y-114769080D01*
X153124310Y-114917262D01*
X152981495Y-115012688D01*
X152767688Y-115226495D01*
X152710000Y-115312831D01*
X152652312Y-115226495D01*
X152438505Y-115012688D01*
X152352169Y-114955000D01*
X152438505Y-114897312D01*
X152652312Y-114683505D01*
X152747738Y-114540690D01*
X152895920Y-114589475D01*
X153780395Y-113705000D01*
X154139605Y-113705000D01*
X155024080Y-114589475D01*
X155278261Y-114505792D01*
X155409158Y-114233225D01*
X155484365Y-113940358D01*
X155500991Y-113638447D01*
X155458397Y-113339093D01*
X155358222Y-113053801D01*
X155278261Y-112904208D01*
X155024080Y-112820525D01*
X154139605Y-113705000D01*
X153780395Y-113705000D01*
X152895920Y-112820525D01*
X152747738Y-112869310D01*
X152652312Y-112726495D01*
X152566737Y-112640920D01*
X153075525Y-112640920D01*
X153960000Y-113525395D01*
X154844475Y-112640920D01*
X154760792Y-112386739D01*
X154488225Y-112255842D01*
X154195358Y-112180635D01*
X153893447Y-112164009D01*
X153594093Y-112206603D01*
X153308801Y-112306778D01*
X153159208Y-112386739D01*
X153075525Y-112640920D01*
X152566737Y-112640920D01*
X152438505Y-112512688D01*
X152345000Y-112450210D01*
X152345000Y-112133465D01*
X152349281Y-112089999D01*
X152345000Y-112046533D01*
X152345000Y-112046523D01*
X152332195Y-111916510D01*
X152281589Y-111749687D01*
X152199411Y-111595941D01*
X152088817Y-111461183D01*
X152055044Y-111433466D01*
X151996578Y-111375000D01*
X164791458Y-111375000D01*
X165815000Y-112187437D01*
G37*
%TD.AperFunction*%
D28*
X166009774Y-98726898D02*
X166087795Y-98915256D01*
X166201063Y-99084774D01*
X166345226Y-99228937D01*
X166514744Y-99342205D01*
X166703102Y-99420226D01*
X166755000Y-99430549D01*
X166755001Y-108541521D01*
X166750719Y-108585000D01*
X166767805Y-108758490D01*
X166818412Y-108925313D01*
X166900590Y-109079059D01*
X166983468Y-109180046D01*
X166983471Y-109180049D01*
X167011184Y-109213817D01*
X167044951Y-109241529D01*
X169930000Y-112126579D01*
X169930000Y-112352742D01*
X169728225Y-112255842D01*
X169435358Y-112180635D01*
X169133447Y-112164009D01*
X168834093Y-112206603D01*
X168548801Y-112306778D01*
X168399208Y-112386739D01*
X168315525Y-112640920D01*
X169200000Y-113525395D01*
X169214143Y-113511253D01*
X169393748Y-113690858D01*
X169379605Y-113705000D01*
X169393748Y-113719143D01*
X169214143Y-113898748D01*
X169200000Y-113884605D01*
X168315525Y-114769080D01*
X168364310Y-114917262D01*
X168221495Y-115012688D01*
X168007688Y-115226495D01*
X167950000Y-115312831D01*
X167892312Y-115226495D01*
X167678505Y-115012688D01*
X167592169Y-114955000D01*
X167678505Y-114897312D01*
X167892312Y-114683505D01*
X167987738Y-114540690D01*
X168135920Y-114589475D01*
X169020395Y-113705000D01*
X168135920Y-112820525D01*
X167987738Y-112869310D01*
X167892312Y-112726495D01*
X167678505Y-112512688D01*
X167585000Y-112450210D01*
X167585000Y-111839882D01*
X167586303Y-111832723D01*
X167585000Y-111752835D01*
X167585000Y-111716523D01*
X167584290Y-111709316D01*
X167583460Y-111658417D01*
X167575769Y-111622794D01*
X167572195Y-111586510D01*
X167557414Y-111537784D01*
X167546668Y-111488014D01*
X167532169Y-111454564D01*
X167521589Y-111419687D01*
X167497587Y-111374783D01*
X167477337Y-111328064D01*
X167456597Y-111298093D01*
X167439411Y-111265941D01*
X167407106Y-111226577D01*
X167378134Y-111184712D01*
X167351940Y-111159358D01*
X167328817Y-111131183D01*
X167289468Y-111098890D01*
X167284263Y-111093852D01*
X167255804Y-111071263D01*
X167194058Y-111020589D01*
X167187644Y-111017161D01*
X165655882Y-109801326D01*
X165594059Y-109750589D01*
X165549151Y-109726585D01*
X165506362Y-109698993D01*
X165472462Y-109685595D01*
X165440313Y-109668411D01*
X165391577Y-109653627D01*
X165344235Y-109634916D01*
X165308385Y-109628391D01*
X165273490Y-109617805D01*
X165222805Y-109612813D01*
X165172723Y-109603697D01*
X165092836Y-109605000D01*
X138796579Y-109605000D01*
X137816534Y-108624956D01*
X137788817Y-108591183D01*
X137654059Y-108480589D01*
X137500313Y-108398411D01*
X137333490Y-108347805D01*
X137203477Y-108335000D01*
X137203469Y-108335000D01*
X137160000Y-108330719D01*
X137116531Y-108335000D01*
X132177996Y-108335000D01*
X132237146Y-108317057D01*
X132583725Y-108131807D01*
X132887503Y-107882503D01*
X133136807Y-107578725D01*
X133322057Y-107232147D01*
X133436133Y-106856088D01*
X133465000Y-106562998D01*
X133465000Y-105847003D01*
X133436133Y-105553913D01*
X133322057Y-105177853D01*
X133136807Y-104831275D01*
X132887503Y-104527497D01*
X132719962Y-104390000D01*
X139720039Y-104390000D01*
X139552498Y-104527497D01*
X139303193Y-104831275D01*
X139117943Y-105177853D01*
X139003867Y-105553912D01*
X138975000Y-105847002D01*
X138975000Y-106562997D01*
X139003867Y-106856087D01*
X139117943Y-107232146D01*
X139303193Y-107578725D01*
X139552497Y-107882503D01*
X139856275Y-108131807D01*
X140202853Y-108317057D01*
X140578912Y-108431133D01*
X140970000Y-108469652D01*
X141361087Y-108431133D01*
X141737146Y-108317057D01*
X142083725Y-108131807D01*
X142387503Y-107882503D01*
X142636807Y-107578725D01*
X142822057Y-107232147D01*
X142936133Y-106856088D01*
X142965000Y-106562998D01*
X142965000Y-105847003D01*
X142936133Y-105553913D01*
X142822057Y-105177853D01*
X142636807Y-104831275D01*
X142387503Y-104527497D01*
X142219962Y-104390000D01*
X145460039Y-104390000D01*
X145292498Y-104527497D01*
X145043193Y-104831275D01*
X144857943Y-105177853D01*
X144743867Y-105553912D01*
X144715000Y-105847002D01*
X144715000Y-106562997D01*
X144743867Y-106856087D01*
X144857943Y-107232146D01*
X145043193Y-107578725D01*
X145292497Y-107882503D01*
X145596275Y-108131807D01*
X145942853Y-108317057D01*
X146318912Y-108431133D01*
X146710000Y-108469652D01*
X147101087Y-108431133D01*
X147477146Y-108317057D01*
X147823725Y-108131807D01*
X148127503Y-107882503D01*
X148376807Y-107578725D01*
X148562057Y-107232147D01*
X148676133Y-106856088D01*
X148705000Y-106562998D01*
X148705000Y-105847003D01*
X148676133Y-105553913D01*
X148562057Y-105177853D01*
X148376807Y-104831275D01*
X148127503Y-104527497D01*
X147959962Y-104390000D01*
X154960039Y-104390000D01*
X154792498Y-104527497D01*
X154543193Y-104831275D01*
X154357943Y-105177853D01*
X154243867Y-105553912D01*
X154215000Y-105847002D01*
X154215000Y-106562997D01*
X154243867Y-106856087D01*
X154357943Y-107232146D01*
X154543193Y-107578725D01*
X154792497Y-107882503D01*
X155096275Y-108131807D01*
X155442853Y-108317057D01*
X155818912Y-108431133D01*
X156210000Y-108469652D01*
X156601087Y-108431133D01*
X156977146Y-108317057D01*
X157323725Y-108131807D01*
X157627503Y-107882503D01*
X157876807Y-107578725D01*
X158062057Y-107232147D01*
X158176133Y-106856088D01*
X158205000Y-106562998D01*
X158205000Y-105847003D01*
X158176133Y-105553913D01*
X158062057Y-105177853D01*
X157876807Y-104831275D01*
X157627503Y-104527497D01*
X157459962Y-104390000D01*
X160700039Y-104390000D01*
X160532498Y-104527497D01*
X160283193Y-104831275D01*
X160097943Y-105177853D01*
X159983867Y-105553912D01*
X159955000Y-105847002D01*
X159955000Y-106562997D01*
X159983867Y-106856087D01*
X160097943Y-107232146D01*
X160283193Y-107578725D01*
X160532497Y-107882503D01*
X160836275Y-108131807D01*
X161182853Y-108317057D01*
X161558912Y-108431133D01*
X161950000Y-108469652D01*
X162341087Y-108431133D01*
X162717146Y-108317057D01*
X163063725Y-108131807D01*
X163367503Y-107882503D01*
X163616807Y-107578725D01*
X163802057Y-107232147D01*
X163916133Y-106856088D01*
X163945000Y-106562998D01*
X163945000Y-105847003D01*
X163916133Y-105553913D01*
X163802057Y-105177853D01*
X163616807Y-104831275D01*
X163367503Y-104527497D01*
X163199962Y-104390000D01*
X163786531Y-104390000D01*
X163830000Y-104394281D01*
X163873469Y-104390000D01*
X163873477Y-104390000D01*
X164003490Y-104377195D01*
X164170313Y-104326589D01*
X164324059Y-104244411D01*
X164458817Y-104133817D01*
X164486534Y-104100044D01*
X165695049Y-102891530D01*
X165728817Y-102863817D01*
X165839411Y-102729059D01*
X165921589Y-102575313D01*
X165972195Y-102408490D01*
X165985000Y-102278477D01*
X165985000Y-102278467D01*
X165989281Y-102235001D01*
X165985000Y-102191535D01*
X165985000Y-98602350D01*
X166009774Y-98726898D01*
%TA.AperFunction,Conductor*%
D29*
G36*
X166009774Y-98726898D02*
G01*
X166087795Y-98915256D01*
X166201063Y-99084774D01*
X166345226Y-99228937D01*
X166514744Y-99342205D01*
X166703102Y-99420226D01*
X166755000Y-99430549D01*
X166755001Y-108541521D01*
X166750719Y-108585000D01*
X166767805Y-108758490D01*
X166818412Y-108925313D01*
X166900590Y-109079059D01*
X166983468Y-109180046D01*
X166983471Y-109180049D01*
X167011184Y-109213817D01*
X167044951Y-109241529D01*
X169930000Y-112126579D01*
X169930000Y-112352742D01*
X169728225Y-112255842D01*
X169435358Y-112180635D01*
X169133447Y-112164009D01*
X168834093Y-112206603D01*
X168548801Y-112306778D01*
X168399208Y-112386739D01*
X168315525Y-112640920D01*
X169200000Y-113525395D01*
X169214143Y-113511253D01*
X169393748Y-113690858D01*
X169379605Y-113705000D01*
X169393748Y-113719143D01*
X169214143Y-113898748D01*
X169200000Y-113884605D01*
X168315525Y-114769080D01*
X168364310Y-114917262D01*
X168221495Y-115012688D01*
X168007688Y-115226495D01*
X167950000Y-115312831D01*
X167892312Y-115226495D01*
X167678505Y-115012688D01*
X167592169Y-114955000D01*
X167678505Y-114897312D01*
X167892312Y-114683505D01*
X167987738Y-114540690D01*
X168135920Y-114589475D01*
X169020395Y-113705000D01*
X168135920Y-112820525D01*
X167987738Y-112869310D01*
X167892312Y-112726495D01*
X167678505Y-112512688D01*
X167585000Y-112450210D01*
X167585000Y-111839882D01*
X167586303Y-111832723D01*
X167585000Y-111752835D01*
X167585000Y-111716523D01*
X167584290Y-111709316D01*
X167583460Y-111658417D01*
X167575769Y-111622794D01*
X167572195Y-111586510D01*
X167557414Y-111537784D01*
X167546668Y-111488014D01*
X167532169Y-111454564D01*
X167521589Y-111419687D01*
X167497587Y-111374783D01*
X167477337Y-111328064D01*
X167456597Y-111298093D01*
X167439411Y-111265941D01*
X167407106Y-111226577D01*
X167378134Y-111184712D01*
X167351940Y-111159358D01*
X167328817Y-111131183D01*
X167289468Y-111098890D01*
X167284263Y-111093852D01*
X167255804Y-111071263D01*
X167194058Y-111020589D01*
X167187644Y-111017161D01*
X165655882Y-109801326D01*
X165594059Y-109750589D01*
X165549151Y-109726585D01*
X165506362Y-109698993D01*
X165472462Y-109685595D01*
X165440313Y-109668411D01*
X165391577Y-109653627D01*
X165344235Y-109634916D01*
X165308385Y-109628391D01*
X165273490Y-109617805D01*
X165222805Y-109612813D01*
X165172723Y-109603697D01*
X165092836Y-109605000D01*
X138796579Y-109605000D01*
X137816534Y-108624956D01*
X137788817Y-108591183D01*
X137654059Y-108480589D01*
X137500313Y-108398411D01*
X137333490Y-108347805D01*
X137203477Y-108335000D01*
X137203469Y-108335000D01*
X137160000Y-108330719D01*
X137116531Y-108335000D01*
X132177996Y-108335000D01*
X132237146Y-108317057D01*
X132583725Y-108131807D01*
X132887503Y-107882503D01*
X133136807Y-107578725D01*
X133322057Y-107232147D01*
X133436133Y-106856088D01*
X133465000Y-106562998D01*
X133465000Y-105847003D01*
X133436133Y-105553913D01*
X133322057Y-105177853D01*
X133136807Y-104831275D01*
X132887503Y-104527497D01*
X132719962Y-104390000D01*
X139720039Y-104390000D01*
X139552498Y-104527497D01*
X139303193Y-104831275D01*
X139117943Y-105177853D01*
X139003867Y-105553912D01*
X138975000Y-105847002D01*
X138975000Y-106562997D01*
X139003867Y-106856087D01*
X139117943Y-107232146D01*
X139303193Y-107578725D01*
X139552497Y-107882503D01*
X139856275Y-108131807D01*
X140202853Y-108317057D01*
X140578912Y-108431133D01*
X140970000Y-108469652D01*
X141361087Y-108431133D01*
X141737146Y-108317057D01*
X142083725Y-108131807D01*
X142387503Y-107882503D01*
X142636807Y-107578725D01*
X142822057Y-107232147D01*
X142936133Y-106856088D01*
X142965000Y-106562998D01*
X142965000Y-105847003D01*
X142936133Y-105553913D01*
X142822057Y-105177853D01*
X142636807Y-104831275D01*
X142387503Y-104527497D01*
X142219962Y-104390000D01*
X145460039Y-104390000D01*
X145292498Y-104527497D01*
X145043193Y-104831275D01*
X144857943Y-105177853D01*
X144743867Y-105553912D01*
X144715000Y-105847002D01*
X144715000Y-106562997D01*
X144743867Y-106856087D01*
X144857943Y-107232146D01*
X145043193Y-107578725D01*
X145292497Y-107882503D01*
X145596275Y-108131807D01*
X145942853Y-108317057D01*
X146318912Y-108431133D01*
X146710000Y-108469652D01*
X147101087Y-108431133D01*
X147477146Y-108317057D01*
X147823725Y-108131807D01*
X148127503Y-107882503D01*
X148376807Y-107578725D01*
X148562057Y-107232147D01*
X148676133Y-106856088D01*
X148705000Y-106562998D01*
X148705000Y-105847003D01*
X148676133Y-105553913D01*
X148562057Y-105177853D01*
X148376807Y-104831275D01*
X148127503Y-104527497D01*
X147959962Y-104390000D01*
X154960039Y-104390000D01*
X154792498Y-104527497D01*
X154543193Y-104831275D01*
X154357943Y-105177853D01*
X154243867Y-105553912D01*
X154215000Y-105847002D01*
X154215000Y-106562997D01*
X154243867Y-106856087D01*
X154357943Y-107232146D01*
X154543193Y-107578725D01*
X154792497Y-107882503D01*
X155096275Y-108131807D01*
X155442853Y-108317057D01*
X155818912Y-108431133D01*
X156210000Y-108469652D01*
X156601087Y-108431133D01*
X156977146Y-108317057D01*
X157323725Y-108131807D01*
X157627503Y-107882503D01*
X157876807Y-107578725D01*
X158062057Y-107232147D01*
X158176133Y-106856088D01*
X158205000Y-106562998D01*
X158205000Y-105847003D01*
X158176133Y-105553913D01*
X158062057Y-105177853D01*
X157876807Y-104831275D01*
X157627503Y-104527497D01*
X157459962Y-104390000D01*
X160700039Y-104390000D01*
X160532498Y-104527497D01*
X160283193Y-104831275D01*
X160097943Y-105177853D01*
X159983867Y-105553912D01*
X159955000Y-105847002D01*
X159955000Y-106562997D01*
X159983867Y-106856087D01*
X160097943Y-107232146D01*
X160283193Y-107578725D01*
X160532497Y-107882503D01*
X160836275Y-108131807D01*
X161182853Y-108317057D01*
X161558912Y-108431133D01*
X161950000Y-108469652D01*
X162341087Y-108431133D01*
X162717146Y-108317057D01*
X163063725Y-108131807D01*
X163367503Y-107882503D01*
X163616807Y-107578725D01*
X163802057Y-107232147D01*
X163916133Y-106856088D01*
X163945000Y-106562998D01*
X163945000Y-105847003D01*
X163916133Y-105553913D01*
X163802057Y-105177853D01*
X163616807Y-104831275D01*
X163367503Y-104527497D01*
X163199962Y-104390000D01*
X163786531Y-104390000D01*
X163830000Y-104394281D01*
X163873469Y-104390000D01*
X163873477Y-104390000D01*
X164003490Y-104377195D01*
X164170313Y-104326589D01*
X164324059Y-104244411D01*
X164458817Y-104133817D01*
X164486534Y-104100044D01*
X165695049Y-102891530D01*
X165728817Y-102863817D01*
X165839411Y-102729059D01*
X165921589Y-102575313D01*
X165972195Y-102408490D01*
X165985000Y-102278477D01*
X165985000Y-102278467D01*
X165989281Y-102235001D01*
X165985000Y-102191535D01*
X165985000Y-98602350D01*
X166009774Y-98726898D01*
G37*
%TD.AperFunction*%
D28*
X132483421Y-100080000D02*
X127043466Y-100080000D01*
X126999999Y-100075719D01*
X126956533Y-100080000D01*
X126956523Y-100080000D01*
X126826510Y-100092805D01*
X126659687Y-100143411D01*
X126505941Y-100225589D01*
X126505939Y-100225590D01*
X126505940Y-100225590D01*
X126404953Y-100308468D01*
X126404951Y-100308470D01*
X126371183Y-100336183D01*
X126343470Y-100369951D01*
X123458422Y-103255000D01*
X119705804Y-103255000D01*
X119740226Y-103171898D01*
X119780000Y-102971939D01*
X119780000Y-102768061D01*
X119740226Y-102568102D01*
X119662205Y-102379744D01*
X119630000Y-102331546D01*
X119630000Y-98289521D01*
X119659759Y-98269637D01*
X119859637Y-98069759D01*
X120015000Y-97837241D01*
X120170363Y-98069759D01*
X120370241Y-98269637D01*
X120605273Y-98426680D01*
X120866426Y-98534853D01*
X121143665Y-98590000D01*
X121426335Y-98590000D01*
X121703574Y-98534853D01*
X121964727Y-98426680D01*
X122199759Y-98269637D01*
X122398357Y-98071039D01*
X122399188Y-98079482D01*
X122435498Y-98199180D01*
X122494463Y-98309494D01*
X122573815Y-98406185D01*
X122670506Y-98485537D01*
X122780820Y-98544502D01*
X122900518Y-98580812D01*
X123025000Y-98593072D01*
X124625000Y-98593072D01*
X124749482Y-98580812D01*
X124869180Y-98544502D01*
X124979494Y-98485537D01*
X125076185Y-98406185D01*
X125155537Y-98309494D01*
X125214502Y-98199180D01*
X125250812Y-98079482D01*
X125263072Y-97955000D01*
X125263072Y-96355000D01*
X125250812Y-96230518D01*
X125214502Y-96110820D01*
X125155537Y-96000506D01*
X125076185Y-95903815D01*
X124979494Y-95824463D01*
X124869180Y-95765498D01*
X124749482Y-95729188D01*
X124625000Y-95716928D01*
X123025000Y-95716928D01*
X122900518Y-95729188D01*
X122780820Y-95765498D01*
X122670506Y-95824463D01*
X122573815Y-95903815D01*
X122494463Y-96000506D01*
X122435498Y-96110820D01*
X122399188Y-96230518D01*
X122398357Y-96238961D01*
X122199759Y-96040363D01*
X121964727Y-95883320D01*
X121703574Y-95775147D01*
X121426335Y-95720000D01*
X121143665Y-95720000D01*
X120866426Y-95775147D01*
X120605273Y-95883320D01*
X120370241Y-96040363D01*
X120170363Y-96240241D01*
X120015000Y-96472759D01*
X119859637Y-96240241D01*
X119659759Y-96040363D01*
X119424727Y-95883320D01*
X119163574Y-95775147D01*
X118886335Y-95720000D01*
X118603665Y-95720000D01*
X118326426Y-95775147D01*
X118065273Y-95883320D01*
X117830241Y-96040363D01*
X117630363Y-96240241D01*
X117473320Y-96475273D01*
X117468933Y-96485865D01*
X117357385Y-96299869D01*
X117168414Y-96091481D01*
X116942420Y-95923963D01*
X116688087Y-95803754D01*
X116554039Y-95763096D01*
X116332000Y-95885085D01*
X116332000Y-97028000D01*
X116352000Y-97028000D01*
X116352000Y-97282000D01*
X116332000Y-97282000D01*
X116332000Y-98424915D01*
X116554039Y-98546904D01*
X116688087Y-98506246D01*
X116942420Y-98386037D01*
X117168414Y-98218519D01*
X117357385Y-98010131D01*
X117468933Y-97824135D01*
X117473320Y-97834727D01*
X117630363Y-98069759D01*
X117830241Y-98269637D01*
X117860000Y-98289521D01*
X117860001Y-102331544D01*
X117827795Y-102379744D01*
X117749774Y-102568102D01*
X117710000Y-102768061D01*
X117710000Y-102971939D01*
X117749774Y-103171898D01*
X117784196Y-103255000D01*
X112298454Y-103255000D01*
X112250256Y-103222795D01*
X112061898Y-103144774D01*
X111861939Y-103105000D01*
X111658061Y-103105000D01*
X111458102Y-103144774D01*
X111269744Y-103222795D01*
X111100226Y-103336063D01*
X110956063Y-103480226D01*
X110842795Y-103649744D01*
X110764774Y-103838102D01*
X110725000Y-104038061D01*
X110725000Y-104241939D01*
X110764774Y-104441898D01*
X110799196Y-104525000D01*
X98156579Y-104525000D01*
X91810487Y-98178909D01*
X91919637Y-98069759D01*
X92075000Y-97837241D01*
X92230363Y-98069759D01*
X92430241Y-98269637D01*
X92665273Y-98426680D01*
X92926426Y-98534853D01*
X93203665Y-98590000D01*
X93486335Y-98590000D01*
X93763574Y-98534853D01*
X94024727Y-98426680D01*
X94259759Y-98269637D01*
X94459637Y-98069759D01*
X94615000Y-97837241D01*
X94770363Y-98069759D01*
X94970241Y-98269637D01*
X95205273Y-98426680D01*
X95466426Y-98534853D01*
X95743665Y-98590000D01*
X96026335Y-98590000D01*
X96303574Y-98534853D01*
X96564727Y-98426680D01*
X96799759Y-98269637D01*
X96999637Y-98069759D01*
X97155000Y-97837241D01*
X97310363Y-98069759D01*
X97510241Y-98269637D01*
X97745273Y-98426680D01*
X98006426Y-98534853D01*
X98283665Y-98590000D01*
X98566335Y-98590000D01*
X98843574Y-98534853D01*
X99104727Y-98426680D01*
X99339759Y-98269637D01*
X99539637Y-98069759D01*
X99695000Y-97837241D01*
X99850363Y-98069759D01*
X100050241Y-98269637D01*
X100285273Y-98426680D01*
X100546426Y-98534853D01*
X100823665Y-98590000D01*
X101106335Y-98590000D01*
X101383574Y-98534853D01*
X101644727Y-98426680D01*
X101879759Y-98269637D01*
X102079637Y-98069759D01*
X102235000Y-97837241D01*
X102390363Y-98069759D01*
X102590241Y-98269637D01*
X102825273Y-98426680D01*
X103086426Y-98534853D01*
X103363665Y-98590000D01*
X103646335Y-98590000D01*
X103923574Y-98534853D01*
X104184727Y-98426680D01*
X104419759Y-98269637D01*
X104619637Y-98069759D01*
X104775000Y-97837241D01*
X104930363Y-98069759D01*
X105130241Y-98269637D01*
X105365273Y-98426680D01*
X105626426Y-98534853D01*
X105903665Y-98590000D01*
X106186335Y-98590000D01*
X106463574Y-98534853D01*
X106724727Y-98426680D01*
X106959759Y-98269637D01*
X107159637Y-98069759D01*
X107315000Y-97837241D01*
X107470363Y-98069759D01*
X107670241Y-98269637D01*
X107905273Y-98426680D01*
X108166426Y-98534853D01*
X108443665Y-98590000D01*
X108726335Y-98590000D01*
X109003574Y-98534853D01*
X109264727Y-98426680D01*
X109499759Y-98269637D01*
X109699637Y-98069759D01*
X109855000Y-97837241D01*
X110010363Y-98069759D01*
X110210241Y-98269637D01*
X110445273Y-98426680D01*
X110706426Y-98534853D01*
X110983665Y-98590000D01*
X111266335Y-98590000D01*
X111543574Y-98534853D01*
X111804727Y-98426680D01*
X112039759Y-98269637D01*
X112239637Y-98069759D01*
X112395000Y-97837241D01*
X112550363Y-98069759D01*
X112750241Y-98269637D01*
X112985273Y-98426680D01*
X113246426Y-98534853D01*
X113523665Y-98590000D01*
X113806335Y-98590000D01*
X114083574Y-98534853D01*
X114344727Y-98426680D01*
X114579759Y-98269637D01*
X114779637Y-98069759D01*
X114936680Y-97834727D01*
X114941067Y-97824135D01*
X115052615Y-98010131D01*
X115241586Y-98218519D01*
X115467580Y-98386037D01*
X115721913Y-98506246D01*
X115855961Y-98546904D01*
X116078000Y-98424915D01*
X116078000Y-97282000D01*
X116058000Y-97282000D01*
X116058000Y-97028000D01*
X116078000Y-97028000D01*
X116078000Y-95885085D01*
X115855961Y-95763096D01*
X115721913Y-95803754D01*
X115467580Y-95923963D01*
X115241586Y-96091481D01*
X115052615Y-96299869D01*
X114941067Y-96485865D01*
X114936680Y-96475273D01*
X114779637Y-96240241D01*
X114579759Y-96040363D01*
X114344727Y-95883320D01*
X114083574Y-95775147D01*
X113806335Y-95720000D01*
X113523665Y-95720000D01*
X113246426Y-95775147D01*
X112985273Y-95883320D01*
X112750241Y-96040363D01*
X112550363Y-96240241D01*
X112395000Y-96472759D01*
X112239637Y-96240241D01*
X112039759Y-96040363D01*
X111804727Y-95883320D01*
X111543574Y-95775147D01*
X111266335Y-95720000D01*
X110983665Y-95720000D01*
X110706426Y-95775147D01*
X110445273Y-95883320D01*
X110210241Y-96040363D01*
X110010363Y-96240241D01*
X109855000Y-96472759D01*
X109699637Y-96240241D01*
X109499759Y-96040363D01*
X109264727Y-95883320D01*
X109003574Y-95775147D01*
X108726335Y-95720000D01*
X108443665Y-95720000D01*
X108166426Y-95775147D01*
X107905273Y-95883320D01*
X107670241Y-96040363D01*
X107470363Y-96240241D01*
X107315000Y-96472759D01*
X107159637Y-96240241D01*
X106959759Y-96040363D01*
X106930000Y-96020479D01*
X106930000Y-95616578D01*
X107046579Y-95500000D01*
X127903422Y-95500000D01*
X132483421Y-100080000D01*
%TA.AperFunction,Conductor*%
D29*
G36*
X132483421Y-100080000D02*
G01*
X127043466Y-100080000D01*
X126999999Y-100075719D01*
X126956533Y-100080000D01*
X126956523Y-100080000D01*
X126826510Y-100092805D01*
X126659687Y-100143411D01*
X126505941Y-100225589D01*
X126505939Y-100225590D01*
X126505940Y-100225590D01*
X126404953Y-100308468D01*
X126404951Y-100308470D01*
X126371183Y-100336183D01*
X126343470Y-100369951D01*
X123458422Y-103255000D01*
X119705804Y-103255000D01*
X119740226Y-103171898D01*
X119780000Y-102971939D01*
X119780000Y-102768061D01*
X119740226Y-102568102D01*
X119662205Y-102379744D01*
X119630000Y-102331546D01*
X119630000Y-98289521D01*
X119659759Y-98269637D01*
X119859637Y-98069759D01*
X120015000Y-97837241D01*
X120170363Y-98069759D01*
X120370241Y-98269637D01*
X120605273Y-98426680D01*
X120866426Y-98534853D01*
X121143665Y-98590000D01*
X121426335Y-98590000D01*
X121703574Y-98534853D01*
X121964727Y-98426680D01*
X122199759Y-98269637D01*
X122398357Y-98071039D01*
X122399188Y-98079482D01*
X122435498Y-98199180D01*
X122494463Y-98309494D01*
X122573815Y-98406185D01*
X122670506Y-98485537D01*
X122780820Y-98544502D01*
X122900518Y-98580812D01*
X123025000Y-98593072D01*
X124625000Y-98593072D01*
X124749482Y-98580812D01*
X124869180Y-98544502D01*
X124979494Y-98485537D01*
X125076185Y-98406185D01*
X125155537Y-98309494D01*
X125214502Y-98199180D01*
X125250812Y-98079482D01*
X125263072Y-97955000D01*
X125263072Y-96355000D01*
X125250812Y-96230518D01*
X125214502Y-96110820D01*
X125155537Y-96000506D01*
X125076185Y-95903815D01*
X124979494Y-95824463D01*
X124869180Y-95765498D01*
X124749482Y-95729188D01*
X124625000Y-95716928D01*
X123025000Y-95716928D01*
X122900518Y-95729188D01*
X122780820Y-95765498D01*
X122670506Y-95824463D01*
X122573815Y-95903815D01*
X122494463Y-96000506D01*
X122435498Y-96110820D01*
X122399188Y-96230518D01*
X122398357Y-96238961D01*
X122199759Y-96040363D01*
X121964727Y-95883320D01*
X121703574Y-95775147D01*
X121426335Y-95720000D01*
X121143665Y-95720000D01*
X120866426Y-95775147D01*
X120605273Y-95883320D01*
X120370241Y-96040363D01*
X120170363Y-96240241D01*
X120015000Y-96472759D01*
X119859637Y-96240241D01*
X119659759Y-96040363D01*
X119424727Y-95883320D01*
X119163574Y-95775147D01*
X118886335Y-95720000D01*
X118603665Y-95720000D01*
X118326426Y-95775147D01*
X118065273Y-95883320D01*
X117830241Y-96040363D01*
X117630363Y-96240241D01*
X117473320Y-96475273D01*
X117468933Y-96485865D01*
X117357385Y-96299869D01*
X117168414Y-96091481D01*
X116942420Y-95923963D01*
X116688087Y-95803754D01*
X116554039Y-95763096D01*
X116332000Y-95885085D01*
X116332000Y-97028000D01*
X116352000Y-97028000D01*
X116352000Y-97282000D01*
X116332000Y-97282000D01*
X116332000Y-98424915D01*
X116554039Y-98546904D01*
X116688087Y-98506246D01*
X116942420Y-98386037D01*
X117168414Y-98218519D01*
X117357385Y-98010131D01*
X117468933Y-97824135D01*
X117473320Y-97834727D01*
X117630363Y-98069759D01*
X117830241Y-98269637D01*
X117860000Y-98289521D01*
X117860001Y-102331544D01*
X117827795Y-102379744D01*
X117749774Y-102568102D01*
X117710000Y-102768061D01*
X117710000Y-102971939D01*
X117749774Y-103171898D01*
X117784196Y-103255000D01*
X112298454Y-103255000D01*
X112250256Y-103222795D01*
X112061898Y-103144774D01*
X111861939Y-103105000D01*
X111658061Y-103105000D01*
X111458102Y-103144774D01*
X111269744Y-103222795D01*
X111100226Y-103336063D01*
X110956063Y-103480226D01*
X110842795Y-103649744D01*
X110764774Y-103838102D01*
X110725000Y-104038061D01*
X110725000Y-104241939D01*
X110764774Y-104441898D01*
X110799196Y-104525000D01*
X98156579Y-104525000D01*
X91810487Y-98178909D01*
X91919637Y-98069759D01*
X92075000Y-97837241D01*
X92230363Y-98069759D01*
X92430241Y-98269637D01*
X92665273Y-98426680D01*
X92926426Y-98534853D01*
X93203665Y-98590000D01*
X93486335Y-98590000D01*
X93763574Y-98534853D01*
X94024727Y-98426680D01*
X94259759Y-98269637D01*
X94459637Y-98069759D01*
X94615000Y-97837241D01*
X94770363Y-98069759D01*
X94970241Y-98269637D01*
X95205273Y-98426680D01*
X95466426Y-98534853D01*
X95743665Y-98590000D01*
X96026335Y-98590000D01*
X96303574Y-98534853D01*
X96564727Y-98426680D01*
X96799759Y-98269637D01*
X96999637Y-98069759D01*
X97155000Y-97837241D01*
X97310363Y-98069759D01*
X97510241Y-98269637D01*
X97745273Y-98426680D01*
X98006426Y-98534853D01*
X98283665Y-98590000D01*
X98566335Y-98590000D01*
X98843574Y-98534853D01*
X99104727Y-98426680D01*
X99339759Y-98269637D01*
X99539637Y-98069759D01*
X99695000Y-97837241D01*
X99850363Y-98069759D01*
X100050241Y-98269637D01*
X100285273Y-98426680D01*
X100546426Y-98534853D01*
X100823665Y-98590000D01*
X101106335Y-98590000D01*
X101383574Y-98534853D01*
X101644727Y-98426680D01*
X101879759Y-98269637D01*
X102079637Y-98069759D01*
X102235000Y-97837241D01*
X102390363Y-98069759D01*
X102590241Y-98269637D01*
X102825273Y-98426680D01*
X103086426Y-98534853D01*
X103363665Y-98590000D01*
X103646335Y-98590000D01*
X103923574Y-98534853D01*
X104184727Y-98426680D01*
X104419759Y-98269637D01*
X104619637Y-98069759D01*
X104775000Y-97837241D01*
X104930363Y-98069759D01*
X105130241Y-98269637D01*
X105365273Y-98426680D01*
X105626426Y-98534853D01*
X105903665Y-98590000D01*
X106186335Y-98590000D01*
X106463574Y-98534853D01*
X106724727Y-98426680D01*
X106959759Y-98269637D01*
X107159637Y-98069759D01*
X107315000Y-97837241D01*
X107470363Y-98069759D01*
X107670241Y-98269637D01*
X107905273Y-98426680D01*
X108166426Y-98534853D01*
X108443665Y-98590000D01*
X108726335Y-98590000D01*
X109003574Y-98534853D01*
X109264727Y-98426680D01*
X109499759Y-98269637D01*
X109699637Y-98069759D01*
X109855000Y-97837241D01*
X110010363Y-98069759D01*
X110210241Y-98269637D01*
X110445273Y-98426680D01*
X110706426Y-98534853D01*
X110983665Y-98590000D01*
X111266335Y-98590000D01*
X111543574Y-98534853D01*
X111804727Y-98426680D01*
X112039759Y-98269637D01*
X112239637Y-98069759D01*
X112395000Y-97837241D01*
X112550363Y-98069759D01*
X112750241Y-98269637D01*
X112985273Y-98426680D01*
X113246426Y-98534853D01*
X113523665Y-98590000D01*
X113806335Y-98590000D01*
X114083574Y-98534853D01*
X114344727Y-98426680D01*
X114579759Y-98269637D01*
X114779637Y-98069759D01*
X114936680Y-97834727D01*
X114941067Y-97824135D01*
X115052615Y-98010131D01*
X115241586Y-98218519D01*
X115467580Y-98386037D01*
X115721913Y-98506246D01*
X115855961Y-98546904D01*
X116078000Y-98424915D01*
X116078000Y-97282000D01*
X116058000Y-97282000D01*
X116058000Y-97028000D01*
X116078000Y-97028000D01*
X116078000Y-95885085D01*
X115855961Y-95763096D01*
X115721913Y-95803754D01*
X115467580Y-95923963D01*
X115241586Y-96091481D01*
X115052615Y-96299869D01*
X114941067Y-96485865D01*
X114936680Y-96475273D01*
X114779637Y-96240241D01*
X114579759Y-96040363D01*
X114344727Y-95883320D01*
X114083574Y-95775147D01*
X113806335Y-95720000D01*
X113523665Y-95720000D01*
X113246426Y-95775147D01*
X112985273Y-95883320D01*
X112750241Y-96040363D01*
X112550363Y-96240241D01*
X112395000Y-96472759D01*
X112239637Y-96240241D01*
X112039759Y-96040363D01*
X111804727Y-95883320D01*
X111543574Y-95775147D01*
X111266335Y-95720000D01*
X110983665Y-95720000D01*
X110706426Y-95775147D01*
X110445273Y-95883320D01*
X110210241Y-96040363D01*
X110010363Y-96240241D01*
X109855000Y-96472759D01*
X109699637Y-96240241D01*
X109499759Y-96040363D01*
X109264727Y-95883320D01*
X109003574Y-95775147D01*
X108726335Y-95720000D01*
X108443665Y-95720000D01*
X108166426Y-95775147D01*
X107905273Y-95883320D01*
X107670241Y-96040363D01*
X107470363Y-96240241D01*
X107315000Y-96472759D01*
X107159637Y-96240241D01*
X106959759Y-96040363D01*
X106930000Y-96020479D01*
X106930000Y-95616578D01*
X107046579Y-95500000D01*
X127903422Y-95500000D01*
X132483421Y-100080000D01*
G37*
%TD.AperFunction*%
%TD*%
M02*
