%TF.GenerationSoftware,KiCad,Pcbnew,(5.1.9)-1*%
%TF.CreationDate,2021-09-21T00:59:17-04:00*%
%TF.ProjectId,Servo-Simple-Tester-ver-0.1,53657276-6f2d-4536-996d-706c652d5465,rev?*%
%TF.SameCoordinates,Original*%
%TF.FileFunction,Soldermask,Bot*%
%TF.FilePolarity,Negative*%
%FSLAX46Y46*%
G04 Gerber Fmt 4.6, Leading zero omitted, Abs format (unit mm)*
G04 Created by KiCad (PCBNEW (5.1.9)-1) date 2021-09-21 00:59:17*
%MOMM*%
%LPD*%
G01*
G04 APERTURE LIST*
%ADD10O,1.704000X1.704000*%
%ADD11C,1.804000*%
%ADD12C,2.004000*%
%ADD13O,2.724000X3.244000*%
%ADD14O,1.404000X1.404000*%
%ADD15C,1.404000*%
%ADD16C,2.604000*%
%ADD17O,1.804000X1.804000*%
%ADD18O,1.604000X1.604000*%
G04 APERTURE END LIST*
%TO.C,J5*%
G36*
G01*
X145630000Y-91022000D02*
X143930000Y-91022000D01*
G75*
G02*
X143928000Y-91020000I0J2000D01*
G01*
X143928000Y-89320000D01*
G75*
G02*
X143930000Y-89318000I2000J0D01*
G01*
X145630000Y-89318000D01*
G75*
G02*
X145632000Y-89320000I0J-2000D01*
G01*
X145632000Y-91020000D01*
G75*
G02*
X145630000Y-91022000I-2000J0D01*
G01*
G37*
D10*
X154940000Y-90170000D03*
X147320000Y-90170000D03*
X149860000Y-90170000D03*
X157480000Y-90170000D03*
X152400000Y-90170000D03*
%TD*%
%TO.C,J4*%
G36*
G01*
X145630000Y-93562000D02*
X143930000Y-93562000D01*
G75*
G02*
X143928000Y-93560000I0J2000D01*
G01*
X143928000Y-91860000D01*
G75*
G02*
X143930000Y-91858000I2000J0D01*
G01*
X145630000Y-91858000D01*
G75*
G02*
X145632000Y-91860000I0J-2000D01*
G01*
X145632000Y-93560000D01*
G75*
G02*
X145630000Y-93562000I-2000J0D01*
G01*
G37*
X154940000Y-92710000D03*
X147320000Y-92710000D03*
X149860000Y-92710000D03*
X157480000Y-92710000D03*
X152400000Y-92710000D03*
%TD*%
%TO.C,J3*%
G36*
G01*
X145630000Y-96102000D02*
X143930000Y-96102000D01*
G75*
G02*
X143928000Y-96100000I0J2000D01*
G01*
X143928000Y-94400000D01*
G75*
G02*
X143930000Y-94398000I2000J0D01*
G01*
X145630000Y-94398000D01*
G75*
G02*
X145632000Y-94400000I0J-2000D01*
G01*
X145632000Y-96100000D01*
G75*
G02*
X145630000Y-96102000I-2000J0D01*
G01*
G37*
X154940000Y-95250000D03*
X147320000Y-95250000D03*
X149860000Y-95250000D03*
X157480000Y-95250000D03*
X152400000Y-95250000D03*
%TD*%
D11*
%TO.C,D1*%
X87630000Y-88900000D03*
G36*
G01*
X91072000Y-88000000D02*
X91072000Y-89800000D01*
G75*
G02*
X91070000Y-89802000I-2000J0D01*
G01*
X89270000Y-89802000D01*
G75*
G02*
X89268000Y-89800000I0J2000D01*
G01*
X89268000Y-88000000D01*
G75*
G02*
X89270000Y-87998000I2000J0D01*
G01*
X91070000Y-87998000D01*
G75*
G02*
X91072000Y-88000000I0J-2000D01*
G01*
G37*
%TD*%
D10*
%TO.C,J2*%
X111760000Y-124460000D03*
G36*
G01*
X110070000Y-125312000D02*
X108370000Y-125312000D01*
G75*
G02*
X108368000Y-125310000I0J2000D01*
G01*
X108368000Y-123610000D01*
G75*
G02*
X108370000Y-123608000I2000J0D01*
G01*
X110070000Y-123608000D01*
G75*
G02*
X110072000Y-123610000I0J-2000D01*
G01*
X110072000Y-125310000D01*
G75*
G02*
X110070000Y-125312000I-2000J0D01*
G01*
G37*
%TD*%
%TO.C,J1*%
X121285000Y-124460000D03*
G36*
G01*
X119595000Y-125312000D02*
X117895000Y-125312000D01*
G75*
G02*
X117893000Y-125310000I0J2000D01*
G01*
X117893000Y-123610000D01*
G75*
G02*
X117895000Y-123608000I2000J0D01*
G01*
X119595000Y-123608000D01*
G75*
G02*
X119597000Y-123610000I0J-2000D01*
G01*
X119597000Y-125310000D01*
G75*
G02*
X119595000Y-125312000I-2000J0D01*
G01*
G37*
%TD*%
D12*
%TO.C,SW3*%
X154940000Y-120650000D03*
X154940000Y-125150000D03*
X148440000Y-120650000D03*
X148440000Y-125150000D03*
%TD*%
%TO.C,SW2*%
X140335000Y-120650000D03*
X140335000Y-125150000D03*
X133835000Y-120650000D03*
X133835000Y-125150000D03*
%TD*%
%TO.C,SW1*%
X170180000Y-120650000D03*
X170180000Y-125150000D03*
X163680000Y-120650000D03*
X163680000Y-125150000D03*
%TD*%
D11*
%TO.C,RV3*%
X164200000Y-116205000D03*
X166700000Y-116205000D03*
X169200000Y-116205000D03*
D13*
X161950000Y-106205000D03*
X171450000Y-106205000D03*
D11*
X169200000Y-113705000D03*
X166700000Y-113705000D03*
G36*
G01*
X165102000Y-112805000D02*
X165102000Y-114605000D01*
G75*
G02*
X165100000Y-114607000I-2000J0D01*
G01*
X163300000Y-114607000D01*
G75*
G02*
X163298000Y-114605000I0J2000D01*
G01*
X163298000Y-112805000D01*
G75*
G02*
X163300000Y-112803000I2000J0D01*
G01*
X165100000Y-112803000D01*
G75*
G02*
X165102000Y-112805000I0J-2000D01*
G01*
G37*
%TD*%
%TO.C,RV2*%
X148960000Y-116205000D03*
X151460000Y-116205000D03*
X153960000Y-116205000D03*
D13*
X146710000Y-106205000D03*
X156210000Y-106205000D03*
D11*
X153960000Y-113705000D03*
X151460000Y-113705000D03*
G36*
G01*
X149862000Y-112805000D02*
X149862000Y-114605000D01*
G75*
G02*
X149860000Y-114607000I-2000J0D01*
G01*
X148060000Y-114607000D01*
G75*
G02*
X148058000Y-114605000I0J2000D01*
G01*
X148058000Y-112805000D01*
G75*
G02*
X148060000Y-112803000I2000J0D01*
G01*
X149860000Y-112803000D01*
G75*
G02*
X149862000Y-112805000I0J-2000D01*
G01*
G37*
%TD*%
%TO.C,RV1*%
X133720000Y-116205000D03*
X136220000Y-116205000D03*
X138720000Y-116205000D03*
D13*
X131470000Y-106205000D03*
X140970000Y-106205000D03*
D11*
X138720000Y-113705000D03*
X136220000Y-113705000D03*
G36*
G01*
X134622000Y-112805000D02*
X134622000Y-114605000D01*
G75*
G02*
X134620000Y-114607000I-2000J0D01*
G01*
X132820000Y-114607000D01*
G75*
G02*
X132818000Y-114605000I0J2000D01*
G01*
X132818000Y-112805000D01*
G75*
G02*
X132820000Y-112803000I2000J0D01*
G01*
X134620000Y-112803000D01*
G75*
G02*
X134622000Y-112805000I0J-2000D01*
G01*
G37*
%TD*%
D14*
%TO.C,R2*%
X128270000Y-86995000D03*
D15*
X120650000Y-86995000D03*
%TD*%
D14*
%TO.C,R1*%
X120650000Y-90805000D03*
D15*
X128270000Y-90805000D03*
%TD*%
D16*
%TO.C,J6*%
X88265000Y-123825000D03*
G36*
G01*
X86965000Y-119023000D02*
X89565000Y-119023000D01*
G75*
G02*
X89567000Y-119025000I0J-2000D01*
G01*
X89567000Y-121625000D01*
G75*
G02*
X89565000Y-121627000I-2000J0D01*
G01*
X86965000Y-121627000D01*
G75*
G02*
X86963000Y-121625000I0J2000D01*
G01*
X86963000Y-119025000D01*
G75*
G02*
X86965000Y-119023000I2000J0D01*
G01*
G37*
%TD*%
D17*
%TO.C,D6*%
X94615000Y-119380000D03*
G36*
G01*
X103137000Y-118480000D02*
X103137000Y-120280000D01*
G75*
G02*
X103135000Y-120282000I-2000J0D01*
G01*
X101335000Y-120282000D01*
G75*
G02*
X101333000Y-120280000I0J2000D01*
G01*
X101333000Y-118480000D01*
G75*
G02*
X101335000Y-118478000I2000J0D01*
G01*
X103135000Y-118478000D01*
G75*
G02*
X103137000Y-118480000I0J-2000D01*
G01*
G37*
%TD*%
%TO.C,D5*%
X102235000Y-124460000D03*
G36*
G01*
X93713000Y-125360000D02*
X93713000Y-123560000D01*
G75*
G02*
X93715000Y-123558000I2000J0D01*
G01*
X95515000Y-123558000D01*
G75*
G02*
X95517000Y-123560000I0J-2000D01*
G01*
X95517000Y-125360000D01*
G75*
G02*
X95515000Y-125362000I-2000J0D01*
G01*
X93715000Y-125362000D01*
G75*
G02*
X93713000Y-125360000I0J2000D01*
G01*
G37*
%TD*%
D11*
%TO.C,D4*%
X112395000Y-88900000D03*
G36*
G01*
X115837000Y-88000000D02*
X115837000Y-89800000D01*
G75*
G02*
X115835000Y-89802000I-2000J0D01*
G01*
X114035000Y-89802000D01*
G75*
G02*
X114033000Y-89800000I0J2000D01*
G01*
X114033000Y-88000000D01*
G75*
G02*
X114035000Y-87998000I2000J0D01*
G01*
X115835000Y-87998000D01*
G75*
G02*
X115837000Y-88000000I0J-2000D01*
G01*
G37*
%TD*%
%TO.C,D3*%
X104775000Y-88900000D03*
G36*
G01*
X108217000Y-88000000D02*
X108217000Y-89800000D01*
G75*
G02*
X108215000Y-89802000I-2000J0D01*
G01*
X106415000Y-89802000D01*
G75*
G02*
X106413000Y-89800000I0J2000D01*
G01*
X106413000Y-88000000D01*
G75*
G02*
X106415000Y-87998000I2000J0D01*
G01*
X108215000Y-87998000D01*
G75*
G02*
X108217000Y-88000000I0J-2000D01*
G01*
G37*
%TD*%
%TO.C,D2*%
X97155000Y-88900000D03*
G36*
G01*
X100597000Y-88000000D02*
X100597000Y-89800000D01*
G75*
G02*
X100595000Y-89802000I-2000J0D01*
G01*
X98795000Y-89802000D01*
G75*
G02*
X98793000Y-89800000I0J2000D01*
G01*
X98793000Y-88000000D01*
G75*
G02*
X98795000Y-87998000I2000J0D01*
G01*
X100595000Y-87998000D01*
G75*
G02*
X100597000Y-88000000I0J-2000D01*
G01*
G37*
%TD*%
D18*
%TO.C,A1*%
X88265000Y-112395000D03*
X88265000Y-97155000D03*
X123825000Y-112395000D03*
X90805000Y-97155000D03*
X121285000Y-112395000D03*
X93345000Y-97155000D03*
X118745000Y-112395000D03*
X95885000Y-97155000D03*
X116205000Y-112395000D03*
X98425000Y-97155000D03*
X113665000Y-112395000D03*
X100965000Y-97155000D03*
X111125000Y-112395000D03*
X103505000Y-97155000D03*
X108585000Y-112395000D03*
X106045000Y-97155000D03*
X106045000Y-112395000D03*
X108585000Y-97155000D03*
X103505000Y-112395000D03*
X111125000Y-97155000D03*
X100965000Y-112395000D03*
X113665000Y-97155000D03*
X98425000Y-112395000D03*
X116205000Y-97155000D03*
X95885000Y-112395000D03*
X118745000Y-97155000D03*
X93345000Y-112395000D03*
X121285000Y-97155000D03*
X90805000Y-112395000D03*
G36*
G01*
X123025000Y-96353000D02*
X124625000Y-96353000D01*
G75*
G02*
X124627000Y-96355000I0J-2000D01*
G01*
X124627000Y-97955000D01*
G75*
G02*
X124625000Y-97957000I-2000J0D01*
G01*
X123025000Y-97957000D01*
G75*
G02*
X123023000Y-97955000I0J2000D01*
G01*
X123023000Y-96355000D01*
G75*
G02*
X123025000Y-96353000I2000J0D01*
G01*
G37*
%TD*%
M02*
