M48
; DRILL file {KiCad (5.1.9)-1} date 09/21/21 00:59:29
; FORMAT={-:-/ absolute / inch / decimal}
; #@! TF.CreationDate,2021-09-21T00:59:29-04:00
; #@! TF.GenerationSoftware,Kicad,Pcbnew,(5.1.9)-1
; #@! TF.FileFunction,Plated,1,2,PTH
FMAT,2
INCH
T1C0.0157
T2C0.0236
T3C0.0276
T4C0.0354
T5C0.0394
T6C0.0433
T7C0.0512
%
G90
G05
T1
X4.125Y-4.35
X4.35Y-3.575
X4.4Y-4.1
X4.475Y-4.3
X4.575Y-4.05
X4.625Y-4.25
X4.675Y-4.05
X4.825Y-4.65
X5.025Y-4.65
X5.175Y-3.575
X5.325Y-3.525
X5.475Y-3.525
X5.525Y-3.775
X5.65Y-4.65
X6.275Y-3.825
X6.275Y-3.875
X6.275Y-3.925
X6.5Y-3.775
X6.575Y-3.875
T2
X5.025Y-4.475
X5.6Y-3.75
T3
X4.75Y-3.425
X4.75Y-3.575
X5.05Y-3.425
X5.05Y-3.575
T4
X3.45Y-3.5
X3.55Y-3.5
X3.725Y-4.7
X3.725Y-4.9
X3.825Y-3.5
X3.925Y-3.5
X4.025Y-4.7
X4.025Y-4.9
X4.125Y-3.5
X4.225Y-3.5
X4.425Y-3.5
X4.525Y-3.5
T5
X3.475Y-3.825
X3.475Y-4.425
X3.575Y-3.825
X3.575Y-4.425
X3.675Y-3.825
X3.675Y-4.425
X3.775Y-3.825
X3.775Y-4.425
X3.875Y-3.825
X3.875Y-4.425
X3.975Y-3.825
X3.975Y-4.425
X4.075Y-3.825
X4.075Y-4.425
X4.175Y-3.825
X4.175Y-4.425
X4.275Y-3.825
X4.275Y-4.425
X4.3Y-4.9
X4.375Y-3.825
X4.375Y-4.425
X4.4Y-4.9
X4.475Y-3.825
X4.475Y-4.425
X4.575Y-3.825
X4.575Y-4.425
X4.675Y-3.825
X4.675Y-4.425
X4.675Y-4.9
X4.775Y-3.825
X4.775Y-4.425
X4.775Y-4.9
X4.875Y-3.825
X4.875Y-4.425
X5.2646Y-4.4766
X5.2646Y-4.575
X5.363Y-4.4766
X5.363Y-4.575
X5.4614Y-4.4766
X5.4614Y-4.575
X5.7Y-3.55
X5.7Y-3.65
X5.7Y-3.75
X5.8Y-3.55
X5.8Y-3.65
X5.8Y-3.75
X5.8646Y-4.4766
X5.8646Y-4.575
X5.9Y-3.55
X5.9Y-3.65
X5.9Y-3.75
X5.963Y-4.4766
X5.963Y-4.575
X6.0Y-3.55
X6.0Y-3.65
X6.0Y-3.75
X6.0614Y-4.4766
X6.0614Y-4.575
X6.1Y-3.55
X6.1Y-3.65
X6.1Y-3.75
X6.2Y-3.55
X6.2Y-3.65
X6.2Y-3.75
X6.4646Y-4.4766
X6.4646Y-4.575
X6.563Y-4.4766
X6.563Y-4.575
X6.6614Y-4.4766
X6.6614Y-4.575
T6
X5.2691Y-4.75
X5.2691Y-4.9272
X5.525Y-4.75
X5.525Y-4.9272
X5.8441Y-4.75
X5.8441Y-4.9272
X6.1Y-4.75
X6.1Y-4.9272
X6.4441Y-4.75
X6.4441Y-4.9272
X6.7Y-4.75
X6.7Y-4.9272
T7
X3.475Y-4.7372
X3.475Y-4.875
T6
G00X5.176Y-4.1951
M15
G01X5.176Y-4.1675
M16
G05
G00X5.55Y-4.1951
M15
G01X5.55Y-4.1675
M16
G05
G00X5.776Y-4.1951
M15
G01X5.776Y-4.1675
M16
G05
G00X6.15Y-4.1951
M15
G01X6.15Y-4.1675
M16
G05
G00X6.376Y-4.1951
M15
G01X6.376Y-4.1675
M16
G05
G00X6.75Y-4.1951
M15
G01X6.75Y-4.1675
M16
G05
T0
M30
